M48
;GenerationSoftware,Autodesk,EAGLE,9.6.2*%
;CreationDate,2020-12-27T20:24:22Z*%
FMAT,2
ICI,OFF
METRIC,TZ,000.000
T8C0.350
T7C0.800
T6C0.813
T5C1.016
T4C1.118
T3C1.321
T2C3.302
%
G90
M71
T2
X-10541Y34925
T3
X59690Y3810
X52070Y3810
X52070Y24130
X59690Y19050
X52070Y29210
X52070Y19050
X59690Y24130
X59690Y29210
T4
X6985Y32385
X6985Y34925
X6985Y37465
X46990Y13970
X46990Y3810
T5
X41275Y3810
X38735Y3810
X36195Y3810
X64135Y48895
X33655Y3810
X13335Y25400
X13335Y5080
X64135Y46355
X59766Y66396
X31115Y3810
X28575Y3810
X26035Y3810
X41275Y26670
X38735Y26670
X36195Y26670
X33655Y26670
X28575Y26670
X26035Y26670
X53264Y66396
X65405Y11430
X65405Y13970
X65405Y16510
X65405Y19050
X11354Y66396
X11354Y61874
X17856Y66396
X17856Y61874
X64135Y51435
X53264Y61874
X31115Y26670
X59766Y61874
X31674Y66396
X31674Y61874
X38176Y66396
X38176Y61874
X64135Y53975
X5715Y48895
X5715Y46355
T6
X15875Y38735
X15875Y28575
X12700Y38735
X12700Y28575
X53975Y36830
X64135Y36830
T7
X55245Y42545
X52705Y42545
X50165Y42545
X47625Y42545
X45085Y42545
X42545Y42545
X40005Y42545
X37465Y42545
X34925Y42545
X32385Y42545
X29845Y42545
X27305Y42545
X24765Y42545
X22225Y42545
X19685Y42545
X17145Y42545
X14605Y42545
X12065Y42545
X60325Y42545
X60325Y57785
X57785Y57785
X55245Y57785
X52705Y57785
X50165Y57785
X47625Y57785
X45085Y57785
X42545Y57785
X40005Y57785
X37465Y57785
X32385Y57785
X57785Y42545
X12065Y57785
X14605Y57785
X17145Y57785
X19685Y57785
X22225Y57785
X24765Y57785
X27305Y57785
X29845Y57785
X34925Y57785
T8
X15240Y13970
X43815Y12065
X26035Y13970
X46990Y36830
X46990Y32385
X2540Y64135
X7620Y64135
X43815Y15875
M30