G04 EAGLE Gerber RS-274X export*
G75*
%MOMM*%
%FSLAX34Y34*%
%LPD*%
%IN*%
%IPPOS*%
%AMOC8*
5,1,8,0,0,1.08239X$1,22.5*%
G01*
%ADD10C,0.254000*%


D10*
X0Y0D02*
X685800Y0D01*
X685800Y685800D01*
X0Y685800D01*
X0Y0D01*
X393700Y341902D02*
X393700Y343898D01*
X393622Y345891D01*
X393465Y347880D01*
X393231Y349862D01*
X392919Y351832D01*
X392529Y353789D01*
X392064Y355729D01*
X391522Y357649D01*
X390905Y359547D01*
X390215Y361419D01*
X389451Y363262D01*
X388616Y365074D01*
X387710Y366852D01*
X386735Y368592D01*
X385693Y370294D01*
X384584Y371952D01*
X383412Y373567D01*
X382177Y375133D01*
X380881Y376651D01*
X379526Y378116D01*
X378116Y379526D01*
X376651Y380881D01*
X375133Y382177D01*
X373567Y383412D01*
X371952Y384584D01*
X370294Y385693D01*
X368592Y386735D01*
X366852Y387710D01*
X365074Y388616D01*
X363262Y389451D01*
X361419Y390215D01*
X359547Y390905D01*
X357649Y391522D01*
X355729Y392064D01*
X353789Y392529D01*
X351832Y392919D01*
X349862Y393231D01*
X347880Y393465D01*
X345891Y393622D01*
X343898Y393700D01*
X341902Y393700D01*
X339909Y393622D01*
X337920Y393465D01*
X335938Y393231D01*
X333968Y392919D01*
X332011Y392529D01*
X330071Y392064D01*
X328151Y391522D01*
X326253Y390905D01*
X324381Y390215D01*
X322538Y389451D01*
X320726Y388616D01*
X318948Y387710D01*
X317208Y386735D01*
X315507Y385693D01*
X313848Y384584D01*
X312233Y383412D01*
X310667Y382177D01*
X309149Y380881D01*
X307684Y379526D01*
X306274Y378116D01*
X304919Y376651D01*
X303624Y375133D01*
X302388Y373567D01*
X301216Y371952D01*
X300107Y370294D01*
X299065Y368592D01*
X298090Y366852D01*
X297184Y365074D01*
X296349Y363262D01*
X295585Y361419D01*
X294895Y359547D01*
X294278Y357649D01*
X293737Y355729D01*
X293271Y353789D01*
X292882Y351832D01*
X292569Y349862D01*
X292335Y347880D01*
X292178Y345891D01*
X292100Y343898D01*
X292100Y341902D01*
X292178Y339909D01*
X292335Y337920D01*
X292569Y335938D01*
X292882Y333968D01*
X293271Y332011D01*
X293737Y330071D01*
X294278Y328151D01*
X294895Y326253D01*
X295585Y324381D01*
X296349Y322538D01*
X297184Y320726D01*
X298090Y318948D01*
X299065Y317208D01*
X300107Y315507D01*
X301216Y313848D01*
X302388Y312233D01*
X303624Y310667D01*
X304919Y309149D01*
X306274Y307684D01*
X307684Y306274D01*
X309149Y304919D01*
X310667Y303624D01*
X312233Y302388D01*
X313848Y301216D01*
X315507Y300107D01*
X317208Y299065D01*
X318948Y298090D01*
X320726Y297184D01*
X322538Y296349D01*
X324381Y295585D01*
X326253Y294895D01*
X328151Y294278D01*
X330071Y293737D01*
X332011Y293271D01*
X333968Y292882D01*
X335938Y292569D01*
X337920Y292335D01*
X339909Y292178D01*
X341902Y292100D01*
X343898Y292100D01*
X345891Y292178D01*
X347880Y292335D01*
X349862Y292569D01*
X351832Y292882D01*
X353789Y293271D01*
X355729Y293737D01*
X357649Y294278D01*
X359547Y294895D01*
X361419Y295585D01*
X363262Y296349D01*
X365074Y297184D01*
X366852Y298090D01*
X368592Y299065D01*
X370294Y300107D01*
X371952Y301216D01*
X373567Y302388D01*
X375133Y303624D01*
X376651Y304919D01*
X378116Y306274D01*
X379526Y307684D01*
X380881Y309149D01*
X382177Y310667D01*
X383412Y312233D01*
X384584Y313848D01*
X385693Y315507D01*
X386735Y317208D01*
X387710Y318948D01*
X388616Y320726D01*
X389451Y322538D01*
X390215Y324381D01*
X390905Y326253D01*
X391522Y328151D01*
X392064Y330071D01*
X392529Y332011D01*
X392919Y333968D01*
X393231Y335938D01*
X393465Y337920D01*
X393622Y339909D01*
X393700Y341902D01*
X-104870Y365760D02*
X-103791Y365689D01*
X-102719Y365548D01*
X-101659Y365337D01*
X-100615Y365058D01*
X-99591Y364710D01*
X-98593Y364296D01*
X-97623Y363818D01*
X-96687Y363278D01*
X-95788Y362677D01*
X-94931Y362019D01*
X-94118Y361307D01*
X-93354Y360542D01*
X-92641Y359729D01*
X-91983Y358872D01*
X-91382Y357973D01*
X-90842Y357037D01*
X-90364Y356067D01*
X-89950Y355069D01*
X-89602Y354045D01*
X-89323Y353001D01*
X-89112Y351941D01*
X-88971Y350869D01*
X-88900Y349790D01*
X-88900Y348710D01*
X-88971Y347631D01*
X-89112Y346559D01*
X-89323Y345499D01*
X-89602Y344455D01*
X-89950Y343431D01*
X-90364Y342433D01*
X-90842Y341463D01*
X-91382Y340527D01*
X-91983Y339628D01*
X-92641Y338771D01*
X-93354Y337958D01*
X-94118Y337194D01*
X-94931Y336481D01*
X-95788Y335823D01*
X-96687Y335222D01*
X-97623Y334682D01*
X-98593Y334204D01*
X-99591Y333790D01*
X-100615Y333442D01*
X-101659Y333163D01*
X-102719Y332952D01*
X-103791Y332811D01*
X-104870Y332740D01*
X-105950Y332740D01*
X-107029Y332811D01*
X-108101Y332952D01*
X-109161Y333163D01*
X-110205Y333442D01*
X-111229Y333790D01*
X-112227Y334204D01*
X-113197Y334682D01*
X-114133Y335222D01*
X-115032Y335823D01*
X-115889Y336481D01*
X-116702Y337194D01*
X-117467Y337958D01*
X-118179Y338771D01*
X-118837Y339628D01*
X-119438Y340527D01*
X-119978Y341463D01*
X-120456Y342433D01*
X-120870Y343431D01*
X-121218Y344455D01*
X-121497Y345499D01*
X-121708Y346559D01*
X-121849Y347631D01*
X-121920Y348710D01*
X-121920Y349790D01*
X-121849Y350869D01*
X-121708Y351941D01*
X-121497Y353001D01*
X-121218Y354045D01*
X-120870Y355069D01*
X-120456Y356067D01*
X-119978Y357037D01*
X-119438Y357973D01*
X-118837Y358872D01*
X-118179Y359729D01*
X-117467Y360542D01*
X-116702Y361307D01*
X-115889Y362019D01*
X-115032Y362677D01*
X-114133Y363278D01*
X-113197Y363818D01*
X-112227Y364296D01*
X-111229Y364710D01*
X-110205Y365058D01*
X-109161Y365337D01*
X-108101Y365548D01*
X-107029Y365689D01*
X-105950Y365760D01*
X-104870Y365760D01*
M02*
