G04 EAGLE Gerber RS-274X export*
G75*
%MOMM*%
%FSLAX34Y34*%
%LPD*%
%INSilkscreen Top*%
%IPPOS*%
%AMOC8*
5,1,8,0,0,1.08239X$1,22.5*%
G01*
%ADD10C,0.127000*%
%ADD11C,0.101600*%
%ADD12C,0.152400*%
%ADD13R,0.863600X0.609600*%
%ADD14C,0.050800*%
%ADD15R,0.635000X0.762000*%
%ADD16R,2.794000X1.270000*%
%ADD17C,0.177800*%
%ADD18C,0.254000*%
%ADD19R,0.609600X0.863600*%
%ADD20R,2.540000X0.508000*%
%ADD21R,0.762000X1.905000*%


D10*
X95250Y463550D02*
X95250Y476250D01*
X95250Y527050D02*
X95250Y539750D01*
X95250Y463550D02*
X139700Y463550D01*
X139700Y469900D01*
X146050Y476250D01*
X146050Y527050D01*
X139700Y533400D01*
X139700Y539750D01*
X95250Y539750D01*
X355600Y457200D02*
X361950Y450850D01*
X355600Y457200D02*
X349250Y463550D01*
X342900Y469900D01*
X336550Y476250D01*
X330200Y482600D01*
X323850Y488950D01*
X317500Y495300D01*
X311150Y501650D01*
X317500Y508000D01*
X323850Y514350D01*
X330200Y520700D01*
X336550Y527050D01*
X342900Y533400D01*
X349250Y539750D01*
X355600Y546100D01*
X361950Y552450D01*
X368300Y546100D01*
X374650Y539750D01*
X381000Y533400D01*
X387350Y527050D01*
X393700Y520700D01*
X400050Y514350D01*
X406400Y508000D01*
X412750Y501650D01*
X406400Y495300D01*
X400050Y488950D01*
X393700Y482600D01*
X387350Y476250D01*
X381000Y469900D01*
X374650Y463550D01*
X368300Y457200D01*
X361950Y450850D01*
D11*
X346893Y507652D02*
X346823Y507581D01*
X346751Y507512D01*
X346676Y507447D01*
X346598Y507385D01*
X346519Y507325D01*
X346437Y507269D01*
X346353Y507215D01*
X346267Y507165D01*
X346179Y507119D01*
X346089Y507076D01*
X345998Y507036D01*
X345905Y507000D01*
X345811Y506967D01*
X345716Y506938D01*
X345620Y506913D01*
X345523Y506891D01*
X345425Y506873D01*
X345326Y506859D01*
X345228Y506848D01*
X345128Y506842D01*
X345029Y506839D01*
X344929Y506840D01*
X344830Y506845D01*
X344731Y506854D01*
X344632Y506866D01*
X344534Y506882D01*
X344436Y506902D01*
X344340Y506926D01*
X344244Y506953D01*
X344150Y506984D01*
X344056Y507019D01*
X343965Y507057D01*
X343874Y507099D01*
X343785Y507144D01*
X343699Y507192D01*
X343614Y507244D01*
X343531Y507299D01*
X343450Y507357D01*
X343371Y507418D01*
X343295Y507482D01*
X343222Y507549D01*
X343221Y507550D02*
X343118Y507650D01*
X343017Y507753D01*
X342919Y507859D01*
X342823Y507968D01*
X342731Y508079D01*
X342642Y508192D01*
X342555Y508308D01*
X342472Y508425D01*
X342391Y508545D01*
X342314Y508667D01*
X342240Y508791D01*
X342170Y508917D01*
X342103Y509045D01*
X342039Y509175D01*
X341978Y509306D01*
X341921Y509438D01*
X341868Y509573D01*
X341818Y509708D01*
X341772Y509845D01*
X341729Y509983D01*
X341690Y510122D01*
X341655Y510262D01*
X341623Y510403D01*
X341595Y510544D01*
X341571Y510686D01*
X341551Y510829D01*
X341534Y510973D01*
X341521Y511117D01*
X341512Y511261D01*
X341507Y511405D01*
X346872Y516606D02*
X346942Y516677D01*
X347014Y516745D01*
X347089Y516810D01*
X347166Y516873D01*
X347246Y516932D01*
X347328Y516989D01*
X347412Y517042D01*
X347498Y517092D01*
X347586Y517138D01*
X347675Y517181D01*
X347767Y517221D01*
X347859Y517257D01*
X347953Y517290D01*
X348048Y517319D01*
X348144Y517344D01*
X348241Y517366D01*
X348339Y517384D01*
X348438Y517398D01*
X348537Y517409D01*
X348636Y517415D01*
X348735Y517418D01*
X348835Y517417D01*
X348934Y517412D01*
X349033Y517403D01*
X349132Y517391D01*
X349230Y517375D01*
X349327Y517355D01*
X349424Y517331D01*
X349520Y517304D01*
X349614Y517273D01*
X349707Y517238D01*
X349799Y517200D01*
X349889Y517158D01*
X349978Y517113D01*
X350065Y517065D01*
X350150Y517013D01*
X350233Y516958D01*
X350314Y516900D01*
X350392Y516839D01*
X350468Y516775D01*
X350542Y516708D01*
X350639Y516613D01*
X350734Y516515D01*
X350827Y516415D01*
X350916Y516312D01*
X351002Y516207D01*
X351086Y516099D01*
X351166Y515989D01*
X351243Y515877D01*
X351318Y515763D01*
X351388Y515647D01*
X351456Y515529D01*
X351520Y515408D01*
X351581Y515287D01*
X351639Y515163D01*
X351693Y515038D01*
X351743Y514912D01*
X351790Y514784D01*
X351833Y514655D01*
X351873Y514524D01*
X351909Y514393D01*
X351941Y514261D01*
X351970Y514128D01*
X351995Y513994D01*
X346254Y514063D02*
X346228Y514161D01*
X346206Y514260D01*
X346187Y514360D01*
X346172Y514460D01*
X346161Y514561D01*
X346154Y514662D01*
X346151Y514763D01*
X346152Y514865D01*
X346157Y514966D01*
X346165Y515067D01*
X346178Y515168D01*
X346194Y515268D01*
X346214Y515367D01*
X346238Y515466D01*
X346266Y515563D01*
X346297Y515660D01*
X346332Y515755D01*
X346371Y515848D01*
X346413Y515941D01*
X346459Y516031D01*
X346508Y516120D01*
X346561Y516206D01*
X346617Y516291D01*
X346676Y516373D01*
X346738Y516453D01*
X346804Y516531D01*
X346872Y516606D01*
X347510Y510195D02*
X347536Y510097D01*
X347558Y509998D01*
X347577Y509898D01*
X347592Y509798D01*
X347603Y509697D01*
X347610Y509596D01*
X347613Y509495D01*
X347612Y509393D01*
X347607Y509292D01*
X347599Y509191D01*
X347586Y509090D01*
X347570Y508990D01*
X347550Y508891D01*
X347526Y508792D01*
X347498Y508695D01*
X347467Y508598D01*
X347432Y508503D01*
X347393Y508410D01*
X347351Y508317D01*
X347305Y508227D01*
X347256Y508138D01*
X347203Y508052D01*
X347147Y507967D01*
X347088Y507885D01*
X347026Y507805D01*
X346960Y507727D01*
X346892Y507652D01*
X347510Y510195D02*
X346254Y514063D01*
X358252Y509417D02*
X350224Y500928D01*
X355894Y511647D02*
X360610Y507187D01*
X364004Y503978D02*
X355976Y495489D01*
X362374Y496586D02*
X364004Y503978D01*
X362374Y496586D02*
X369663Y498626D01*
X361636Y490137D01*
X365583Y486404D02*
X367941Y484174D01*
X368024Y484097D01*
X368111Y484024D01*
X368199Y483953D01*
X368291Y483886D01*
X368384Y483822D01*
X368480Y483761D01*
X368578Y483704D01*
X368677Y483650D01*
X368779Y483600D01*
X368882Y483553D01*
X368987Y483510D01*
X369093Y483470D01*
X369200Y483435D01*
X369309Y483403D01*
X369419Y483374D01*
X369529Y483350D01*
X369641Y483330D01*
X369753Y483313D01*
X369866Y483300D01*
X369978Y483292D01*
X370092Y483287D01*
X370205Y483286D01*
X370318Y483289D01*
X370431Y483296D01*
X370544Y483308D01*
X370656Y483322D01*
X370768Y483341D01*
X370879Y483364D01*
X370989Y483391D01*
X371098Y483421D01*
X371206Y483456D01*
X371313Y483494D01*
X371418Y483535D01*
X371522Y483581D01*
X371624Y483630D01*
X371725Y483682D01*
X371823Y483738D01*
X371920Y483797D01*
X372014Y483860D01*
X372106Y483926D01*
X372196Y483995D01*
X372283Y484067D01*
X372368Y484143D01*
X372450Y484221D01*
X372529Y484302D01*
X372606Y484385D01*
X372679Y484472D01*
X372750Y484560D01*
X372817Y484652D01*
X372881Y484745D01*
X372942Y484841D01*
X372999Y484939D01*
X373053Y485038D01*
X373103Y485140D01*
X373150Y485243D01*
X373193Y485348D01*
X373233Y485454D01*
X373268Y485561D01*
X373300Y485670D01*
X373329Y485780D01*
X373353Y485890D01*
X373373Y486002D01*
X373390Y486114D01*
X373403Y486227D01*
X373411Y486339D01*
X373416Y486453D01*
X373417Y486566D01*
X373414Y486679D01*
X373407Y486792D01*
X373395Y486905D01*
X373381Y487017D01*
X373362Y487129D01*
X373339Y487240D01*
X373312Y487350D01*
X373282Y487459D01*
X373247Y487567D01*
X373209Y487674D01*
X373168Y487779D01*
X373122Y487883D01*
X373073Y487985D01*
X373021Y488086D01*
X372965Y488184D01*
X372906Y488281D01*
X372843Y488375D01*
X372777Y488467D01*
X372708Y488557D01*
X372636Y488644D01*
X372560Y488729D01*
X372482Y488811D01*
X372401Y488890D01*
X376441Y492217D02*
X373611Y494893D01*
X376441Y492217D02*
X376512Y492147D01*
X376581Y492073D01*
X376648Y491997D01*
X376711Y491919D01*
X376771Y491838D01*
X376828Y491755D01*
X376881Y491670D01*
X376931Y491583D01*
X376978Y491493D01*
X377022Y491403D01*
X377061Y491310D01*
X377097Y491216D01*
X377130Y491121D01*
X377159Y491024D01*
X377184Y490927D01*
X377205Y490828D01*
X377222Y490729D01*
X377236Y490629D01*
X377245Y490529D01*
X377251Y490429D01*
X377253Y490328D01*
X377251Y490227D01*
X377245Y490127D01*
X377235Y490027D01*
X377221Y489927D01*
X377204Y489828D01*
X377182Y489729D01*
X377157Y489632D01*
X377128Y489535D01*
X377095Y489440D01*
X377059Y489346D01*
X377019Y489254D01*
X376976Y489163D01*
X376928Y489074D01*
X376878Y488987D01*
X376824Y488902D01*
X376767Y488819D01*
X376707Y488738D01*
X376644Y488660D01*
X376577Y488584D01*
X376508Y488511D01*
X376436Y488441D01*
X376362Y488373D01*
X376284Y488308D01*
X376205Y488247D01*
X376123Y488188D01*
X376039Y488133D01*
X375952Y488081D01*
X375864Y488033D01*
X375774Y487988D01*
X375682Y487946D01*
X375589Y487908D01*
X375495Y487874D01*
X375399Y487843D01*
X375302Y487816D01*
X375204Y487793D01*
X375105Y487774D01*
X375005Y487758D01*
X374905Y487747D01*
X374805Y487739D01*
X374704Y487735D01*
X374604Y487736D01*
X374503Y487740D01*
X374403Y487747D01*
X374303Y487759D01*
X374203Y487775D01*
X374104Y487794D01*
X374007Y487818D01*
X373910Y487845D01*
X373814Y487876D01*
X373719Y487910D01*
X373626Y487949D01*
X373534Y487990D01*
X373444Y488036D01*
X373356Y488084D01*
X373270Y488136D01*
X373186Y488192D01*
X373104Y488251D01*
X373025Y488312D01*
X372948Y488377D01*
X372873Y488445D01*
X372873Y488444D02*
X370986Y490228D01*
X384509Y484586D02*
X384585Y484512D01*
X384659Y484434D01*
X384729Y484354D01*
X384797Y484271D01*
X384861Y484186D01*
X384922Y484099D01*
X384981Y484010D01*
X385035Y483918D01*
X385087Y483825D01*
X385135Y483729D01*
X385179Y483632D01*
X385220Y483534D01*
X385257Y483434D01*
X385291Y483333D01*
X385321Y483230D01*
X385347Y483127D01*
X385369Y483022D01*
X385388Y482917D01*
X385402Y482811D01*
X385413Y482705D01*
X385420Y482599D01*
X385423Y482492D01*
X385422Y482386D01*
X385417Y482279D01*
X385408Y482173D01*
X385396Y482067D01*
X385379Y481961D01*
X385359Y481856D01*
X385335Y481753D01*
X385307Y481650D01*
X385276Y481548D01*
X385240Y481447D01*
X385201Y481348D01*
X385159Y481250D01*
X385113Y481154D01*
X385063Y481059D01*
X385010Y480966D01*
X384954Y480876D01*
X384894Y480787D01*
X384831Y480701D01*
X384765Y480617D01*
X384696Y480536D01*
X384624Y480457D01*
X384510Y484587D02*
X384420Y484669D01*
X384329Y484747D01*
X384234Y484823D01*
X384137Y484896D01*
X384038Y484965D01*
X383937Y485032D01*
X383834Y485095D01*
X383729Y485154D01*
X383621Y485211D01*
X383513Y485263D01*
X383402Y485313D01*
X383290Y485358D01*
X383176Y485400D01*
X383062Y485439D01*
X382946Y485473D01*
X382829Y485504D01*
X382711Y485531D01*
X382592Y485554D01*
X382473Y485574D01*
X382352Y485589D01*
X382232Y485601D01*
X382111Y485609D01*
X381990Y485613D01*
X381869Y485612D01*
X381748Y485609D01*
X381628Y485601D01*
X381507Y485589D01*
X381387Y485573D01*
X381268Y485554D01*
X381149Y485531D01*
X381031Y485503D01*
X380914Y485473D01*
X380798Y485438D01*
X380683Y485400D01*
X380570Y485357D01*
X380458Y485312D01*
X380347Y485262D01*
X380238Y485210D01*
X380131Y485153D01*
X382356Y479476D02*
X382467Y479478D01*
X382577Y479485D01*
X382687Y479495D01*
X382796Y479509D01*
X382905Y479526D01*
X383014Y479548D01*
X383121Y479574D01*
X383228Y479603D01*
X383333Y479636D01*
X383437Y479672D01*
X383540Y479713D01*
X383641Y479756D01*
X383741Y479804D01*
X383839Y479855D01*
X383935Y479909D01*
X384030Y479967D01*
X384122Y480028D01*
X384212Y480092D01*
X384299Y480159D01*
X384384Y480229D01*
X384467Y480303D01*
X384547Y480379D01*
X384624Y480458D01*
X382356Y479476D02*
X373888Y478550D01*
X378604Y474090D01*
D10*
X368300Y546100D02*
X374650Y552450D01*
X381000Y546100D02*
X374650Y539750D01*
X381000Y533400D02*
X387350Y539750D01*
X393700Y533400D02*
X387350Y527050D01*
X393700Y520700D02*
X400050Y527050D01*
X406400Y520700D02*
X400050Y514350D01*
X406400Y508000D02*
X412750Y514350D01*
X406400Y495300D02*
X412750Y488950D01*
X406400Y482600D02*
X400050Y488950D01*
X393700Y482600D02*
X400050Y476250D01*
X393700Y469900D02*
X387350Y476250D01*
X381000Y469900D02*
X387350Y463550D01*
X381000Y457200D02*
X374650Y463550D01*
X349250Y463550D02*
X342900Y457200D01*
X336550Y463550D02*
X342900Y469900D01*
X336550Y476250D02*
X330200Y469900D01*
X323850Y476250D02*
X330200Y482600D01*
X323850Y488950D02*
X317500Y482600D01*
X311150Y488950D02*
X317500Y495300D01*
X317500Y508000D02*
X311150Y514350D01*
X317500Y520700D02*
X323850Y514350D01*
X330200Y520700D02*
X323850Y527050D01*
X330200Y533400D02*
X336550Y527050D01*
X342900Y533400D02*
X336550Y539750D01*
X342900Y546100D02*
X349250Y539750D01*
X95250Y539750D02*
X95250Y590550D01*
X95254Y590857D01*
X95265Y591164D01*
X95283Y591470D01*
X95309Y591776D01*
X95343Y592081D01*
X95383Y592385D01*
X95431Y592688D01*
X95487Y592990D01*
X95549Y593290D01*
X95619Y593589D01*
X95696Y593886D01*
X95780Y594182D01*
X95872Y594475D01*
X95970Y594765D01*
X96075Y595053D01*
X96188Y595339D01*
X96307Y595622D01*
X96433Y595902D01*
X96565Y596179D01*
X96705Y596452D01*
X96851Y596722D01*
X97003Y596988D01*
X97162Y597251D01*
X97327Y597510D01*
X97498Y597764D01*
X97675Y598015D01*
X97859Y598261D01*
X98048Y598503D01*
X98243Y598739D01*
X98444Y598972D01*
X98650Y599199D01*
X98862Y599421D01*
X99079Y599638D01*
X99301Y599850D01*
X99528Y600056D01*
X99761Y600257D01*
X99997Y600452D01*
X100239Y600641D01*
X100485Y600825D01*
X100736Y601002D01*
X100990Y601173D01*
X101249Y601338D01*
X101512Y601497D01*
X101778Y601649D01*
X102048Y601795D01*
X102321Y601935D01*
X102598Y602067D01*
X102878Y602193D01*
X103161Y602312D01*
X103447Y602425D01*
X103735Y602530D01*
X104025Y602628D01*
X104318Y602720D01*
X104614Y602804D01*
X104911Y602881D01*
X105210Y602951D01*
X105510Y603013D01*
X105812Y603069D01*
X106115Y603117D01*
X106419Y603157D01*
X106724Y603191D01*
X107030Y603217D01*
X107336Y603235D01*
X107643Y603246D01*
X107950Y603250D01*
X603250Y603250D01*
X603557Y603246D01*
X603864Y603235D01*
X604170Y603217D01*
X604476Y603191D01*
X604781Y603157D01*
X605085Y603117D01*
X605388Y603069D01*
X605690Y603013D01*
X605990Y602951D01*
X606289Y602881D01*
X606586Y602804D01*
X606882Y602720D01*
X607175Y602628D01*
X607465Y602530D01*
X607753Y602425D01*
X608039Y602312D01*
X608322Y602193D01*
X608602Y602067D01*
X608879Y601935D01*
X609152Y601795D01*
X609422Y601649D01*
X609688Y601497D01*
X609951Y601338D01*
X610210Y601173D01*
X610464Y601002D01*
X610715Y600825D01*
X610961Y600641D01*
X611203Y600452D01*
X611439Y600257D01*
X611672Y600056D01*
X611899Y599850D01*
X612121Y599638D01*
X612338Y599421D01*
X612550Y599199D01*
X612756Y598972D01*
X612957Y598739D01*
X613152Y598503D01*
X613341Y598261D01*
X613525Y598015D01*
X613702Y597764D01*
X613873Y597510D01*
X614038Y597251D01*
X614197Y596988D01*
X614349Y596722D01*
X614495Y596452D01*
X614635Y596179D01*
X614767Y595902D01*
X614893Y595622D01*
X615012Y595339D01*
X615125Y595053D01*
X615230Y594765D01*
X615328Y594475D01*
X615420Y594182D01*
X615504Y593886D01*
X615581Y593589D01*
X615651Y593290D01*
X615713Y592990D01*
X615769Y592688D01*
X615817Y592385D01*
X615857Y592081D01*
X615891Y591776D01*
X615917Y591470D01*
X615935Y591164D01*
X615946Y590857D01*
X615950Y590550D01*
X615950Y412750D01*
X615946Y412443D01*
X615935Y412136D01*
X615917Y411830D01*
X615891Y411524D01*
X615857Y411219D01*
X615817Y410915D01*
X615769Y410612D01*
X615713Y410310D01*
X615651Y410010D01*
X615581Y409711D01*
X615504Y409414D01*
X615420Y409118D01*
X615328Y408825D01*
X615230Y408535D01*
X615125Y408247D01*
X615012Y407961D01*
X614893Y407678D01*
X614767Y407398D01*
X614635Y407121D01*
X614495Y406848D01*
X614349Y406578D01*
X614197Y406312D01*
X614038Y406049D01*
X613873Y405790D01*
X613702Y405536D01*
X613525Y405285D01*
X613341Y405039D01*
X613152Y404797D01*
X612957Y404561D01*
X612756Y404328D01*
X612550Y404101D01*
X612338Y403879D01*
X612121Y403662D01*
X611899Y403450D01*
X611672Y403244D01*
X611439Y403043D01*
X611203Y402848D01*
X610961Y402659D01*
X610715Y402475D01*
X610464Y402298D01*
X610210Y402127D01*
X609951Y401962D01*
X609688Y401803D01*
X609422Y401651D01*
X609152Y401505D01*
X608879Y401365D01*
X608602Y401233D01*
X608322Y401107D01*
X608039Y400988D01*
X607753Y400875D01*
X607465Y400770D01*
X607175Y400672D01*
X606882Y400580D01*
X606586Y400496D01*
X606289Y400419D01*
X605990Y400349D01*
X605690Y400287D01*
X605388Y400231D01*
X605085Y400183D01*
X604781Y400143D01*
X604476Y400109D01*
X604170Y400083D01*
X603864Y400065D01*
X603557Y400054D01*
X603250Y400050D01*
X107950Y400050D01*
X107643Y400054D01*
X107336Y400065D01*
X107030Y400083D01*
X106724Y400109D01*
X106419Y400143D01*
X106115Y400183D01*
X105812Y400231D01*
X105510Y400287D01*
X105210Y400349D01*
X104911Y400419D01*
X104614Y400496D01*
X104318Y400580D01*
X104025Y400672D01*
X103735Y400770D01*
X103447Y400875D01*
X103161Y400988D01*
X102878Y401107D01*
X102598Y401233D01*
X102321Y401365D01*
X102048Y401505D01*
X101778Y401651D01*
X101512Y401803D01*
X101249Y401962D01*
X100990Y402127D01*
X100736Y402298D01*
X100485Y402475D01*
X100239Y402659D01*
X99997Y402848D01*
X99761Y403043D01*
X99528Y403244D01*
X99301Y403450D01*
X99079Y403662D01*
X98862Y403879D01*
X98650Y404101D01*
X98444Y404328D01*
X98243Y404561D01*
X98048Y404797D01*
X97859Y405039D01*
X97675Y405285D01*
X97498Y405536D01*
X97327Y405790D01*
X97162Y406049D01*
X97003Y406312D01*
X96851Y406578D01*
X96705Y406848D01*
X96565Y407121D01*
X96433Y407398D01*
X96307Y407678D01*
X96188Y407961D01*
X96075Y408247D01*
X95970Y408535D01*
X95872Y408825D01*
X95780Y409118D01*
X95696Y409414D01*
X95619Y409711D01*
X95549Y410010D01*
X95487Y410310D01*
X95431Y410612D01*
X95383Y410915D01*
X95343Y411219D01*
X95309Y411524D01*
X95283Y411830D01*
X95265Y412136D01*
X95254Y412443D01*
X95250Y412750D01*
X95250Y463550D01*
X95401Y463705D01*
X95549Y463864D01*
X95693Y464027D01*
X95833Y464193D01*
X95969Y464362D01*
X96101Y464534D01*
X96228Y464710D01*
X96351Y464888D01*
X96470Y465070D01*
X96585Y465254D01*
X96695Y465441D01*
X96800Y465631D01*
X96901Y465823D01*
X96997Y466018D01*
X97089Y466214D01*
X97176Y466413D01*
X97257Y466614D01*
X97334Y466817D01*
X97406Y467022D01*
X97473Y467228D01*
X97535Y467436D01*
X97592Y467646D01*
X97644Y467856D01*
X97691Y468068D01*
X97733Y468281D01*
X97769Y468495D01*
X97801Y468710D01*
X97827Y468925D01*
X97848Y469141D01*
X97864Y469358D01*
X97874Y469575D01*
X97879Y469791D01*
X97879Y470009D01*
X97874Y470225D01*
X97864Y470442D01*
X97848Y470659D01*
X97827Y470875D01*
X97801Y471090D01*
X97769Y471305D01*
X97733Y471519D01*
X97691Y471732D01*
X97644Y471944D01*
X97592Y472154D01*
X97535Y472364D01*
X97473Y472572D01*
X97406Y472778D01*
X97334Y472983D01*
X97257Y473186D01*
X97176Y473387D01*
X97089Y473586D01*
X96997Y473782D01*
X96901Y473977D01*
X96800Y474169D01*
X96695Y474359D01*
X96585Y474546D01*
X96470Y474730D01*
X96351Y474912D01*
X96228Y475090D01*
X96101Y475266D01*
X95969Y475438D01*
X95833Y475607D01*
X95693Y475773D01*
X95549Y475936D01*
X95401Y476095D01*
X95250Y476250D01*
X95250Y527050D01*
X95401Y527205D01*
X95549Y527364D01*
X95693Y527527D01*
X95833Y527693D01*
X95969Y527862D01*
X96101Y528034D01*
X96228Y528210D01*
X96351Y528388D01*
X96470Y528570D01*
X96585Y528754D01*
X96695Y528941D01*
X96800Y529131D01*
X96901Y529323D01*
X96997Y529518D01*
X97089Y529714D01*
X97176Y529913D01*
X97257Y530114D01*
X97334Y530317D01*
X97406Y530522D01*
X97473Y530728D01*
X97535Y530936D01*
X97592Y531146D01*
X97644Y531356D01*
X97691Y531568D01*
X97733Y531781D01*
X97769Y531995D01*
X97801Y532210D01*
X97827Y532425D01*
X97848Y532641D01*
X97864Y532858D01*
X97874Y533075D01*
X97879Y533291D01*
X97879Y533509D01*
X97874Y533725D01*
X97864Y533942D01*
X97848Y534159D01*
X97827Y534375D01*
X97801Y534590D01*
X97769Y534805D01*
X97733Y535019D01*
X97691Y535232D01*
X97644Y535444D01*
X97592Y535654D01*
X97535Y535864D01*
X97473Y536072D01*
X97406Y536278D01*
X97334Y536483D01*
X97257Y536686D01*
X97176Y536887D01*
X97089Y537086D01*
X96997Y537282D01*
X96901Y537477D01*
X96800Y537669D01*
X96695Y537859D01*
X96585Y538046D01*
X96470Y538230D01*
X96351Y538412D01*
X96228Y538590D01*
X96101Y538766D01*
X95969Y538938D01*
X95833Y539107D01*
X95693Y539273D01*
X95549Y539436D01*
X95401Y539595D01*
X95250Y539750D01*
X120650Y476250D02*
X133350Y476250D01*
X133350Y488950D01*
X120650Y488950D01*
X120650Y514350D02*
X133350Y514350D01*
X133350Y527050D01*
X120650Y527050D01*
X120650Y488950D02*
X120650Y476250D01*
X120650Y514350D02*
X120650Y527050D01*
X368300Y457200D02*
X374650Y450850D01*
X355600Y457200D02*
X349250Y450850D01*
X355600Y546100D02*
X349250Y552450D01*
X355600Y463550D02*
X355602Y463709D01*
X355608Y463868D01*
X355618Y464026D01*
X355632Y464185D01*
X355650Y464343D01*
X355671Y464500D01*
X355697Y464657D01*
X355727Y464813D01*
X355760Y464969D01*
X355798Y465123D01*
X355839Y465277D01*
X355884Y465429D01*
X355933Y465580D01*
X355986Y465730D01*
X356042Y465879D01*
X356103Y466026D01*
X356166Y466171D01*
X356234Y466315D01*
X356305Y466458D01*
X356379Y466598D01*
X356457Y466736D01*
X356539Y466873D01*
X356624Y467007D01*
X356712Y467140D01*
X356803Y467270D01*
X356898Y467397D01*
X356996Y467522D01*
X357097Y467645D01*
X357201Y467765D01*
X357308Y467883D01*
X357418Y467998D01*
X357531Y468110D01*
X357646Y468219D01*
X357764Y468325D01*
X357885Y468429D01*
X358009Y468529D01*
X358134Y468626D01*
X358263Y468720D01*
X358393Y468810D01*
X358526Y468898D01*
X358661Y468982D01*
X358798Y469062D01*
X358937Y469140D01*
X359078Y469213D01*
X359220Y469283D01*
X359365Y469350D01*
X359511Y469413D01*
X359658Y469472D01*
X359807Y469528D01*
X359958Y469579D01*
X360109Y469627D01*
X360262Y469671D01*
X360416Y469712D01*
X360570Y469748D01*
X360726Y469781D01*
X360882Y469810D01*
X361039Y469834D01*
X361197Y469855D01*
X361355Y469872D01*
X361513Y469885D01*
X361672Y469894D01*
X361831Y469899D01*
X361990Y469900D01*
X362149Y469897D01*
X362307Y469890D01*
X362466Y469879D01*
X362624Y469864D01*
X362782Y469845D01*
X362939Y469822D01*
X363096Y469796D01*
X363252Y469765D01*
X363407Y469731D01*
X363561Y469692D01*
X363715Y469650D01*
X363867Y469604D01*
X364018Y469554D01*
X364167Y469500D01*
X364316Y469443D01*
X364462Y469382D01*
X364608Y469317D01*
X364751Y469249D01*
X364893Y469177D01*
X365033Y469101D01*
X365171Y469023D01*
X365307Y468940D01*
X365441Y468855D01*
X365572Y468766D01*
X365702Y468673D01*
X365829Y468578D01*
X365953Y468479D01*
X366076Y468377D01*
X366195Y468273D01*
X366312Y468165D01*
X366426Y468054D01*
X366537Y467941D01*
X366646Y467825D01*
X366751Y467706D01*
X366854Y467584D01*
X366953Y467460D01*
X367050Y467334D01*
X367143Y467205D01*
X367233Y467074D01*
X367319Y466940D01*
X367402Y466805D01*
X367482Y466667D01*
X367558Y466528D01*
X367631Y466387D01*
X367700Y466244D01*
X367766Y466099D01*
X367828Y465952D01*
X367886Y465805D01*
X367941Y465655D01*
X367992Y465505D01*
X368039Y465353D01*
X368082Y465200D01*
X368121Y465046D01*
X368157Y464891D01*
X368188Y464735D01*
X368216Y464579D01*
X368240Y464422D01*
X368260Y464264D01*
X368276Y464106D01*
X368288Y463947D01*
X368296Y463788D01*
X368300Y463629D01*
X368300Y463471D01*
X368296Y463312D01*
X368288Y463153D01*
X368276Y462994D01*
X368260Y462836D01*
X368240Y462678D01*
X368216Y462521D01*
X368188Y462365D01*
X368157Y462209D01*
X368121Y462054D01*
X368082Y461900D01*
X368039Y461747D01*
X367992Y461595D01*
X367941Y461445D01*
X367886Y461295D01*
X367828Y461148D01*
X367766Y461001D01*
X367700Y460856D01*
X367631Y460713D01*
X367558Y460572D01*
X367482Y460433D01*
X367402Y460295D01*
X367319Y460160D01*
X367233Y460026D01*
X367143Y459895D01*
X367050Y459766D01*
X366953Y459640D01*
X366854Y459516D01*
X366751Y459394D01*
X366646Y459275D01*
X366537Y459159D01*
X366426Y459046D01*
X366312Y458935D01*
X366195Y458827D01*
X366076Y458723D01*
X365953Y458621D01*
X365829Y458522D01*
X365702Y458427D01*
X365572Y458334D01*
X365441Y458245D01*
X365307Y458160D01*
X365171Y458077D01*
X365033Y457999D01*
X364893Y457923D01*
X364751Y457851D01*
X364608Y457783D01*
X364462Y457718D01*
X364316Y457657D01*
X364167Y457600D01*
X364018Y457546D01*
X363867Y457496D01*
X363715Y457450D01*
X363561Y457408D01*
X363407Y457369D01*
X363252Y457335D01*
X363096Y457304D01*
X362939Y457278D01*
X362782Y457255D01*
X362624Y457236D01*
X362466Y457221D01*
X362307Y457210D01*
X362149Y457203D01*
X361990Y457200D01*
X361831Y457201D01*
X361672Y457206D01*
X361513Y457215D01*
X361355Y457228D01*
X361197Y457245D01*
X361039Y457266D01*
X360882Y457290D01*
X360726Y457319D01*
X360570Y457352D01*
X360416Y457388D01*
X360262Y457429D01*
X360109Y457473D01*
X359958Y457521D01*
X359807Y457572D01*
X359658Y457628D01*
X359511Y457687D01*
X359365Y457750D01*
X359220Y457817D01*
X359078Y457887D01*
X358937Y457960D01*
X358798Y458038D01*
X358661Y458118D01*
X358526Y458202D01*
X358393Y458290D01*
X358263Y458380D01*
X358134Y458474D01*
X358009Y458571D01*
X357885Y458671D01*
X357764Y458775D01*
X357646Y458881D01*
X357531Y458990D01*
X357418Y459102D01*
X357308Y459217D01*
X357201Y459335D01*
X357097Y459455D01*
X356996Y459578D01*
X356898Y459703D01*
X356803Y459830D01*
X356712Y459960D01*
X356624Y460093D01*
X356539Y460227D01*
X356457Y460364D01*
X356379Y460502D01*
X356305Y460642D01*
X356234Y460785D01*
X356166Y460929D01*
X356103Y461074D01*
X356042Y461221D01*
X355986Y461370D01*
X355933Y461520D01*
X355884Y461671D01*
X355839Y461823D01*
X355798Y461977D01*
X355760Y462131D01*
X355727Y462287D01*
X355697Y462443D01*
X355671Y462600D01*
X355650Y462757D01*
X355632Y462915D01*
X355618Y463074D01*
X355608Y463232D01*
X355602Y463391D01*
X355600Y463550D01*
X488950Y457200D02*
X489410Y457206D01*
X489870Y457222D01*
X490330Y457250D01*
X490789Y457289D01*
X491246Y457339D01*
X491703Y457400D01*
X492157Y457472D01*
X492610Y457555D01*
X493061Y457649D01*
X493509Y457754D01*
X493955Y457869D01*
X494397Y457995D01*
X494837Y458132D01*
X495273Y458280D01*
X495705Y458438D01*
X496134Y458606D01*
X496558Y458785D01*
X496978Y458974D01*
X497393Y459173D01*
X497803Y459382D01*
X498208Y459601D01*
X498608Y459829D01*
X499002Y460068D01*
X499390Y460315D01*
X499772Y460572D01*
X500147Y460838D01*
X500516Y461113D01*
X500879Y461397D01*
X501234Y461690D01*
X501582Y461991D01*
X501923Y462300D01*
X502257Y462618D01*
X502582Y462943D01*
X502900Y463277D01*
X503209Y463618D01*
X503510Y463966D01*
X503803Y464321D01*
X504087Y464684D01*
X504362Y465053D01*
X504628Y465428D01*
X504885Y465810D01*
X505132Y466198D01*
X505371Y466592D01*
X505599Y466992D01*
X505818Y467397D01*
X506027Y467807D01*
X506226Y468222D01*
X506415Y468642D01*
X506594Y469066D01*
X506762Y469495D01*
X506920Y469927D01*
X507068Y470363D01*
X507205Y470803D01*
X507331Y471245D01*
X507446Y471691D01*
X507551Y472139D01*
X507645Y472590D01*
X507728Y473043D01*
X507800Y473497D01*
X507861Y473954D01*
X507911Y474411D01*
X507950Y474870D01*
X507978Y475330D01*
X507994Y475790D01*
X508000Y476250D01*
X508000Y527050D01*
X507994Y527510D01*
X507978Y527970D01*
X507950Y528430D01*
X507911Y528889D01*
X507861Y529346D01*
X507800Y529803D01*
X507728Y530257D01*
X507645Y530710D01*
X507551Y531161D01*
X507446Y531609D01*
X507331Y532055D01*
X507205Y532497D01*
X507068Y532937D01*
X506920Y533373D01*
X506762Y533805D01*
X506594Y534234D01*
X506415Y534658D01*
X506226Y535078D01*
X506027Y535493D01*
X505818Y535903D01*
X505599Y536308D01*
X505371Y536708D01*
X505132Y537102D01*
X504885Y537490D01*
X504628Y537872D01*
X504362Y538247D01*
X504087Y538616D01*
X503803Y538979D01*
X503510Y539334D01*
X503209Y539682D01*
X502900Y540023D01*
X502582Y540357D01*
X502257Y540682D01*
X501923Y541000D01*
X501582Y541309D01*
X501234Y541610D01*
X500879Y541903D01*
X500516Y542187D01*
X500147Y542462D01*
X499772Y542728D01*
X499390Y542985D01*
X499002Y543232D01*
X498608Y543471D01*
X498208Y543699D01*
X497803Y543918D01*
X497393Y544127D01*
X496978Y544326D01*
X496558Y544515D01*
X496134Y544694D01*
X495705Y544862D01*
X495273Y545020D01*
X494837Y545168D01*
X494397Y545305D01*
X493955Y545431D01*
X493509Y545546D01*
X493061Y545651D01*
X492610Y545745D01*
X492157Y545828D01*
X491703Y545900D01*
X491246Y545961D01*
X490789Y546011D01*
X490330Y546050D01*
X489870Y546078D01*
X489410Y546094D01*
X488950Y546100D01*
X488490Y546094D01*
X488030Y546078D01*
X487570Y546050D01*
X487111Y546011D01*
X486654Y545961D01*
X486197Y545900D01*
X485743Y545828D01*
X485290Y545745D01*
X484839Y545651D01*
X484391Y545546D01*
X483945Y545431D01*
X483503Y545305D01*
X483063Y545168D01*
X482627Y545020D01*
X482195Y544862D01*
X481766Y544694D01*
X481342Y544515D01*
X480922Y544326D01*
X480507Y544127D01*
X480097Y543918D01*
X479692Y543699D01*
X479292Y543471D01*
X478898Y543232D01*
X478510Y542985D01*
X478128Y542728D01*
X477753Y542462D01*
X477384Y542187D01*
X477021Y541903D01*
X476666Y541610D01*
X476318Y541309D01*
X475977Y541000D01*
X475643Y540682D01*
X475318Y540357D01*
X475000Y540023D01*
X474691Y539682D01*
X474390Y539334D01*
X474097Y538979D01*
X473813Y538616D01*
X473538Y538247D01*
X473272Y537872D01*
X473015Y537490D01*
X472768Y537102D01*
X472529Y536708D01*
X472301Y536308D01*
X472082Y535903D01*
X471873Y535493D01*
X471674Y535078D01*
X471485Y534658D01*
X471306Y534234D01*
X471138Y533805D01*
X470980Y533373D01*
X470832Y532937D01*
X470695Y532497D01*
X470569Y532055D01*
X470454Y531609D01*
X470349Y531161D01*
X470255Y530710D01*
X470172Y530257D01*
X470100Y529803D01*
X470039Y529346D01*
X469989Y528889D01*
X469950Y528430D01*
X469922Y527970D01*
X469906Y527510D01*
X469900Y527050D01*
X469900Y476250D01*
X469906Y475790D01*
X469922Y475330D01*
X469950Y474870D01*
X469989Y474411D01*
X470039Y473954D01*
X470100Y473497D01*
X470172Y473043D01*
X470255Y472590D01*
X470349Y472139D01*
X470454Y471691D01*
X470569Y471245D01*
X470695Y470803D01*
X470832Y470363D01*
X470980Y469927D01*
X471138Y469495D01*
X471306Y469066D01*
X471485Y468642D01*
X471674Y468222D01*
X471873Y467807D01*
X472082Y467397D01*
X472301Y466992D01*
X472529Y466592D01*
X472768Y466198D01*
X473015Y465810D01*
X473272Y465428D01*
X473538Y465053D01*
X473813Y464684D01*
X474097Y464321D01*
X474390Y463966D01*
X474691Y463618D01*
X475000Y463277D01*
X475318Y462943D01*
X475643Y462618D01*
X475977Y462300D01*
X476318Y461991D01*
X476666Y461690D01*
X477021Y461397D01*
X477384Y461113D01*
X477753Y460838D01*
X478128Y460572D01*
X478510Y460315D01*
X478898Y460068D01*
X479292Y459829D01*
X479692Y459601D01*
X480097Y459382D01*
X480507Y459173D01*
X480922Y458974D01*
X481342Y458785D01*
X481766Y458606D01*
X482195Y458438D01*
X482627Y458280D01*
X483063Y458132D01*
X483503Y457995D01*
X483945Y457869D01*
X484391Y457754D01*
X484839Y457649D01*
X485290Y457555D01*
X485743Y457472D01*
X486197Y457400D01*
X486654Y457339D01*
X487111Y457289D01*
X487570Y457250D01*
X488030Y457222D01*
X488490Y457206D01*
X488950Y457200D01*
X184150Y514350D02*
X184150Y527050D01*
X222250Y527050D01*
X222250Y514350D01*
X209550Y514350D01*
X196850Y514350D01*
X184150Y514350D01*
X184150Y527050D02*
X184150Y539750D01*
X196850Y539750D01*
X209550Y539750D01*
X222250Y539750D01*
X222250Y527050D01*
X203200Y476250D02*
X203202Y476409D01*
X203208Y476568D01*
X203218Y476726D01*
X203232Y476885D01*
X203250Y477043D01*
X203271Y477200D01*
X203297Y477357D01*
X203327Y477513D01*
X203360Y477669D01*
X203398Y477823D01*
X203439Y477977D01*
X203484Y478129D01*
X203533Y478280D01*
X203586Y478430D01*
X203642Y478579D01*
X203703Y478726D01*
X203766Y478871D01*
X203834Y479015D01*
X203905Y479158D01*
X203979Y479298D01*
X204057Y479436D01*
X204139Y479573D01*
X204224Y479707D01*
X204312Y479840D01*
X204403Y479970D01*
X204498Y480097D01*
X204596Y480222D01*
X204697Y480345D01*
X204801Y480465D01*
X204908Y480583D01*
X205018Y480698D01*
X205131Y480810D01*
X205246Y480919D01*
X205364Y481025D01*
X205485Y481129D01*
X205609Y481229D01*
X205734Y481326D01*
X205863Y481420D01*
X205993Y481510D01*
X206126Y481598D01*
X206261Y481682D01*
X206398Y481762D01*
X206537Y481840D01*
X206678Y481913D01*
X206820Y481983D01*
X206965Y482050D01*
X207111Y482113D01*
X207258Y482172D01*
X207407Y482228D01*
X207558Y482279D01*
X207709Y482327D01*
X207862Y482371D01*
X208016Y482412D01*
X208170Y482448D01*
X208326Y482481D01*
X208482Y482510D01*
X208639Y482534D01*
X208797Y482555D01*
X208955Y482572D01*
X209113Y482585D01*
X209272Y482594D01*
X209431Y482599D01*
X209590Y482600D01*
X209749Y482597D01*
X209907Y482590D01*
X210066Y482579D01*
X210224Y482564D01*
X210382Y482545D01*
X210539Y482522D01*
X210696Y482496D01*
X210852Y482465D01*
X211007Y482431D01*
X211161Y482392D01*
X211315Y482350D01*
X211467Y482304D01*
X211618Y482254D01*
X211767Y482200D01*
X211916Y482143D01*
X212062Y482082D01*
X212208Y482017D01*
X212351Y481949D01*
X212493Y481877D01*
X212633Y481801D01*
X212771Y481723D01*
X212907Y481640D01*
X213041Y481555D01*
X213172Y481466D01*
X213302Y481373D01*
X213429Y481278D01*
X213553Y481179D01*
X213676Y481077D01*
X213795Y480973D01*
X213912Y480865D01*
X214026Y480754D01*
X214137Y480641D01*
X214246Y480525D01*
X214351Y480406D01*
X214454Y480284D01*
X214553Y480160D01*
X214650Y480034D01*
X214743Y479905D01*
X214833Y479774D01*
X214919Y479640D01*
X215002Y479505D01*
X215082Y479367D01*
X215158Y479228D01*
X215231Y479087D01*
X215300Y478944D01*
X215366Y478799D01*
X215428Y478652D01*
X215486Y478505D01*
X215541Y478355D01*
X215592Y478205D01*
X215639Y478053D01*
X215682Y477900D01*
X215721Y477746D01*
X215757Y477591D01*
X215788Y477435D01*
X215816Y477279D01*
X215840Y477122D01*
X215860Y476964D01*
X215876Y476806D01*
X215888Y476647D01*
X215896Y476488D01*
X215900Y476329D01*
X215900Y476171D01*
X215896Y476012D01*
X215888Y475853D01*
X215876Y475694D01*
X215860Y475536D01*
X215840Y475378D01*
X215816Y475221D01*
X215788Y475065D01*
X215757Y474909D01*
X215721Y474754D01*
X215682Y474600D01*
X215639Y474447D01*
X215592Y474295D01*
X215541Y474145D01*
X215486Y473995D01*
X215428Y473848D01*
X215366Y473701D01*
X215300Y473556D01*
X215231Y473413D01*
X215158Y473272D01*
X215082Y473133D01*
X215002Y472995D01*
X214919Y472860D01*
X214833Y472726D01*
X214743Y472595D01*
X214650Y472466D01*
X214553Y472340D01*
X214454Y472216D01*
X214351Y472094D01*
X214246Y471975D01*
X214137Y471859D01*
X214026Y471746D01*
X213912Y471635D01*
X213795Y471527D01*
X213676Y471423D01*
X213553Y471321D01*
X213429Y471222D01*
X213302Y471127D01*
X213172Y471034D01*
X213041Y470945D01*
X212907Y470860D01*
X212771Y470777D01*
X212633Y470699D01*
X212493Y470623D01*
X212351Y470551D01*
X212208Y470483D01*
X212062Y470418D01*
X211916Y470357D01*
X211767Y470300D01*
X211618Y470246D01*
X211467Y470196D01*
X211315Y470150D01*
X211161Y470108D01*
X211007Y470069D01*
X210852Y470035D01*
X210696Y470004D01*
X210539Y469978D01*
X210382Y469955D01*
X210224Y469936D01*
X210066Y469921D01*
X209907Y469910D01*
X209749Y469903D01*
X209590Y469900D01*
X209431Y469901D01*
X209272Y469906D01*
X209113Y469915D01*
X208955Y469928D01*
X208797Y469945D01*
X208639Y469966D01*
X208482Y469990D01*
X208326Y470019D01*
X208170Y470052D01*
X208016Y470088D01*
X207862Y470129D01*
X207709Y470173D01*
X207558Y470221D01*
X207407Y470272D01*
X207258Y470328D01*
X207111Y470387D01*
X206965Y470450D01*
X206820Y470517D01*
X206678Y470587D01*
X206537Y470660D01*
X206398Y470738D01*
X206261Y470818D01*
X206126Y470902D01*
X205993Y470990D01*
X205863Y471080D01*
X205734Y471174D01*
X205609Y471271D01*
X205485Y471371D01*
X205364Y471475D01*
X205246Y471581D01*
X205131Y471690D01*
X205018Y471802D01*
X204908Y471917D01*
X204801Y472035D01*
X204697Y472155D01*
X204596Y472278D01*
X204498Y472403D01*
X204403Y472530D01*
X204312Y472660D01*
X204224Y472793D01*
X204139Y472927D01*
X204057Y473064D01*
X203979Y473202D01*
X203905Y473342D01*
X203834Y473485D01*
X203766Y473629D01*
X203703Y473774D01*
X203642Y473921D01*
X203586Y474070D01*
X203533Y474220D01*
X203484Y474371D01*
X203439Y474523D01*
X203398Y474677D01*
X203360Y474831D01*
X203327Y474987D01*
X203297Y475143D01*
X203271Y475300D01*
X203250Y475457D01*
X203232Y475615D01*
X203218Y475774D01*
X203208Y475932D01*
X203202Y476091D01*
X203200Y476250D01*
X196850Y469900D02*
X196850Y463550D01*
X196850Y469900D02*
X196850Y482600D01*
X196850Y488950D01*
X222250Y488950D01*
X222250Y482600D01*
X222250Y469900D01*
X222250Y463550D01*
X196850Y463550D01*
X222250Y482600D02*
X228600Y482600D01*
X228600Y469900D02*
X222250Y469900D01*
X196850Y469900D02*
X190500Y469900D01*
X190500Y482600D02*
X196850Y482600D01*
X196850Y514350D02*
X196850Y539750D01*
X209550Y539750D02*
X209550Y514350D01*
D12*
X69850Y495300D02*
X69850Y482600D01*
X63500Y476250D01*
X50800Y476250D01*
X44450Y482600D01*
X50800Y501650D02*
X63500Y501650D01*
X69850Y495300D01*
X50800Y501650D02*
X44450Y495300D01*
X44450Y482600D01*
X63500Y476250D02*
X69850Y469900D01*
X69850Y457200D01*
X63500Y450850D01*
X50800Y450850D01*
X44450Y457200D01*
X44450Y469900D01*
X50800Y476250D01*
D10*
X84963Y445135D02*
X85063Y445133D01*
X85162Y445127D01*
X85262Y445117D01*
X85360Y445104D01*
X85459Y445086D01*
X85556Y445065D01*
X85652Y445040D01*
X85748Y445011D01*
X85842Y444978D01*
X85935Y444942D01*
X86026Y444902D01*
X86116Y444858D01*
X86204Y444811D01*
X86290Y444761D01*
X86374Y444707D01*
X86456Y444650D01*
X86535Y444590D01*
X86613Y444526D01*
X86687Y444460D01*
X86759Y444391D01*
X86828Y444319D01*
X86894Y444245D01*
X86958Y444167D01*
X87018Y444088D01*
X87075Y444006D01*
X87129Y443922D01*
X87179Y443836D01*
X87226Y443748D01*
X87270Y443658D01*
X87310Y443567D01*
X87346Y443474D01*
X87379Y443380D01*
X87408Y443284D01*
X87433Y443188D01*
X87454Y443091D01*
X87472Y442992D01*
X87485Y442894D01*
X87495Y442794D01*
X87501Y442695D01*
X87503Y442595D01*
X87501Y442454D01*
X87496Y442313D01*
X87486Y442172D01*
X87473Y442031D01*
X87457Y441891D01*
X87436Y441751D01*
X87412Y441612D01*
X87384Y441473D01*
X87353Y441336D01*
X87318Y441199D01*
X87280Y441063D01*
X87238Y440928D01*
X87192Y440795D01*
X87143Y440662D01*
X87090Y440531D01*
X87034Y440402D01*
X86975Y440273D01*
X86912Y440147D01*
X86846Y440022D01*
X86777Y439899D01*
X86704Y439778D01*
X86628Y439659D01*
X86549Y439541D01*
X86468Y439426D01*
X86383Y439314D01*
X86295Y439203D01*
X86204Y439095D01*
X86111Y438989D01*
X86014Y438886D01*
X85915Y438785D01*
X78613Y439103D02*
X78513Y439105D01*
X78414Y439111D01*
X78314Y439121D01*
X78216Y439134D01*
X78117Y439152D01*
X78020Y439173D01*
X77924Y439198D01*
X77828Y439227D01*
X77734Y439260D01*
X77641Y439296D01*
X77550Y439336D01*
X77460Y439380D01*
X77372Y439427D01*
X77286Y439477D01*
X77202Y439531D01*
X77120Y439588D01*
X77041Y439648D01*
X76963Y439712D01*
X76889Y439778D01*
X76817Y439847D01*
X76748Y439919D01*
X76682Y439993D01*
X76618Y440071D01*
X76558Y440150D01*
X76501Y440232D01*
X76447Y440316D01*
X76397Y440402D01*
X76350Y440490D01*
X76306Y440580D01*
X76266Y440671D01*
X76230Y440764D01*
X76197Y440858D01*
X76168Y440954D01*
X76143Y441050D01*
X76122Y441147D01*
X76104Y441246D01*
X76091Y441344D01*
X76081Y441444D01*
X76075Y441543D01*
X76073Y441643D01*
X76075Y441776D01*
X76080Y441909D01*
X76090Y442042D01*
X76103Y442175D01*
X76120Y442307D01*
X76140Y442439D01*
X76164Y442570D01*
X76192Y442700D01*
X76223Y442830D01*
X76258Y442958D01*
X76297Y443086D01*
X76339Y443212D01*
X76385Y443337D01*
X76434Y443461D01*
X76486Y443584D01*
X76542Y443705D01*
X76602Y443824D01*
X76664Y443942D01*
X76730Y444057D01*
X76799Y444171D01*
X76872Y444283D01*
X76947Y444393D01*
X77026Y444501D01*
X80836Y440372D02*
X80784Y440288D01*
X80729Y440205D01*
X80670Y440125D01*
X80609Y440047D01*
X80545Y439972D01*
X80477Y439899D01*
X80407Y439828D01*
X80335Y439761D01*
X80260Y439696D01*
X80182Y439634D01*
X80102Y439575D01*
X80020Y439519D01*
X79936Y439467D01*
X79850Y439418D01*
X79762Y439372D01*
X79672Y439329D01*
X79581Y439290D01*
X79488Y439255D01*
X79394Y439223D01*
X79299Y439195D01*
X79203Y439170D01*
X79106Y439150D01*
X79008Y439132D01*
X78910Y439119D01*
X78811Y439110D01*
X78712Y439104D01*
X78613Y439102D01*
X82740Y443865D02*
X82792Y443949D01*
X82847Y444032D01*
X82906Y444112D01*
X82967Y444190D01*
X83031Y444265D01*
X83099Y444338D01*
X83169Y444409D01*
X83241Y444476D01*
X83316Y444541D01*
X83394Y444603D01*
X83474Y444662D01*
X83556Y444718D01*
X83640Y444770D01*
X83726Y444819D01*
X83814Y444865D01*
X83904Y444908D01*
X83995Y444947D01*
X84088Y444982D01*
X84182Y445014D01*
X84277Y445042D01*
X84373Y445067D01*
X84470Y445087D01*
X84568Y445105D01*
X84666Y445118D01*
X84765Y445127D01*
X84864Y445133D01*
X84963Y445135D01*
X82741Y443865D02*
X80836Y440373D01*
X84328Y450215D02*
X76073Y450215D01*
X84328Y450215D02*
X84439Y450217D01*
X84549Y450223D01*
X84660Y450232D01*
X84770Y450246D01*
X84879Y450263D01*
X84988Y450284D01*
X85096Y450309D01*
X85203Y450338D01*
X85309Y450370D01*
X85414Y450406D01*
X85517Y450446D01*
X85619Y450489D01*
X85720Y450536D01*
X85819Y450587D01*
X85915Y450640D01*
X86010Y450697D01*
X86103Y450758D01*
X86194Y450821D01*
X86283Y450888D01*
X86369Y450958D01*
X86452Y451031D01*
X86534Y451106D01*
X86612Y451184D01*
X86687Y451266D01*
X86760Y451349D01*
X86830Y451435D01*
X86897Y451524D01*
X86960Y451615D01*
X87021Y451708D01*
X87078Y451802D01*
X87131Y451899D01*
X87182Y451998D01*
X87229Y452099D01*
X87272Y452201D01*
X87312Y452304D01*
X87348Y452409D01*
X87380Y452515D01*
X87409Y452622D01*
X87434Y452730D01*
X87455Y452839D01*
X87472Y452948D01*
X87486Y453058D01*
X87495Y453169D01*
X87501Y453279D01*
X87503Y453390D01*
X87501Y453501D01*
X87495Y453611D01*
X87486Y453722D01*
X87472Y453832D01*
X87455Y453941D01*
X87434Y454050D01*
X87409Y454158D01*
X87380Y454265D01*
X87348Y454371D01*
X87312Y454476D01*
X87272Y454579D01*
X87229Y454681D01*
X87182Y454782D01*
X87131Y454881D01*
X87078Y454977D01*
X87021Y455072D01*
X86960Y455165D01*
X86897Y455256D01*
X86830Y455345D01*
X86760Y455431D01*
X86687Y455514D01*
X86612Y455596D01*
X86534Y455674D01*
X86452Y455749D01*
X86369Y455822D01*
X86283Y455892D01*
X86194Y455959D01*
X86103Y456022D01*
X86010Y456083D01*
X85916Y456140D01*
X85819Y456193D01*
X85720Y456244D01*
X85619Y456291D01*
X85517Y456334D01*
X85414Y456374D01*
X85309Y456410D01*
X85203Y456442D01*
X85096Y456471D01*
X84988Y456496D01*
X84879Y456517D01*
X84770Y456534D01*
X84660Y456548D01*
X84549Y456557D01*
X84439Y456563D01*
X84328Y456565D01*
X76073Y456565D01*
X76073Y462598D02*
X87503Y462598D01*
X76073Y462598D02*
X76073Y465773D01*
X76075Y465884D01*
X76081Y465994D01*
X76090Y466105D01*
X76104Y466215D01*
X76121Y466324D01*
X76142Y466433D01*
X76167Y466541D01*
X76196Y466648D01*
X76228Y466754D01*
X76264Y466859D01*
X76304Y466962D01*
X76347Y467064D01*
X76394Y467165D01*
X76445Y467264D01*
X76498Y467361D01*
X76555Y467455D01*
X76616Y467548D01*
X76679Y467639D01*
X76746Y467728D01*
X76816Y467814D01*
X76889Y467897D01*
X76964Y467979D01*
X77042Y468057D01*
X77124Y468132D01*
X77207Y468205D01*
X77293Y468275D01*
X77382Y468342D01*
X77473Y468405D01*
X77566Y468466D01*
X77661Y468523D01*
X77757Y468576D01*
X77856Y468627D01*
X77957Y468674D01*
X78059Y468717D01*
X78162Y468757D01*
X78267Y468793D01*
X78373Y468825D01*
X78480Y468854D01*
X78588Y468879D01*
X78697Y468900D01*
X78806Y468917D01*
X78916Y468931D01*
X79027Y468940D01*
X79137Y468946D01*
X79248Y468948D01*
X79359Y468946D01*
X79469Y468940D01*
X79580Y468931D01*
X79690Y468917D01*
X79799Y468900D01*
X79908Y468879D01*
X80016Y468854D01*
X80123Y468825D01*
X80229Y468793D01*
X80334Y468757D01*
X80437Y468717D01*
X80539Y468674D01*
X80640Y468627D01*
X80739Y468576D01*
X80836Y468523D01*
X80930Y468466D01*
X81023Y468405D01*
X81114Y468342D01*
X81203Y468275D01*
X81289Y468205D01*
X81372Y468132D01*
X81454Y468057D01*
X81532Y467979D01*
X81607Y467897D01*
X81680Y467814D01*
X81750Y467728D01*
X81817Y467639D01*
X81880Y467548D01*
X81941Y467455D01*
X81998Y467361D01*
X82051Y467264D01*
X82102Y467165D01*
X82149Y467064D01*
X82192Y466962D01*
X82232Y466859D01*
X82268Y466754D01*
X82300Y466648D01*
X82329Y466541D01*
X82354Y466433D01*
X82375Y466324D01*
X82392Y466215D01*
X82406Y466105D01*
X82415Y465994D01*
X82421Y465884D01*
X82423Y465773D01*
X82423Y462598D01*
X87503Y474028D02*
X76073Y474028D01*
X76073Y477203D01*
X76075Y477314D01*
X76081Y477424D01*
X76090Y477535D01*
X76104Y477645D01*
X76121Y477754D01*
X76142Y477863D01*
X76167Y477971D01*
X76196Y478078D01*
X76228Y478184D01*
X76264Y478289D01*
X76304Y478392D01*
X76347Y478494D01*
X76394Y478595D01*
X76445Y478694D01*
X76498Y478791D01*
X76555Y478885D01*
X76616Y478978D01*
X76679Y479069D01*
X76746Y479158D01*
X76816Y479244D01*
X76889Y479327D01*
X76964Y479409D01*
X77042Y479487D01*
X77124Y479562D01*
X77207Y479635D01*
X77293Y479705D01*
X77382Y479772D01*
X77473Y479835D01*
X77566Y479896D01*
X77661Y479953D01*
X77757Y480006D01*
X77856Y480057D01*
X77957Y480104D01*
X78059Y480147D01*
X78162Y480187D01*
X78267Y480223D01*
X78373Y480255D01*
X78480Y480284D01*
X78588Y480309D01*
X78697Y480330D01*
X78806Y480347D01*
X78916Y480361D01*
X79027Y480370D01*
X79137Y480376D01*
X79248Y480378D01*
X79359Y480376D01*
X79469Y480370D01*
X79580Y480361D01*
X79690Y480347D01*
X79799Y480330D01*
X79908Y480309D01*
X80016Y480284D01*
X80123Y480255D01*
X80229Y480223D01*
X80334Y480187D01*
X80437Y480147D01*
X80539Y480104D01*
X80640Y480057D01*
X80739Y480006D01*
X80836Y479953D01*
X80930Y479896D01*
X81023Y479835D01*
X81114Y479772D01*
X81203Y479705D01*
X81289Y479635D01*
X81372Y479562D01*
X81454Y479487D01*
X81532Y479409D01*
X81607Y479327D01*
X81680Y479244D01*
X81750Y479158D01*
X81817Y479069D01*
X81880Y478978D01*
X81941Y478885D01*
X81998Y478791D01*
X82051Y478694D01*
X82102Y478595D01*
X82149Y478494D01*
X82192Y478392D01*
X82232Y478289D01*
X82268Y478184D01*
X82300Y478078D01*
X82329Y477971D01*
X82354Y477863D01*
X82375Y477754D01*
X82392Y477645D01*
X82406Y477535D01*
X82415Y477424D01*
X82421Y477314D01*
X82423Y477203D01*
X82423Y474028D01*
X87503Y485292D02*
X76073Y485292D01*
X87503Y485292D02*
X87503Y490372D01*
X81471Y497967D02*
X76073Y494157D01*
X81471Y497967D02*
X76073Y501777D01*
X81471Y497967D02*
X87503Y497967D01*
D12*
X374650Y273050D02*
X381000Y279400D01*
X393700Y279400D01*
X400050Y273050D01*
X400050Y260350D01*
X393700Y254000D01*
X381000Y254000D01*
X374650Y260350D01*
X342900Y279400D02*
X330200Y279400D01*
X342900Y279400D02*
X349250Y273050D01*
X349250Y260350D01*
X342900Y254000D01*
X349250Y273050D02*
X355600Y279400D01*
X368300Y279400D01*
X374650Y273050D01*
X374650Y260350D01*
X368300Y254000D01*
X355600Y254000D01*
X349250Y260350D01*
X304800Y279400D02*
X298450Y273050D01*
X304800Y279400D02*
X317500Y279400D01*
X323850Y273050D01*
X323850Y260350D01*
X317500Y254000D01*
X304800Y254000D01*
X298450Y260350D01*
X323850Y273050D02*
X330200Y279400D01*
X323850Y260350D02*
X330200Y254000D01*
X342900Y254000D01*
X266700Y279400D02*
X254000Y279400D01*
X266700Y279400D02*
X273050Y273050D01*
X273050Y260350D01*
X266700Y254000D01*
X273050Y273050D02*
X279400Y279400D01*
X292100Y279400D01*
X298450Y273050D01*
X298450Y260350D01*
X292100Y254000D01*
X279400Y254000D01*
X273050Y260350D01*
X247650Y260350D02*
X247650Y273050D01*
X254000Y279400D01*
X247650Y260350D02*
X254000Y254000D01*
X266700Y254000D01*
X406400Y279400D02*
X419100Y279400D01*
X425450Y273050D01*
X425450Y260350D01*
X419100Y254000D01*
X400050Y273050D02*
X406400Y279400D01*
X400050Y260350D02*
X406400Y254000D01*
X419100Y254000D01*
D10*
X247523Y285623D02*
X247523Y297053D01*
X250698Y297053D01*
X250809Y297051D01*
X250919Y297045D01*
X251030Y297036D01*
X251140Y297022D01*
X251249Y297005D01*
X251358Y296984D01*
X251466Y296959D01*
X251573Y296930D01*
X251679Y296898D01*
X251784Y296862D01*
X251887Y296822D01*
X251989Y296779D01*
X252090Y296732D01*
X252189Y296681D01*
X252286Y296628D01*
X252380Y296571D01*
X252473Y296510D01*
X252564Y296447D01*
X252653Y296380D01*
X252739Y296310D01*
X252822Y296237D01*
X252904Y296162D01*
X252982Y296084D01*
X253057Y296002D01*
X253130Y295919D01*
X253200Y295833D01*
X253267Y295744D01*
X253330Y295653D01*
X253391Y295560D01*
X253448Y295466D01*
X253501Y295369D01*
X253552Y295270D01*
X253599Y295169D01*
X253642Y295067D01*
X253682Y294964D01*
X253718Y294859D01*
X253750Y294753D01*
X253779Y294646D01*
X253804Y294538D01*
X253825Y294429D01*
X253842Y294320D01*
X253856Y294210D01*
X253865Y294099D01*
X253871Y293989D01*
X253873Y293878D01*
X253873Y288798D01*
X253871Y288687D01*
X253865Y288577D01*
X253856Y288466D01*
X253842Y288356D01*
X253825Y288247D01*
X253804Y288138D01*
X253779Y288030D01*
X253750Y287923D01*
X253718Y287817D01*
X253682Y287712D01*
X253642Y287609D01*
X253599Y287507D01*
X253552Y287406D01*
X253501Y287307D01*
X253448Y287210D01*
X253391Y287116D01*
X253330Y287023D01*
X253267Y286932D01*
X253200Y286843D01*
X253130Y286757D01*
X253057Y286674D01*
X252982Y286592D01*
X252904Y286514D01*
X252822Y286439D01*
X252739Y286366D01*
X252653Y286296D01*
X252564Y286229D01*
X252473Y286166D01*
X252380Y286105D01*
X252285Y286048D01*
X252189Y285995D01*
X252090Y285944D01*
X251989Y285897D01*
X251887Y285854D01*
X251784Y285814D01*
X251679Y285778D01*
X251573Y285746D01*
X251466Y285717D01*
X251358Y285692D01*
X251249Y285671D01*
X251140Y285654D01*
X251030Y285640D01*
X250919Y285631D01*
X250809Y285625D01*
X250698Y285623D01*
X247523Y285623D01*
X260223Y285623D02*
X260223Y297053D01*
X258953Y285623D02*
X261493Y285623D01*
X261493Y297053D02*
X258953Y297053D01*
X269621Y285623D02*
X269721Y285625D01*
X269820Y285631D01*
X269920Y285641D01*
X270018Y285654D01*
X270117Y285672D01*
X270214Y285693D01*
X270310Y285718D01*
X270406Y285747D01*
X270500Y285780D01*
X270593Y285816D01*
X270684Y285856D01*
X270774Y285900D01*
X270862Y285947D01*
X270948Y285997D01*
X271032Y286051D01*
X271114Y286108D01*
X271193Y286168D01*
X271271Y286232D01*
X271345Y286298D01*
X271417Y286367D01*
X271486Y286439D01*
X271552Y286513D01*
X271616Y286591D01*
X271676Y286670D01*
X271733Y286752D01*
X271787Y286836D01*
X271837Y286922D01*
X271884Y287010D01*
X271928Y287100D01*
X271968Y287191D01*
X272004Y287284D01*
X272037Y287378D01*
X272066Y287474D01*
X272091Y287570D01*
X272112Y287667D01*
X272130Y287766D01*
X272143Y287864D01*
X272153Y287964D01*
X272159Y288063D01*
X272161Y288163D01*
X269621Y285623D02*
X269480Y285625D01*
X269339Y285630D01*
X269198Y285640D01*
X269057Y285653D01*
X268917Y285669D01*
X268777Y285690D01*
X268638Y285714D01*
X268499Y285742D01*
X268362Y285773D01*
X268225Y285808D01*
X268089Y285846D01*
X267954Y285888D01*
X267821Y285934D01*
X267688Y285983D01*
X267557Y286036D01*
X267428Y286092D01*
X267299Y286151D01*
X267173Y286214D01*
X267048Y286280D01*
X266925Y286349D01*
X266804Y286422D01*
X266685Y286498D01*
X266567Y286577D01*
X266452Y286658D01*
X266340Y286743D01*
X266229Y286831D01*
X266121Y286922D01*
X266015Y287015D01*
X265912Y287112D01*
X265811Y287211D01*
X266129Y294513D02*
X266131Y294613D01*
X266137Y294712D01*
X266147Y294812D01*
X266160Y294910D01*
X266178Y295009D01*
X266199Y295106D01*
X266224Y295202D01*
X266253Y295298D01*
X266286Y295392D01*
X266322Y295485D01*
X266362Y295576D01*
X266406Y295666D01*
X266453Y295754D01*
X266503Y295840D01*
X266557Y295924D01*
X266614Y296006D01*
X266674Y296085D01*
X266738Y296163D01*
X266804Y296237D01*
X266873Y296309D01*
X266945Y296378D01*
X267019Y296444D01*
X267097Y296508D01*
X267176Y296568D01*
X267258Y296625D01*
X267342Y296679D01*
X267428Y296729D01*
X267516Y296776D01*
X267606Y296820D01*
X267697Y296860D01*
X267790Y296896D01*
X267884Y296929D01*
X267980Y296958D01*
X268076Y296983D01*
X268173Y297004D01*
X268272Y297022D01*
X268370Y297035D01*
X268470Y297045D01*
X268569Y297051D01*
X268669Y297053D01*
X268669Y297054D02*
X268802Y297052D01*
X268935Y297047D01*
X269068Y297037D01*
X269201Y297024D01*
X269333Y297007D01*
X269465Y296987D01*
X269596Y296963D01*
X269726Y296935D01*
X269856Y296904D01*
X269984Y296869D01*
X270112Y296830D01*
X270238Y296788D01*
X270363Y296742D01*
X270487Y296693D01*
X270610Y296641D01*
X270731Y296585D01*
X270850Y296525D01*
X270968Y296463D01*
X271083Y296397D01*
X271197Y296328D01*
X271309Y296255D01*
X271419Y296180D01*
X271527Y296101D01*
X267398Y292290D02*
X267314Y292342D01*
X267231Y292397D01*
X267151Y292456D01*
X267073Y292517D01*
X266998Y292581D01*
X266925Y292649D01*
X266854Y292719D01*
X266787Y292791D01*
X266722Y292866D01*
X266660Y292944D01*
X266601Y293024D01*
X266545Y293106D01*
X266493Y293190D01*
X266444Y293276D01*
X266398Y293364D01*
X266355Y293454D01*
X266316Y293545D01*
X266281Y293638D01*
X266249Y293732D01*
X266221Y293827D01*
X266196Y293923D01*
X266176Y294020D01*
X266158Y294118D01*
X266145Y294216D01*
X266136Y294315D01*
X266130Y294414D01*
X266128Y294513D01*
X270891Y290386D02*
X270975Y290334D01*
X271058Y290279D01*
X271138Y290220D01*
X271216Y290159D01*
X271291Y290095D01*
X271364Y290027D01*
X271435Y289957D01*
X271502Y289885D01*
X271567Y289810D01*
X271629Y289732D01*
X271688Y289652D01*
X271744Y289570D01*
X271796Y289486D01*
X271845Y289400D01*
X271891Y289312D01*
X271934Y289222D01*
X271973Y289131D01*
X272008Y289038D01*
X272040Y288944D01*
X272068Y288849D01*
X272093Y288753D01*
X272113Y288656D01*
X272131Y288558D01*
X272144Y288460D01*
X272153Y288361D01*
X272159Y288262D01*
X272161Y288163D01*
X270891Y290386D02*
X267399Y292291D01*
X277432Y297053D02*
X277432Y285623D01*
X277432Y297053D02*
X280607Y297053D01*
X280718Y297051D01*
X280828Y297045D01*
X280939Y297036D01*
X281049Y297022D01*
X281158Y297005D01*
X281267Y296984D01*
X281375Y296959D01*
X281482Y296930D01*
X281588Y296898D01*
X281693Y296862D01*
X281796Y296822D01*
X281898Y296779D01*
X281999Y296732D01*
X282098Y296681D01*
X282195Y296628D01*
X282289Y296571D01*
X282382Y296510D01*
X282473Y296447D01*
X282562Y296380D01*
X282648Y296310D01*
X282731Y296237D01*
X282813Y296162D01*
X282891Y296084D01*
X282966Y296002D01*
X283039Y295919D01*
X283109Y295833D01*
X283176Y295744D01*
X283239Y295653D01*
X283300Y295560D01*
X283357Y295465D01*
X283410Y295369D01*
X283461Y295270D01*
X283508Y295169D01*
X283551Y295067D01*
X283591Y294964D01*
X283627Y294859D01*
X283659Y294753D01*
X283688Y294646D01*
X283713Y294538D01*
X283734Y294429D01*
X283751Y294320D01*
X283765Y294210D01*
X283774Y294099D01*
X283780Y293989D01*
X283782Y293878D01*
X283780Y293767D01*
X283774Y293657D01*
X283765Y293546D01*
X283751Y293436D01*
X283734Y293327D01*
X283713Y293218D01*
X283688Y293110D01*
X283659Y293003D01*
X283627Y292897D01*
X283591Y292792D01*
X283551Y292689D01*
X283508Y292587D01*
X283461Y292486D01*
X283410Y292387D01*
X283357Y292290D01*
X283300Y292196D01*
X283239Y292103D01*
X283176Y292012D01*
X283109Y291923D01*
X283039Y291837D01*
X282966Y291754D01*
X282891Y291672D01*
X282813Y291594D01*
X282731Y291519D01*
X282648Y291446D01*
X282562Y291376D01*
X282473Y291309D01*
X282382Y291246D01*
X282289Y291185D01*
X282195Y291128D01*
X282098Y291075D01*
X281999Y291024D01*
X281898Y290977D01*
X281796Y290934D01*
X281693Y290894D01*
X281588Y290858D01*
X281482Y290826D01*
X281375Y290797D01*
X281267Y290772D01*
X281158Y290751D01*
X281049Y290734D01*
X280939Y290720D01*
X280828Y290711D01*
X280718Y290705D01*
X280607Y290703D01*
X277432Y290703D01*
X288696Y285623D02*
X288696Y297053D01*
X288696Y285623D02*
X293776Y285623D01*
X297561Y285623D02*
X301371Y297053D01*
X305181Y285623D01*
X304228Y288481D02*
X298513Y288481D01*
X308991Y297053D02*
X312801Y291656D01*
X316611Y297053D01*
X312801Y291656D02*
X312801Y285623D01*
X321056Y294513D02*
X324231Y297053D01*
X324231Y285623D01*
X321056Y285623D02*
X327406Y285623D01*
D12*
X381000Y50800D02*
X374650Y44450D01*
X381000Y50800D02*
X393700Y50800D01*
X400050Y44450D01*
X400050Y31750D01*
X393700Y25400D01*
X381000Y25400D01*
X374650Y31750D01*
X342900Y50800D02*
X330200Y50800D01*
X342900Y50800D02*
X349250Y44450D01*
X349250Y31750D01*
X342900Y25400D01*
X349250Y44450D02*
X355600Y50800D01*
X368300Y50800D01*
X374650Y44450D01*
X374650Y31750D01*
X368300Y25400D01*
X355600Y25400D01*
X349250Y31750D01*
X304800Y50800D02*
X298450Y44450D01*
X304800Y50800D02*
X317500Y50800D01*
X323850Y44450D01*
X323850Y31750D01*
X317500Y25400D01*
X304800Y25400D01*
X298450Y31750D01*
X323850Y44450D02*
X330200Y50800D01*
X323850Y31750D02*
X330200Y25400D01*
X342900Y25400D01*
X266700Y50800D02*
X254000Y50800D01*
X266700Y50800D02*
X273050Y44450D01*
X273050Y31750D01*
X266700Y25400D01*
X273050Y44450D02*
X279400Y50800D01*
X292100Y50800D01*
X298450Y44450D01*
X298450Y31750D01*
X292100Y25400D01*
X279400Y25400D01*
X273050Y31750D01*
X247650Y31750D02*
X247650Y44450D01*
X254000Y50800D01*
X247650Y31750D02*
X254000Y25400D01*
X266700Y25400D01*
X406400Y50800D02*
X419100Y50800D01*
X425450Y44450D01*
X425450Y31750D01*
X419100Y25400D01*
X400050Y44450D02*
X406400Y50800D01*
X400050Y31750D02*
X406400Y25400D01*
X419100Y25400D01*
D10*
X247523Y57023D02*
X247523Y68453D01*
X250698Y68453D01*
X250809Y68451D01*
X250919Y68445D01*
X251030Y68436D01*
X251140Y68422D01*
X251249Y68405D01*
X251358Y68384D01*
X251466Y68359D01*
X251573Y68330D01*
X251679Y68298D01*
X251784Y68262D01*
X251887Y68222D01*
X251989Y68179D01*
X252090Y68132D01*
X252189Y68081D01*
X252286Y68028D01*
X252380Y67971D01*
X252473Y67910D01*
X252564Y67847D01*
X252653Y67780D01*
X252739Y67710D01*
X252822Y67637D01*
X252904Y67562D01*
X252982Y67484D01*
X253057Y67402D01*
X253130Y67319D01*
X253200Y67233D01*
X253267Y67144D01*
X253330Y67053D01*
X253391Y66960D01*
X253448Y66866D01*
X253501Y66769D01*
X253552Y66670D01*
X253599Y66569D01*
X253642Y66467D01*
X253682Y66364D01*
X253718Y66259D01*
X253750Y66153D01*
X253779Y66046D01*
X253804Y65938D01*
X253825Y65829D01*
X253842Y65720D01*
X253856Y65610D01*
X253865Y65499D01*
X253871Y65389D01*
X253873Y65278D01*
X253873Y60198D01*
X253871Y60087D01*
X253865Y59977D01*
X253856Y59866D01*
X253842Y59756D01*
X253825Y59647D01*
X253804Y59538D01*
X253779Y59430D01*
X253750Y59323D01*
X253718Y59217D01*
X253682Y59112D01*
X253642Y59009D01*
X253599Y58907D01*
X253552Y58806D01*
X253501Y58707D01*
X253448Y58610D01*
X253391Y58516D01*
X253330Y58423D01*
X253267Y58332D01*
X253200Y58243D01*
X253130Y58157D01*
X253057Y58074D01*
X252982Y57992D01*
X252904Y57914D01*
X252822Y57839D01*
X252739Y57766D01*
X252653Y57696D01*
X252564Y57629D01*
X252473Y57566D01*
X252380Y57505D01*
X252285Y57448D01*
X252189Y57395D01*
X252090Y57344D01*
X251989Y57297D01*
X251887Y57254D01*
X251784Y57214D01*
X251679Y57178D01*
X251573Y57146D01*
X251466Y57117D01*
X251358Y57092D01*
X251249Y57071D01*
X251140Y57054D01*
X251030Y57040D01*
X250919Y57031D01*
X250809Y57025D01*
X250698Y57023D01*
X247523Y57023D01*
X260223Y57023D02*
X260223Y68453D01*
X258953Y57023D02*
X261493Y57023D01*
X261493Y68453D02*
X258953Y68453D01*
X269621Y57023D02*
X269721Y57025D01*
X269820Y57031D01*
X269920Y57041D01*
X270018Y57054D01*
X270117Y57072D01*
X270214Y57093D01*
X270310Y57118D01*
X270406Y57147D01*
X270500Y57180D01*
X270593Y57216D01*
X270684Y57256D01*
X270774Y57300D01*
X270862Y57347D01*
X270948Y57397D01*
X271032Y57451D01*
X271114Y57508D01*
X271193Y57568D01*
X271271Y57632D01*
X271345Y57698D01*
X271417Y57767D01*
X271486Y57839D01*
X271552Y57913D01*
X271616Y57991D01*
X271676Y58070D01*
X271733Y58152D01*
X271787Y58236D01*
X271837Y58322D01*
X271884Y58410D01*
X271928Y58500D01*
X271968Y58591D01*
X272004Y58684D01*
X272037Y58778D01*
X272066Y58874D01*
X272091Y58970D01*
X272112Y59067D01*
X272130Y59166D01*
X272143Y59264D01*
X272153Y59364D01*
X272159Y59463D01*
X272161Y59563D01*
X269621Y57023D02*
X269480Y57025D01*
X269339Y57030D01*
X269198Y57040D01*
X269057Y57053D01*
X268917Y57069D01*
X268777Y57090D01*
X268638Y57114D01*
X268499Y57142D01*
X268362Y57173D01*
X268225Y57208D01*
X268089Y57246D01*
X267954Y57288D01*
X267821Y57334D01*
X267688Y57383D01*
X267557Y57436D01*
X267428Y57492D01*
X267299Y57551D01*
X267173Y57614D01*
X267048Y57680D01*
X266925Y57749D01*
X266804Y57822D01*
X266685Y57898D01*
X266567Y57977D01*
X266452Y58058D01*
X266340Y58143D01*
X266229Y58231D01*
X266121Y58322D01*
X266015Y58415D01*
X265912Y58512D01*
X265811Y58611D01*
X266129Y65913D02*
X266131Y66013D01*
X266137Y66112D01*
X266147Y66212D01*
X266160Y66310D01*
X266178Y66409D01*
X266199Y66506D01*
X266224Y66602D01*
X266253Y66698D01*
X266286Y66792D01*
X266322Y66885D01*
X266362Y66976D01*
X266406Y67066D01*
X266453Y67154D01*
X266503Y67240D01*
X266557Y67324D01*
X266614Y67406D01*
X266674Y67485D01*
X266738Y67563D01*
X266804Y67637D01*
X266873Y67709D01*
X266945Y67778D01*
X267019Y67844D01*
X267097Y67908D01*
X267176Y67968D01*
X267258Y68025D01*
X267342Y68079D01*
X267428Y68129D01*
X267516Y68176D01*
X267606Y68220D01*
X267697Y68260D01*
X267790Y68296D01*
X267884Y68329D01*
X267980Y68358D01*
X268076Y68383D01*
X268173Y68404D01*
X268272Y68422D01*
X268370Y68435D01*
X268470Y68445D01*
X268569Y68451D01*
X268669Y68453D01*
X268669Y68454D02*
X268802Y68452D01*
X268935Y68447D01*
X269068Y68437D01*
X269201Y68424D01*
X269333Y68407D01*
X269465Y68387D01*
X269596Y68363D01*
X269726Y68335D01*
X269856Y68304D01*
X269984Y68269D01*
X270112Y68230D01*
X270238Y68188D01*
X270363Y68142D01*
X270487Y68093D01*
X270610Y68041D01*
X270731Y67985D01*
X270850Y67925D01*
X270968Y67863D01*
X271083Y67797D01*
X271197Y67728D01*
X271309Y67655D01*
X271419Y67580D01*
X271527Y67501D01*
X267398Y63690D02*
X267314Y63742D01*
X267231Y63797D01*
X267151Y63856D01*
X267073Y63917D01*
X266998Y63981D01*
X266925Y64049D01*
X266854Y64119D01*
X266787Y64191D01*
X266722Y64266D01*
X266660Y64344D01*
X266601Y64424D01*
X266545Y64506D01*
X266493Y64590D01*
X266444Y64676D01*
X266398Y64764D01*
X266355Y64854D01*
X266316Y64945D01*
X266281Y65038D01*
X266249Y65132D01*
X266221Y65227D01*
X266196Y65323D01*
X266176Y65420D01*
X266158Y65518D01*
X266145Y65616D01*
X266136Y65715D01*
X266130Y65814D01*
X266128Y65913D01*
X270891Y61786D02*
X270975Y61734D01*
X271058Y61679D01*
X271138Y61620D01*
X271216Y61559D01*
X271291Y61495D01*
X271364Y61427D01*
X271435Y61357D01*
X271502Y61285D01*
X271567Y61210D01*
X271629Y61132D01*
X271688Y61052D01*
X271744Y60970D01*
X271796Y60886D01*
X271845Y60800D01*
X271891Y60712D01*
X271934Y60622D01*
X271973Y60531D01*
X272008Y60438D01*
X272040Y60344D01*
X272068Y60249D01*
X272093Y60153D01*
X272113Y60056D01*
X272131Y59958D01*
X272144Y59860D01*
X272153Y59761D01*
X272159Y59662D01*
X272161Y59563D01*
X270891Y61786D02*
X267399Y63691D01*
X277432Y68453D02*
X277432Y57023D01*
X277432Y68453D02*
X280607Y68453D01*
X280718Y68451D01*
X280828Y68445D01*
X280939Y68436D01*
X281049Y68422D01*
X281158Y68405D01*
X281267Y68384D01*
X281375Y68359D01*
X281482Y68330D01*
X281588Y68298D01*
X281693Y68262D01*
X281796Y68222D01*
X281898Y68179D01*
X281999Y68132D01*
X282098Y68081D01*
X282195Y68028D01*
X282289Y67971D01*
X282382Y67910D01*
X282473Y67847D01*
X282562Y67780D01*
X282648Y67710D01*
X282731Y67637D01*
X282813Y67562D01*
X282891Y67484D01*
X282966Y67402D01*
X283039Y67319D01*
X283109Y67233D01*
X283176Y67144D01*
X283239Y67053D01*
X283300Y66960D01*
X283357Y66865D01*
X283410Y66769D01*
X283461Y66670D01*
X283508Y66569D01*
X283551Y66467D01*
X283591Y66364D01*
X283627Y66259D01*
X283659Y66153D01*
X283688Y66046D01*
X283713Y65938D01*
X283734Y65829D01*
X283751Y65720D01*
X283765Y65610D01*
X283774Y65499D01*
X283780Y65389D01*
X283782Y65278D01*
X283780Y65167D01*
X283774Y65057D01*
X283765Y64946D01*
X283751Y64836D01*
X283734Y64727D01*
X283713Y64618D01*
X283688Y64510D01*
X283659Y64403D01*
X283627Y64297D01*
X283591Y64192D01*
X283551Y64089D01*
X283508Y63987D01*
X283461Y63886D01*
X283410Y63787D01*
X283357Y63690D01*
X283300Y63596D01*
X283239Y63503D01*
X283176Y63412D01*
X283109Y63323D01*
X283039Y63237D01*
X282966Y63154D01*
X282891Y63072D01*
X282813Y62994D01*
X282731Y62919D01*
X282648Y62846D01*
X282562Y62776D01*
X282473Y62709D01*
X282382Y62646D01*
X282289Y62585D01*
X282195Y62528D01*
X282098Y62475D01*
X281999Y62424D01*
X281898Y62377D01*
X281796Y62334D01*
X281693Y62294D01*
X281588Y62258D01*
X281482Y62226D01*
X281375Y62197D01*
X281267Y62172D01*
X281158Y62151D01*
X281049Y62134D01*
X280939Y62120D01*
X280828Y62111D01*
X280718Y62105D01*
X280607Y62103D01*
X277432Y62103D01*
X288696Y57023D02*
X288696Y68453D01*
X288696Y57023D02*
X293776Y57023D01*
X297561Y57023D02*
X301371Y68453D01*
X305181Y57023D01*
X304228Y59881D02*
X298513Y59881D01*
X308991Y68453D02*
X312801Y63056D01*
X316611Y68453D01*
X312801Y63056D02*
X312801Y57023D01*
X324548Y68454D02*
X324652Y68452D01*
X324757Y68446D01*
X324861Y68437D01*
X324964Y68424D01*
X325067Y68406D01*
X325169Y68386D01*
X325271Y68361D01*
X325371Y68333D01*
X325471Y68301D01*
X325569Y68265D01*
X325666Y68226D01*
X325761Y68184D01*
X325855Y68138D01*
X325947Y68088D01*
X326037Y68036D01*
X326125Y67980D01*
X326211Y67920D01*
X326295Y67858D01*
X326376Y67793D01*
X326455Y67725D01*
X326532Y67653D01*
X326605Y67580D01*
X326677Y67503D01*
X326745Y67424D01*
X326810Y67343D01*
X326872Y67259D01*
X326932Y67173D01*
X326988Y67085D01*
X327040Y66995D01*
X327090Y66903D01*
X327136Y66809D01*
X327178Y66714D01*
X327217Y66617D01*
X327253Y66519D01*
X327285Y66419D01*
X327313Y66319D01*
X327338Y66217D01*
X327358Y66115D01*
X327376Y66012D01*
X327389Y65909D01*
X327398Y65805D01*
X327404Y65700D01*
X327406Y65596D01*
X324548Y68453D02*
X324430Y68451D01*
X324311Y68445D01*
X324193Y68436D01*
X324076Y68423D01*
X323959Y68405D01*
X323842Y68385D01*
X323726Y68360D01*
X323611Y68332D01*
X323498Y68299D01*
X323385Y68264D01*
X323273Y68224D01*
X323163Y68182D01*
X323054Y68135D01*
X322946Y68085D01*
X322841Y68032D01*
X322737Y67975D01*
X322635Y67915D01*
X322535Y67852D01*
X322437Y67785D01*
X322341Y67716D01*
X322248Y67643D01*
X322157Y67567D01*
X322068Y67489D01*
X321982Y67407D01*
X321899Y67323D01*
X321818Y67237D01*
X321741Y67147D01*
X321666Y67056D01*
X321594Y66962D01*
X321525Y66865D01*
X321460Y66767D01*
X321397Y66666D01*
X321338Y66563D01*
X321282Y66459D01*
X321230Y66353D01*
X321181Y66245D01*
X321136Y66136D01*
X321094Y66025D01*
X321056Y65913D01*
X326454Y63374D02*
X326530Y63449D01*
X326605Y63528D01*
X326676Y63609D01*
X326745Y63693D01*
X326810Y63779D01*
X326872Y63867D01*
X326932Y63957D01*
X326988Y64049D01*
X327041Y64144D01*
X327090Y64240D01*
X327136Y64338D01*
X327179Y64437D01*
X327218Y64538D01*
X327253Y64640D01*
X327285Y64743D01*
X327313Y64847D01*
X327338Y64952D01*
X327359Y65059D01*
X327376Y65165D01*
X327389Y65272D01*
X327398Y65380D01*
X327404Y65488D01*
X327406Y65596D01*
X326453Y63373D02*
X321056Y57023D01*
X327406Y57023D01*
D12*
X139700Y266700D02*
X127000Y266700D01*
X139700Y266700D02*
X146050Y260350D01*
X146050Y247650D01*
X139700Y241300D01*
X120650Y247650D02*
X120650Y260350D01*
X127000Y266700D01*
X120650Y247650D02*
X127000Y241300D01*
X139700Y241300D01*
D10*
X123698Y279273D02*
X120523Y279273D01*
X123698Y279273D02*
X123809Y279271D01*
X123919Y279265D01*
X124030Y279256D01*
X124140Y279242D01*
X124249Y279225D01*
X124358Y279204D01*
X124466Y279179D01*
X124573Y279150D01*
X124679Y279118D01*
X124784Y279082D01*
X124887Y279042D01*
X124989Y278999D01*
X125090Y278952D01*
X125189Y278901D01*
X125286Y278848D01*
X125380Y278791D01*
X125473Y278730D01*
X125564Y278667D01*
X125653Y278600D01*
X125739Y278530D01*
X125822Y278457D01*
X125904Y278382D01*
X125982Y278304D01*
X126057Y278222D01*
X126130Y278139D01*
X126200Y278053D01*
X126267Y277964D01*
X126330Y277873D01*
X126391Y277780D01*
X126448Y277685D01*
X126501Y277589D01*
X126552Y277490D01*
X126599Y277389D01*
X126642Y277287D01*
X126682Y277184D01*
X126718Y277079D01*
X126750Y276973D01*
X126779Y276866D01*
X126804Y276758D01*
X126825Y276649D01*
X126842Y276540D01*
X126856Y276430D01*
X126865Y276319D01*
X126871Y276209D01*
X126873Y276098D01*
X126871Y275987D01*
X126865Y275877D01*
X126856Y275766D01*
X126842Y275656D01*
X126825Y275547D01*
X126804Y275438D01*
X126779Y275330D01*
X126750Y275223D01*
X126718Y275117D01*
X126682Y275012D01*
X126642Y274909D01*
X126599Y274807D01*
X126552Y274706D01*
X126501Y274607D01*
X126448Y274510D01*
X126391Y274416D01*
X126330Y274323D01*
X126267Y274232D01*
X126200Y274143D01*
X126130Y274057D01*
X126057Y273974D01*
X125982Y273892D01*
X125904Y273814D01*
X125822Y273739D01*
X125739Y273666D01*
X125653Y273596D01*
X125564Y273529D01*
X125473Y273466D01*
X125380Y273405D01*
X125285Y273348D01*
X125189Y273295D01*
X125090Y273244D01*
X124989Y273197D01*
X124887Y273154D01*
X124784Y273114D01*
X124679Y273078D01*
X124573Y273046D01*
X124466Y273017D01*
X124358Y272992D01*
X124249Y272971D01*
X124140Y272954D01*
X124030Y272940D01*
X123919Y272931D01*
X123809Y272925D01*
X123698Y272923D01*
X120523Y272923D01*
X120523Y284353D01*
X123698Y284353D01*
X123798Y284351D01*
X123897Y284345D01*
X123997Y284335D01*
X124095Y284322D01*
X124194Y284304D01*
X124291Y284283D01*
X124387Y284258D01*
X124483Y284229D01*
X124577Y284196D01*
X124670Y284160D01*
X124761Y284120D01*
X124851Y284076D01*
X124939Y284029D01*
X125025Y283979D01*
X125109Y283925D01*
X125191Y283868D01*
X125270Y283808D01*
X125348Y283744D01*
X125422Y283678D01*
X125494Y283609D01*
X125563Y283537D01*
X125629Y283463D01*
X125693Y283385D01*
X125753Y283306D01*
X125810Y283224D01*
X125864Y283140D01*
X125914Y283054D01*
X125961Y282966D01*
X126005Y282876D01*
X126045Y282785D01*
X126081Y282692D01*
X126114Y282598D01*
X126143Y282502D01*
X126168Y282406D01*
X126189Y282309D01*
X126207Y282210D01*
X126220Y282112D01*
X126230Y282012D01*
X126236Y281913D01*
X126238Y281813D01*
X126236Y281713D01*
X126230Y281614D01*
X126220Y281514D01*
X126207Y281416D01*
X126189Y281317D01*
X126168Y281220D01*
X126143Y281124D01*
X126114Y281028D01*
X126081Y280934D01*
X126045Y280841D01*
X126005Y280750D01*
X125961Y280660D01*
X125914Y280572D01*
X125864Y280486D01*
X125810Y280402D01*
X125753Y280320D01*
X125693Y280241D01*
X125629Y280163D01*
X125563Y280089D01*
X125494Y280017D01*
X125422Y279948D01*
X125348Y279882D01*
X125270Y279818D01*
X125191Y279758D01*
X125109Y279701D01*
X125025Y279647D01*
X124939Y279597D01*
X124851Y279550D01*
X124761Y279506D01*
X124670Y279466D01*
X124577Y279430D01*
X124483Y279397D01*
X124387Y279368D01*
X124291Y279343D01*
X124194Y279322D01*
X124095Y279304D01*
X123997Y279291D01*
X123897Y279281D01*
X123798Y279275D01*
X123698Y279273D01*
X130747Y272923D02*
X134557Y284353D01*
X138367Y272923D01*
X137414Y275781D02*
X131699Y275781D01*
X145225Y272923D02*
X145225Y284353D01*
X142050Y284353D02*
X148400Y284353D01*
X155131Y284353D02*
X155131Y272923D01*
X151956Y284353D02*
X158306Y284353D01*
X163030Y272923D02*
X168110Y272923D01*
X163030Y272923D02*
X163030Y284353D01*
X168110Y284353D01*
X166840Y279273D02*
X163030Y279273D01*
X172993Y284353D02*
X172993Y272923D01*
X172993Y284353D02*
X176168Y284353D01*
X176279Y284351D01*
X176389Y284345D01*
X176500Y284336D01*
X176610Y284322D01*
X176719Y284305D01*
X176828Y284284D01*
X176936Y284259D01*
X177043Y284230D01*
X177149Y284198D01*
X177254Y284162D01*
X177357Y284122D01*
X177459Y284079D01*
X177560Y284032D01*
X177659Y283981D01*
X177756Y283928D01*
X177850Y283871D01*
X177943Y283810D01*
X178034Y283747D01*
X178123Y283680D01*
X178209Y283610D01*
X178292Y283537D01*
X178374Y283462D01*
X178452Y283384D01*
X178527Y283302D01*
X178600Y283219D01*
X178670Y283133D01*
X178737Y283044D01*
X178800Y282953D01*
X178861Y282860D01*
X178918Y282765D01*
X178971Y282669D01*
X179022Y282570D01*
X179069Y282469D01*
X179112Y282367D01*
X179152Y282264D01*
X179188Y282159D01*
X179220Y282053D01*
X179249Y281946D01*
X179274Y281838D01*
X179295Y281729D01*
X179312Y281620D01*
X179326Y281510D01*
X179335Y281399D01*
X179341Y281289D01*
X179343Y281178D01*
X179341Y281067D01*
X179335Y280957D01*
X179326Y280846D01*
X179312Y280736D01*
X179295Y280627D01*
X179274Y280518D01*
X179249Y280410D01*
X179220Y280303D01*
X179188Y280197D01*
X179152Y280092D01*
X179112Y279989D01*
X179069Y279887D01*
X179022Y279786D01*
X178971Y279687D01*
X178918Y279590D01*
X178861Y279496D01*
X178800Y279403D01*
X178737Y279312D01*
X178670Y279223D01*
X178600Y279137D01*
X178527Y279054D01*
X178452Y278972D01*
X178374Y278894D01*
X178292Y278819D01*
X178209Y278746D01*
X178123Y278676D01*
X178034Y278609D01*
X177943Y278546D01*
X177850Y278485D01*
X177755Y278428D01*
X177659Y278375D01*
X177560Y278324D01*
X177459Y278277D01*
X177357Y278234D01*
X177254Y278194D01*
X177149Y278158D01*
X177043Y278126D01*
X176936Y278097D01*
X176828Y278072D01*
X176719Y278051D01*
X176610Y278034D01*
X176500Y278020D01*
X176389Y278011D01*
X176279Y278005D01*
X176168Y278003D01*
X172993Y278003D01*
X176803Y278003D02*
X179343Y272923D01*
X187515Y278956D02*
X183705Y284353D01*
X187515Y278956D02*
X191325Y284353D01*
X187515Y278956D02*
X187515Y272923D01*
X195770Y281813D02*
X198945Y284353D01*
X198945Y272923D01*
X195770Y272923D02*
X202120Y272923D01*
D12*
X139700Y63500D02*
X127000Y63500D01*
X139700Y63500D02*
X146050Y57150D01*
X146050Y44450D01*
X139700Y38100D01*
X120650Y44450D02*
X120650Y57150D01*
X127000Y63500D01*
X120650Y44450D02*
X127000Y38100D01*
X139700Y38100D01*
D10*
X123698Y76073D02*
X120523Y76073D01*
X123698Y76073D02*
X123809Y76071D01*
X123919Y76065D01*
X124030Y76056D01*
X124140Y76042D01*
X124249Y76025D01*
X124358Y76004D01*
X124466Y75979D01*
X124573Y75950D01*
X124679Y75918D01*
X124784Y75882D01*
X124887Y75842D01*
X124989Y75799D01*
X125090Y75752D01*
X125189Y75701D01*
X125286Y75648D01*
X125380Y75591D01*
X125473Y75530D01*
X125564Y75467D01*
X125653Y75400D01*
X125739Y75330D01*
X125822Y75257D01*
X125904Y75182D01*
X125982Y75104D01*
X126057Y75022D01*
X126130Y74939D01*
X126200Y74853D01*
X126267Y74764D01*
X126330Y74673D01*
X126391Y74580D01*
X126448Y74485D01*
X126501Y74389D01*
X126552Y74290D01*
X126599Y74189D01*
X126642Y74087D01*
X126682Y73984D01*
X126718Y73879D01*
X126750Y73773D01*
X126779Y73666D01*
X126804Y73558D01*
X126825Y73449D01*
X126842Y73340D01*
X126856Y73230D01*
X126865Y73119D01*
X126871Y73009D01*
X126873Y72898D01*
X126871Y72787D01*
X126865Y72677D01*
X126856Y72566D01*
X126842Y72456D01*
X126825Y72347D01*
X126804Y72238D01*
X126779Y72130D01*
X126750Y72023D01*
X126718Y71917D01*
X126682Y71812D01*
X126642Y71709D01*
X126599Y71607D01*
X126552Y71506D01*
X126501Y71407D01*
X126448Y71310D01*
X126391Y71216D01*
X126330Y71123D01*
X126267Y71032D01*
X126200Y70943D01*
X126130Y70857D01*
X126057Y70774D01*
X125982Y70692D01*
X125904Y70614D01*
X125822Y70539D01*
X125739Y70466D01*
X125653Y70396D01*
X125564Y70329D01*
X125473Y70266D01*
X125380Y70205D01*
X125285Y70148D01*
X125189Y70095D01*
X125090Y70044D01*
X124989Y69997D01*
X124887Y69954D01*
X124784Y69914D01*
X124679Y69878D01*
X124573Y69846D01*
X124466Y69817D01*
X124358Y69792D01*
X124249Y69771D01*
X124140Y69754D01*
X124030Y69740D01*
X123919Y69731D01*
X123809Y69725D01*
X123698Y69723D01*
X120523Y69723D01*
X120523Y81153D01*
X123698Y81153D01*
X123798Y81151D01*
X123897Y81145D01*
X123997Y81135D01*
X124095Y81122D01*
X124194Y81104D01*
X124291Y81083D01*
X124387Y81058D01*
X124483Y81029D01*
X124577Y80996D01*
X124670Y80960D01*
X124761Y80920D01*
X124851Y80876D01*
X124939Y80829D01*
X125025Y80779D01*
X125109Y80725D01*
X125191Y80668D01*
X125270Y80608D01*
X125348Y80544D01*
X125422Y80478D01*
X125494Y80409D01*
X125563Y80337D01*
X125629Y80263D01*
X125693Y80185D01*
X125753Y80106D01*
X125810Y80024D01*
X125864Y79940D01*
X125914Y79854D01*
X125961Y79766D01*
X126005Y79676D01*
X126045Y79585D01*
X126081Y79492D01*
X126114Y79398D01*
X126143Y79302D01*
X126168Y79206D01*
X126189Y79109D01*
X126207Y79010D01*
X126220Y78912D01*
X126230Y78812D01*
X126236Y78713D01*
X126238Y78613D01*
X126236Y78513D01*
X126230Y78414D01*
X126220Y78314D01*
X126207Y78216D01*
X126189Y78117D01*
X126168Y78020D01*
X126143Y77924D01*
X126114Y77828D01*
X126081Y77734D01*
X126045Y77641D01*
X126005Y77550D01*
X125961Y77460D01*
X125914Y77372D01*
X125864Y77286D01*
X125810Y77202D01*
X125753Y77120D01*
X125693Y77041D01*
X125629Y76963D01*
X125563Y76889D01*
X125494Y76817D01*
X125422Y76748D01*
X125348Y76682D01*
X125270Y76618D01*
X125191Y76558D01*
X125109Y76501D01*
X125025Y76447D01*
X124939Y76397D01*
X124851Y76350D01*
X124761Y76306D01*
X124670Y76266D01*
X124577Y76230D01*
X124483Y76197D01*
X124387Y76168D01*
X124291Y76143D01*
X124194Y76122D01*
X124095Y76104D01*
X123997Y76091D01*
X123897Y76081D01*
X123798Y76075D01*
X123698Y76073D01*
X130747Y69723D02*
X134557Y81153D01*
X138367Y69723D01*
X137414Y72581D02*
X131699Y72581D01*
X145225Y69723D02*
X145225Y81153D01*
X142050Y81153D02*
X148400Y81153D01*
X155131Y81153D02*
X155131Y69723D01*
X151956Y81153D02*
X158306Y81153D01*
X163030Y69723D02*
X168110Y69723D01*
X163030Y69723D02*
X163030Y81153D01*
X168110Y81153D01*
X166840Y76073D02*
X163030Y76073D01*
X172993Y81153D02*
X172993Y69723D01*
X172993Y81153D02*
X176168Y81153D01*
X176279Y81151D01*
X176389Y81145D01*
X176500Y81136D01*
X176610Y81122D01*
X176719Y81105D01*
X176828Y81084D01*
X176936Y81059D01*
X177043Y81030D01*
X177149Y80998D01*
X177254Y80962D01*
X177357Y80922D01*
X177459Y80879D01*
X177560Y80832D01*
X177659Y80781D01*
X177756Y80728D01*
X177850Y80671D01*
X177943Y80610D01*
X178034Y80547D01*
X178123Y80480D01*
X178209Y80410D01*
X178292Y80337D01*
X178374Y80262D01*
X178452Y80184D01*
X178527Y80102D01*
X178600Y80019D01*
X178670Y79933D01*
X178737Y79844D01*
X178800Y79753D01*
X178861Y79660D01*
X178918Y79565D01*
X178971Y79469D01*
X179022Y79370D01*
X179069Y79269D01*
X179112Y79167D01*
X179152Y79064D01*
X179188Y78959D01*
X179220Y78853D01*
X179249Y78746D01*
X179274Y78638D01*
X179295Y78529D01*
X179312Y78420D01*
X179326Y78310D01*
X179335Y78199D01*
X179341Y78089D01*
X179343Y77978D01*
X179341Y77867D01*
X179335Y77757D01*
X179326Y77646D01*
X179312Y77536D01*
X179295Y77427D01*
X179274Y77318D01*
X179249Y77210D01*
X179220Y77103D01*
X179188Y76997D01*
X179152Y76892D01*
X179112Y76789D01*
X179069Y76687D01*
X179022Y76586D01*
X178971Y76487D01*
X178918Y76390D01*
X178861Y76296D01*
X178800Y76203D01*
X178737Y76112D01*
X178670Y76023D01*
X178600Y75937D01*
X178527Y75854D01*
X178452Y75772D01*
X178374Y75694D01*
X178292Y75619D01*
X178209Y75546D01*
X178123Y75476D01*
X178034Y75409D01*
X177943Y75346D01*
X177850Y75285D01*
X177755Y75228D01*
X177659Y75175D01*
X177560Y75124D01*
X177459Y75077D01*
X177357Y75034D01*
X177254Y74994D01*
X177149Y74958D01*
X177043Y74926D01*
X176936Y74897D01*
X176828Y74872D01*
X176719Y74851D01*
X176610Y74834D01*
X176500Y74820D01*
X176389Y74811D01*
X176279Y74805D01*
X176168Y74803D01*
X172993Y74803D01*
X176803Y74803D02*
X179343Y69723D01*
X187515Y75756D02*
X183705Y81153D01*
X187515Y75756D02*
X191325Y81153D01*
X187515Y75756D02*
X187515Y69723D01*
X199263Y81154D02*
X199367Y81152D01*
X199472Y81146D01*
X199576Y81137D01*
X199679Y81124D01*
X199782Y81106D01*
X199884Y81086D01*
X199986Y81061D01*
X200086Y81033D01*
X200186Y81001D01*
X200284Y80965D01*
X200381Y80926D01*
X200476Y80884D01*
X200570Y80838D01*
X200662Y80788D01*
X200752Y80736D01*
X200840Y80680D01*
X200926Y80620D01*
X201010Y80558D01*
X201091Y80493D01*
X201170Y80425D01*
X201247Y80353D01*
X201320Y80280D01*
X201392Y80203D01*
X201460Y80124D01*
X201525Y80043D01*
X201587Y79959D01*
X201647Y79873D01*
X201703Y79785D01*
X201755Y79695D01*
X201805Y79603D01*
X201851Y79509D01*
X201893Y79414D01*
X201932Y79317D01*
X201968Y79219D01*
X202000Y79119D01*
X202028Y79019D01*
X202053Y78917D01*
X202073Y78815D01*
X202091Y78712D01*
X202104Y78609D01*
X202113Y78505D01*
X202119Y78400D01*
X202121Y78296D01*
X199263Y81153D02*
X199145Y81151D01*
X199026Y81145D01*
X198908Y81136D01*
X198791Y81123D01*
X198674Y81105D01*
X198557Y81085D01*
X198441Y81060D01*
X198326Y81032D01*
X198213Y80999D01*
X198100Y80964D01*
X197988Y80924D01*
X197878Y80882D01*
X197769Y80835D01*
X197661Y80785D01*
X197556Y80732D01*
X197452Y80675D01*
X197350Y80615D01*
X197250Y80552D01*
X197152Y80485D01*
X197056Y80416D01*
X196963Y80343D01*
X196872Y80267D01*
X196783Y80189D01*
X196697Y80107D01*
X196614Y80023D01*
X196533Y79937D01*
X196456Y79847D01*
X196381Y79756D01*
X196309Y79662D01*
X196240Y79565D01*
X196175Y79467D01*
X196112Y79366D01*
X196053Y79263D01*
X195997Y79159D01*
X195945Y79053D01*
X195896Y78945D01*
X195851Y78836D01*
X195809Y78725D01*
X195771Y78613D01*
X201168Y76074D02*
X201244Y76149D01*
X201319Y76228D01*
X201390Y76309D01*
X201459Y76393D01*
X201524Y76479D01*
X201586Y76567D01*
X201646Y76657D01*
X201702Y76749D01*
X201755Y76844D01*
X201804Y76940D01*
X201850Y77038D01*
X201893Y77137D01*
X201932Y77238D01*
X201967Y77340D01*
X201999Y77443D01*
X202027Y77547D01*
X202052Y77652D01*
X202073Y77759D01*
X202090Y77865D01*
X202103Y77972D01*
X202112Y78080D01*
X202118Y78188D01*
X202120Y78296D01*
X201168Y76073D02*
X195770Y69723D01*
X202120Y69723D01*
D12*
X635000Y501650D02*
X628650Y508000D01*
X628650Y520700D01*
X635000Y527050D01*
X647700Y527050D01*
X654050Y520700D01*
X654050Y508000D01*
X647700Y501650D01*
X628650Y469900D02*
X628650Y457200D01*
X628650Y469900D02*
X635000Y476250D01*
X647700Y476250D01*
X654050Y469900D01*
X635000Y476250D02*
X628650Y482600D01*
X628650Y495300D01*
X635000Y501650D01*
X647700Y501650D01*
X654050Y495300D01*
X654050Y482600D01*
X647700Y476250D01*
X647700Y450850D02*
X635000Y450850D01*
X628650Y457200D01*
X647700Y450850D02*
X654050Y457200D01*
X654050Y469900D01*
X628650Y533400D02*
X628650Y546100D01*
X635000Y552450D01*
X647700Y552450D01*
X654050Y546100D01*
X635000Y527050D02*
X628650Y533400D01*
X647700Y527050D02*
X654050Y533400D01*
X654050Y546100D01*
D10*
X619887Y457073D02*
X619987Y457071D01*
X620086Y457065D01*
X620186Y457055D01*
X620284Y457042D01*
X620383Y457024D01*
X620480Y457003D01*
X620576Y456978D01*
X620672Y456949D01*
X620766Y456916D01*
X620859Y456880D01*
X620950Y456840D01*
X621040Y456796D01*
X621128Y456749D01*
X621214Y456699D01*
X621298Y456645D01*
X621380Y456588D01*
X621459Y456528D01*
X621537Y456464D01*
X621611Y456398D01*
X621683Y456329D01*
X621752Y456257D01*
X621818Y456183D01*
X621882Y456105D01*
X621942Y456026D01*
X621999Y455944D01*
X622053Y455860D01*
X622103Y455774D01*
X622150Y455686D01*
X622194Y455596D01*
X622234Y455505D01*
X622270Y455412D01*
X622303Y455318D01*
X622332Y455222D01*
X622357Y455126D01*
X622378Y455029D01*
X622396Y454930D01*
X622409Y454832D01*
X622419Y454732D01*
X622425Y454633D01*
X622427Y454533D01*
X622425Y454392D01*
X622420Y454251D01*
X622410Y454110D01*
X622397Y453969D01*
X622381Y453829D01*
X622360Y453689D01*
X622336Y453550D01*
X622308Y453411D01*
X622277Y453274D01*
X622242Y453137D01*
X622204Y453001D01*
X622162Y452866D01*
X622116Y452733D01*
X622067Y452600D01*
X622014Y452469D01*
X621958Y452340D01*
X621899Y452211D01*
X621836Y452085D01*
X621770Y451960D01*
X621701Y451837D01*
X621628Y451716D01*
X621552Y451597D01*
X621473Y451479D01*
X621392Y451364D01*
X621307Y451252D01*
X621219Y451141D01*
X621128Y451033D01*
X621035Y450927D01*
X620938Y450824D01*
X620839Y450723D01*
X613537Y451041D02*
X613437Y451043D01*
X613338Y451049D01*
X613238Y451059D01*
X613140Y451072D01*
X613041Y451090D01*
X612944Y451111D01*
X612848Y451136D01*
X612752Y451165D01*
X612658Y451198D01*
X612565Y451234D01*
X612474Y451274D01*
X612384Y451318D01*
X612296Y451365D01*
X612210Y451415D01*
X612126Y451469D01*
X612044Y451526D01*
X611965Y451586D01*
X611887Y451650D01*
X611813Y451716D01*
X611741Y451785D01*
X611672Y451857D01*
X611606Y451931D01*
X611542Y452009D01*
X611482Y452088D01*
X611425Y452170D01*
X611371Y452254D01*
X611321Y452340D01*
X611274Y452428D01*
X611230Y452518D01*
X611190Y452609D01*
X611154Y452702D01*
X611121Y452796D01*
X611092Y452892D01*
X611067Y452988D01*
X611046Y453085D01*
X611028Y453184D01*
X611015Y453282D01*
X611005Y453382D01*
X610999Y453481D01*
X610997Y453581D01*
X610999Y453714D01*
X611004Y453847D01*
X611014Y453980D01*
X611027Y454113D01*
X611044Y454245D01*
X611064Y454377D01*
X611088Y454508D01*
X611116Y454638D01*
X611147Y454768D01*
X611182Y454896D01*
X611221Y455024D01*
X611263Y455150D01*
X611309Y455275D01*
X611358Y455399D01*
X611410Y455522D01*
X611466Y455643D01*
X611526Y455762D01*
X611588Y455880D01*
X611654Y455995D01*
X611723Y456109D01*
X611796Y456221D01*
X611871Y456331D01*
X611950Y456439D01*
X615760Y452310D02*
X615708Y452226D01*
X615653Y452143D01*
X615594Y452063D01*
X615533Y451985D01*
X615469Y451910D01*
X615401Y451837D01*
X615331Y451766D01*
X615259Y451699D01*
X615184Y451634D01*
X615106Y451572D01*
X615026Y451513D01*
X614944Y451457D01*
X614860Y451405D01*
X614774Y451356D01*
X614686Y451310D01*
X614596Y451267D01*
X614505Y451228D01*
X614412Y451193D01*
X614318Y451161D01*
X614223Y451133D01*
X614127Y451108D01*
X614030Y451088D01*
X613932Y451070D01*
X613834Y451057D01*
X613735Y451048D01*
X613636Y451042D01*
X613537Y451040D01*
X617664Y455803D02*
X617716Y455887D01*
X617771Y455970D01*
X617830Y456050D01*
X617891Y456128D01*
X617955Y456203D01*
X618023Y456276D01*
X618093Y456347D01*
X618165Y456414D01*
X618240Y456479D01*
X618318Y456541D01*
X618398Y456600D01*
X618480Y456656D01*
X618564Y456708D01*
X618650Y456757D01*
X618738Y456803D01*
X618828Y456846D01*
X618919Y456885D01*
X619012Y456920D01*
X619106Y456952D01*
X619201Y456980D01*
X619297Y457005D01*
X619394Y457025D01*
X619492Y457043D01*
X619590Y457056D01*
X619689Y457065D01*
X619788Y457071D01*
X619887Y457073D01*
X617665Y455803D02*
X615760Y452311D01*
X622427Y462178D02*
X622427Y467258D01*
X622427Y462178D02*
X610997Y462178D01*
X610997Y467258D01*
X616077Y465988D02*
X616077Y462178D01*
X610997Y472059D02*
X622427Y472059D01*
X622427Y478409D02*
X610997Y472059D01*
X610997Y478409D02*
X622427Y478409D01*
X622427Y487299D02*
X622425Y487399D01*
X622419Y487498D01*
X622409Y487598D01*
X622396Y487696D01*
X622378Y487795D01*
X622357Y487892D01*
X622332Y487988D01*
X622303Y488084D01*
X622270Y488178D01*
X622234Y488271D01*
X622194Y488362D01*
X622150Y488452D01*
X622103Y488540D01*
X622053Y488626D01*
X621999Y488710D01*
X621942Y488792D01*
X621882Y488871D01*
X621818Y488949D01*
X621752Y489023D01*
X621683Y489095D01*
X621611Y489164D01*
X621537Y489230D01*
X621459Y489294D01*
X621380Y489354D01*
X621298Y489411D01*
X621214Y489465D01*
X621128Y489515D01*
X621040Y489562D01*
X620950Y489606D01*
X620859Y489646D01*
X620766Y489682D01*
X620672Y489715D01*
X620576Y489744D01*
X620480Y489769D01*
X620383Y489790D01*
X620284Y489808D01*
X620186Y489821D01*
X620086Y489831D01*
X619987Y489837D01*
X619887Y489839D01*
X622427Y487299D02*
X622425Y487158D01*
X622420Y487017D01*
X622410Y486876D01*
X622397Y486735D01*
X622381Y486595D01*
X622360Y486455D01*
X622336Y486316D01*
X622308Y486177D01*
X622277Y486040D01*
X622242Y485903D01*
X622204Y485767D01*
X622162Y485632D01*
X622116Y485499D01*
X622067Y485366D01*
X622014Y485235D01*
X621958Y485106D01*
X621899Y484977D01*
X621836Y484851D01*
X621770Y484726D01*
X621701Y484603D01*
X621628Y484482D01*
X621552Y484363D01*
X621473Y484245D01*
X621392Y484130D01*
X621307Y484018D01*
X621219Y483907D01*
X621128Y483799D01*
X621035Y483693D01*
X620938Y483590D01*
X620839Y483489D01*
X613537Y483806D02*
X613437Y483808D01*
X613338Y483814D01*
X613238Y483824D01*
X613140Y483837D01*
X613041Y483855D01*
X612944Y483876D01*
X612848Y483901D01*
X612752Y483930D01*
X612658Y483963D01*
X612565Y483999D01*
X612474Y484039D01*
X612384Y484083D01*
X612296Y484130D01*
X612210Y484180D01*
X612126Y484234D01*
X612044Y484291D01*
X611965Y484351D01*
X611887Y484415D01*
X611813Y484481D01*
X611741Y484550D01*
X611672Y484622D01*
X611606Y484696D01*
X611542Y484774D01*
X611482Y484853D01*
X611425Y484935D01*
X611371Y485019D01*
X611321Y485105D01*
X611274Y485193D01*
X611230Y485283D01*
X611190Y485374D01*
X611154Y485467D01*
X611121Y485561D01*
X611092Y485657D01*
X611067Y485753D01*
X611046Y485850D01*
X611028Y485949D01*
X611015Y486047D01*
X611005Y486147D01*
X610999Y486246D01*
X610997Y486346D01*
X610999Y486479D01*
X611004Y486612D01*
X611014Y486745D01*
X611027Y486878D01*
X611044Y487010D01*
X611064Y487142D01*
X611088Y487273D01*
X611116Y487403D01*
X611147Y487533D01*
X611182Y487661D01*
X611221Y487789D01*
X611263Y487915D01*
X611309Y488040D01*
X611358Y488164D01*
X611410Y488287D01*
X611466Y488408D01*
X611526Y488527D01*
X611588Y488645D01*
X611654Y488760D01*
X611723Y488874D01*
X611796Y488986D01*
X611871Y489096D01*
X611950Y489204D01*
X615760Y485076D02*
X615708Y484992D01*
X615653Y484909D01*
X615594Y484829D01*
X615533Y484751D01*
X615469Y484676D01*
X615401Y484603D01*
X615331Y484532D01*
X615259Y484465D01*
X615184Y484400D01*
X615106Y484338D01*
X615026Y484279D01*
X614944Y484223D01*
X614860Y484171D01*
X614774Y484122D01*
X614686Y484076D01*
X614596Y484033D01*
X614505Y483994D01*
X614412Y483959D01*
X614318Y483927D01*
X614223Y483899D01*
X614127Y483874D01*
X614030Y483854D01*
X613932Y483836D01*
X613834Y483823D01*
X613735Y483814D01*
X613636Y483808D01*
X613537Y483806D01*
X617664Y488569D02*
X617716Y488653D01*
X617771Y488736D01*
X617830Y488816D01*
X617891Y488894D01*
X617955Y488969D01*
X618023Y489042D01*
X618093Y489113D01*
X618165Y489180D01*
X618240Y489245D01*
X618318Y489307D01*
X618398Y489366D01*
X618480Y489422D01*
X618564Y489474D01*
X618650Y489523D01*
X618738Y489569D01*
X618828Y489612D01*
X618919Y489651D01*
X619012Y489686D01*
X619106Y489718D01*
X619201Y489746D01*
X619297Y489771D01*
X619394Y489791D01*
X619492Y489809D01*
X619590Y489822D01*
X619689Y489831D01*
X619788Y489837D01*
X619887Y489839D01*
X617665Y488569D02*
X615760Y485076D01*
X614172Y494538D02*
X619252Y494538D01*
X614172Y494538D02*
X614061Y494540D01*
X613951Y494546D01*
X613840Y494555D01*
X613730Y494569D01*
X613621Y494586D01*
X613512Y494607D01*
X613404Y494632D01*
X613297Y494661D01*
X613191Y494693D01*
X613086Y494729D01*
X612983Y494769D01*
X612881Y494812D01*
X612780Y494859D01*
X612681Y494910D01*
X612585Y494963D01*
X612490Y495020D01*
X612397Y495081D01*
X612306Y495144D01*
X612217Y495211D01*
X612131Y495281D01*
X612048Y495354D01*
X611966Y495429D01*
X611888Y495507D01*
X611813Y495589D01*
X611740Y495672D01*
X611670Y495758D01*
X611603Y495847D01*
X611540Y495938D01*
X611479Y496031D01*
X611422Y496126D01*
X611369Y496222D01*
X611318Y496321D01*
X611271Y496422D01*
X611228Y496524D01*
X611188Y496627D01*
X611152Y496732D01*
X611120Y496838D01*
X611091Y496945D01*
X611066Y497053D01*
X611045Y497162D01*
X611028Y497271D01*
X611014Y497381D01*
X611005Y497492D01*
X610999Y497602D01*
X610997Y497713D01*
X610999Y497824D01*
X611005Y497934D01*
X611014Y498045D01*
X611028Y498155D01*
X611045Y498264D01*
X611066Y498373D01*
X611091Y498481D01*
X611120Y498588D01*
X611152Y498694D01*
X611188Y498799D01*
X611228Y498902D01*
X611271Y499004D01*
X611318Y499105D01*
X611369Y499204D01*
X611422Y499301D01*
X611479Y499395D01*
X611540Y499488D01*
X611603Y499579D01*
X611670Y499668D01*
X611740Y499754D01*
X611813Y499837D01*
X611888Y499919D01*
X611966Y499997D01*
X612048Y500072D01*
X612131Y500145D01*
X612217Y500215D01*
X612306Y500282D01*
X612397Y500345D01*
X612490Y500406D01*
X612585Y500463D01*
X612681Y500516D01*
X612780Y500567D01*
X612881Y500614D01*
X612983Y500657D01*
X613086Y500697D01*
X613191Y500733D01*
X613297Y500765D01*
X613404Y500794D01*
X613512Y500819D01*
X613621Y500840D01*
X613730Y500857D01*
X613840Y500871D01*
X613951Y500880D01*
X614061Y500886D01*
X614172Y500888D01*
X619252Y500888D01*
X619363Y500886D01*
X619473Y500880D01*
X619584Y500871D01*
X619694Y500857D01*
X619803Y500840D01*
X619912Y500819D01*
X620020Y500794D01*
X620127Y500765D01*
X620233Y500733D01*
X620338Y500697D01*
X620441Y500657D01*
X620543Y500614D01*
X620644Y500567D01*
X620743Y500516D01*
X620840Y500463D01*
X620934Y500406D01*
X621027Y500345D01*
X621118Y500282D01*
X621207Y500215D01*
X621293Y500145D01*
X621376Y500072D01*
X621458Y499997D01*
X621536Y499919D01*
X621611Y499837D01*
X621684Y499754D01*
X621754Y499668D01*
X621821Y499579D01*
X621884Y499488D01*
X621945Y499395D01*
X622002Y499300D01*
X622055Y499204D01*
X622106Y499105D01*
X622153Y499004D01*
X622196Y498902D01*
X622236Y498799D01*
X622272Y498694D01*
X622304Y498588D01*
X622333Y498481D01*
X622358Y498373D01*
X622379Y498264D01*
X622396Y498155D01*
X622410Y498045D01*
X622419Y497934D01*
X622425Y497824D01*
X622427Y497713D01*
X622425Y497602D01*
X622419Y497492D01*
X622410Y497381D01*
X622396Y497271D01*
X622379Y497162D01*
X622358Y497053D01*
X622333Y496945D01*
X622304Y496838D01*
X622272Y496732D01*
X622236Y496627D01*
X622196Y496524D01*
X622153Y496422D01*
X622106Y496321D01*
X622055Y496222D01*
X622002Y496125D01*
X621945Y496031D01*
X621884Y495938D01*
X621821Y495847D01*
X621754Y495758D01*
X621684Y495672D01*
X621611Y495589D01*
X621536Y495507D01*
X621458Y495429D01*
X621376Y495354D01*
X621293Y495281D01*
X621207Y495211D01*
X621118Y495144D01*
X621027Y495081D01*
X620934Y495020D01*
X620840Y494963D01*
X620743Y494910D01*
X620644Y494859D01*
X620543Y494812D01*
X620441Y494769D01*
X620338Y494729D01*
X620233Y494693D01*
X620127Y494661D01*
X620020Y494632D01*
X619912Y494607D01*
X619803Y494586D01*
X619694Y494569D01*
X619584Y494555D01*
X619473Y494546D01*
X619363Y494540D01*
X619252Y494538D01*
X622427Y506432D02*
X610997Y506432D01*
X610997Y509607D01*
X610999Y509718D01*
X611005Y509828D01*
X611014Y509939D01*
X611028Y510049D01*
X611045Y510158D01*
X611066Y510267D01*
X611091Y510375D01*
X611120Y510482D01*
X611152Y510588D01*
X611188Y510693D01*
X611228Y510796D01*
X611271Y510898D01*
X611318Y510999D01*
X611369Y511098D01*
X611422Y511195D01*
X611479Y511289D01*
X611540Y511382D01*
X611603Y511473D01*
X611670Y511562D01*
X611740Y511648D01*
X611813Y511731D01*
X611888Y511813D01*
X611966Y511891D01*
X612048Y511966D01*
X612131Y512039D01*
X612217Y512109D01*
X612306Y512176D01*
X612397Y512239D01*
X612490Y512300D01*
X612585Y512357D01*
X612681Y512410D01*
X612780Y512461D01*
X612881Y512508D01*
X612983Y512551D01*
X613086Y512591D01*
X613191Y512627D01*
X613297Y512659D01*
X613404Y512688D01*
X613512Y512713D01*
X613621Y512734D01*
X613730Y512751D01*
X613840Y512765D01*
X613951Y512774D01*
X614061Y512780D01*
X614172Y512782D01*
X614283Y512780D01*
X614393Y512774D01*
X614504Y512765D01*
X614614Y512751D01*
X614723Y512734D01*
X614832Y512713D01*
X614940Y512688D01*
X615047Y512659D01*
X615153Y512627D01*
X615258Y512591D01*
X615361Y512551D01*
X615463Y512508D01*
X615564Y512461D01*
X615663Y512410D01*
X615760Y512357D01*
X615854Y512300D01*
X615947Y512239D01*
X616038Y512176D01*
X616127Y512109D01*
X616213Y512039D01*
X616296Y511966D01*
X616378Y511891D01*
X616456Y511813D01*
X616531Y511731D01*
X616604Y511648D01*
X616674Y511562D01*
X616741Y511473D01*
X616804Y511382D01*
X616865Y511289D01*
X616922Y511195D01*
X616975Y511098D01*
X617026Y510999D01*
X617073Y510898D01*
X617116Y510796D01*
X617156Y510693D01*
X617192Y510588D01*
X617224Y510482D01*
X617253Y510375D01*
X617278Y510267D01*
X617299Y510158D01*
X617316Y510049D01*
X617330Y509939D01*
X617339Y509828D01*
X617345Y509718D01*
X617347Y509607D01*
X617347Y506432D01*
X617347Y510242D02*
X622427Y512782D01*
D12*
X622300Y359410D02*
X622298Y359310D01*
X622292Y359211D01*
X622282Y359111D01*
X622269Y359013D01*
X622251Y358914D01*
X622230Y358817D01*
X622205Y358721D01*
X622176Y358625D01*
X622143Y358531D01*
X622107Y358438D01*
X622067Y358347D01*
X622023Y358257D01*
X621976Y358169D01*
X621926Y358083D01*
X621872Y357999D01*
X621815Y357917D01*
X621755Y357838D01*
X621691Y357760D01*
X621625Y357686D01*
X621556Y357614D01*
X621484Y357545D01*
X621410Y357479D01*
X621332Y357415D01*
X621253Y357355D01*
X621171Y357298D01*
X621087Y357244D01*
X621001Y357194D01*
X620913Y357147D01*
X620823Y357103D01*
X620732Y357063D01*
X620639Y357027D01*
X620545Y356994D01*
X620449Y356965D01*
X620353Y356940D01*
X620256Y356919D01*
X620157Y356901D01*
X620059Y356888D01*
X619959Y356878D01*
X619860Y356872D01*
X619760Y356870D01*
X622300Y377190D02*
X622298Y377290D01*
X622292Y377389D01*
X622282Y377489D01*
X622269Y377587D01*
X622251Y377686D01*
X622230Y377783D01*
X622205Y377879D01*
X622176Y377975D01*
X622143Y378069D01*
X622107Y378162D01*
X622067Y378253D01*
X622023Y378343D01*
X621976Y378431D01*
X621926Y378517D01*
X621872Y378601D01*
X621815Y378683D01*
X621755Y378762D01*
X621691Y378840D01*
X621625Y378914D01*
X621556Y378986D01*
X621484Y379055D01*
X621410Y379121D01*
X621332Y379185D01*
X621253Y379245D01*
X621171Y379302D01*
X621087Y379356D01*
X621001Y379406D01*
X620913Y379453D01*
X620823Y379497D01*
X620732Y379537D01*
X620639Y379573D01*
X620545Y379606D01*
X620449Y379635D01*
X620353Y379660D01*
X620256Y379681D01*
X620157Y379699D01*
X620059Y379712D01*
X619959Y379722D01*
X619860Y379728D01*
X619760Y379730D01*
X561340Y379730D02*
X561240Y379728D01*
X561141Y379722D01*
X561041Y379712D01*
X560943Y379699D01*
X560844Y379681D01*
X560747Y379660D01*
X560651Y379635D01*
X560555Y379606D01*
X560461Y379573D01*
X560368Y379537D01*
X560277Y379497D01*
X560187Y379453D01*
X560099Y379406D01*
X560013Y379356D01*
X559929Y379302D01*
X559847Y379245D01*
X559768Y379185D01*
X559690Y379121D01*
X559616Y379055D01*
X559544Y378986D01*
X559475Y378914D01*
X559409Y378840D01*
X559345Y378762D01*
X559285Y378683D01*
X559228Y378601D01*
X559174Y378517D01*
X559124Y378431D01*
X559077Y378343D01*
X559033Y378253D01*
X558993Y378162D01*
X558957Y378069D01*
X558924Y377975D01*
X558895Y377879D01*
X558870Y377783D01*
X558849Y377686D01*
X558831Y377587D01*
X558818Y377489D01*
X558808Y377389D01*
X558802Y377290D01*
X558800Y377190D01*
X558800Y359410D02*
X558802Y359310D01*
X558808Y359211D01*
X558818Y359111D01*
X558831Y359013D01*
X558849Y358914D01*
X558870Y358817D01*
X558895Y358721D01*
X558924Y358625D01*
X558957Y358531D01*
X558993Y358438D01*
X559033Y358347D01*
X559077Y358257D01*
X559124Y358169D01*
X559174Y358083D01*
X559228Y357999D01*
X559285Y357917D01*
X559345Y357838D01*
X559409Y357760D01*
X559475Y357686D01*
X559544Y357614D01*
X559616Y357545D01*
X559690Y357479D01*
X559768Y357415D01*
X559847Y357355D01*
X559929Y357298D01*
X560013Y357244D01*
X560099Y357194D01*
X560187Y357147D01*
X560277Y357103D01*
X560368Y357063D01*
X560461Y357027D01*
X560555Y356994D01*
X560651Y356965D01*
X560747Y356940D01*
X560844Y356919D01*
X560943Y356901D01*
X561041Y356888D01*
X561141Y356878D01*
X561240Y356872D01*
X561340Y356870D01*
X622300Y359410D02*
X622300Y377190D01*
X619760Y356870D02*
X615950Y356870D01*
X614680Y358140D01*
X615950Y379730D02*
X619760Y379730D01*
X615950Y379730D02*
X614680Y378460D01*
X566420Y358140D02*
X565150Y356870D01*
X566420Y358140D02*
X614680Y358140D01*
X566420Y378460D02*
X565150Y379730D01*
X566420Y378460D02*
X614680Y378460D01*
X565150Y356870D02*
X561340Y356870D01*
X561340Y379730D02*
X565150Y379730D01*
X558800Y377190D02*
X558800Y359410D01*
D13*
X554482Y368300D03*
X626618Y368300D03*
D10*
X602698Y352425D02*
X602698Y340995D01*
X602698Y352425D02*
X605873Y352425D01*
X605984Y352423D01*
X606094Y352417D01*
X606205Y352408D01*
X606315Y352394D01*
X606424Y352377D01*
X606533Y352356D01*
X606641Y352331D01*
X606748Y352302D01*
X606854Y352270D01*
X606959Y352234D01*
X607062Y352194D01*
X607164Y352151D01*
X607265Y352104D01*
X607364Y352053D01*
X607461Y352000D01*
X607555Y351943D01*
X607648Y351882D01*
X607739Y351819D01*
X607828Y351752D01*
X607914Y351682D01*
X607997Y351609D01*
X608079Y351534D01*
X608157Y351456D01*
X608232Y351374D01*
X608305Y351291D01*
X608375Y351205D01*
X608442Y351116D01*
X608505Y351025D01*
X608566Y350932D01*
X608623Y350837D01*
X608676Y350741D01*
X608727Y350642D01*
X608774Y350541D01*
X608817Y350439D01*
X608857Y350336D01*
X608893Y350231D01*
X608925Y350125D01*
X608954Y350018D01*
X608979Y349910D01*
X609000Y349801D01*
X609017Y349692D01*
X609031Y349582D01*
X609040Y349471D01*
X609046Y349361D01*
X609048Y349250D01*
X609046Y349139D01*
X609040Y349029D01*
X609031Y348918D01*
X609017Y348808D01*
X609000Y348699D01*
X608979Y348590D01*
X608954Y348482D01*
X608925Y348375D01*
X608893Y348269D01*
X608857Y348164D01*
X608817Y348061D01*
X608774Y347959D01*
X608727Y347858D01*
X608676Y347759D01*
X608623Y347662D01*
X608566Y347568D01*
X608505Y347475D01*
X608442Y347384D01*
X608375Y347295D01*
X608305Y347209D01*
X608232Y347126D01*
X608157Y347044D01*
X608079Y346966D01*
X607997Y346891D01*
X607914Y346818D01*
X607828Y346748D01*
X607739Y346681D01*
X607648Y346618D01*
X607555Y346557D01*
X607461Y346500D01*
X607364Y346447D01*
X607265Y346396D01*
X607164Y346349D01*
X607062Y346306D01*
X606959Y346266D01*
X606854Y346230D01*
X606748Y346198D01*
X606641Y346169D01*
X606533Y346144D01*
X606424Y346123D01*
X606315Y346106D01*
X606205Y346092D01*
X606094Y346083D01*
X605984Y346077D01*
X605873Y346075D01*
X602698Y346075D01*
X606508Y346075D02*
X609048Y340995D01*
X614045Y349885D02*
X617220Y352425D01*
X617220Y340995D01*
X614045Y340995D02*
X620395Y340995D01*
D12*
X318770Y648970D02*
X316230Y648970D01*
X316230Y633730D01*
X318770Y633730D01*
X379730Y633730D02*
X382270Y633730D01*
X382270Y648970D01*
X379730Y648970D01*
D14*
X361950Y613410D02*
X361950Y610870D01*
X361950Y613410D02*
X336550Y613410D01*
X336550Y610870D01*
X337820Y669290D02*
X361950Y669290D01*
X337820Y669290D02*
X337820Y671830D01*
X361950Y671830D02*
X361950Y669290D01*
D12*
X361950Y671830D02*
X370840Y671830D01*
X336550Y610870D02*
X327660Y610870D01*
X336550Y610870D02*
X361950Y610870D01*
X370840Y610870D01*
X361950Y671830D02*
X337820Y671830D01*
X327660Y671830D01*
X318770Y651510D02*
X318770Y648970D01*
X318770Y633730D02*
X318770Y631190D01*
X379730Y648970D02*
X379730Y651510D01*
X379730Y633730D02*
X379730Y631190D01*
X331470Y641350D02*
X331475Y641786D01*
X331491Y642222D01*
X331518Y642658D01*
X331556Y643093D01*
X331604Y643526D01*
X331662Y643959D01*
X331732Y644390D01*
X331812Y644819D01*
X331902Y645246D01*
X332003Y645670D01*
X332114Y646092D01*
X332236Y646511D01*
X332367Y646927D01*
X332509Y647340D01*
X332661Y647749D01*
X332823Y648154D01*
X332995Y648555D01*
X333177Y648952D01*
X333368Y649344D01*
X333569Y649731D01*
X333780Y650114D01*
X334000Y650491D01*
X334229Y650862D01*
X334466Y651228D01*
X334713Y651588D01*
X334969Y651942D01*
X335233Y652289D01*
X335506Y652630D01*
X335787Y652963D01*
X336076Y653290D01*
X336373Y653610D01*
X336678Y653922D01*
X336990Y654227D01*
X337310Y654524D01*
X337637Y654813D01*
X337970Y655094D01*
X338311Y655367D01*
X338658Y655631D01*
X339012Y655887D01*
X339372Y656134D01*
X339738Y656371D01*
X340109Y656600D01*
X340486Y656820D01*
X340869Y657031D01*
X341256Y657232D01*
X341648Y657423D01*
X342045Y657605D01*
X342446Y657777D01*
X342851Y657939D01*
X343260Y658091D01*
X343673Y658233D01*
X344089Y658364D01*
X344508Y658486D01*
X344930Y658597D01*
X345354Y658698D01*
X345781Y658788D01*
X346210Y658868D01*
X346641Y658938D01*
X347074Y658996D01*
X347507Y659044D01*
X347942Y659082D01*
X348378Y659109D01*
X348814Y659125D01*
X349250Y659130D01*
X349686Y659125D01*
X350122Y659109D01*
X350558Y659082D01*
X350993Y659044D01*
X351426Y658996D01*
X351859Y658938D01*
X352290Y658868D01*
X352719Y658788D01*
X353146Y658698D01*
X353570Y658597D01*
X353992Y658486D01*
X354411Y658364D01*
X354827Y658233D01*
X355240Y658091D01*
X355649Y657939D01*
X356054Y657777D01*
X356455Y657605D01*
X356852Y657423D01*
X357244Y657232D01*
X357631Y657031D01*
X358014Y656820D01*
X358391Y656600D01*
X358762Y656371D01*
X359128Y656134D01*
X359488Y655887D01*
X359842Y655631D01*
X360189Y655367D01*
X360530Y655094D01*
X360863Y654813D01*
X361190Y654524D01*
X361510Y654227D01*
X361822Y653922D01*
X362127Y653610D01*
X362424Y653290D01*
X362713Y652963D01*
X362994Y652630D01*
X363267Y652289D01*
X363531Y651942D01*
X363787Y651588D01*
X364034Y651228D01*
X364271Y650862D01*
X364500Y650491D01*
X364720Y650114D01*
X364931Y649731D01*
X365132Y649344D01*
X365323Y648952D01*
X365505Y648555D01*
X365677Y648154D01*
X365839Y647749D01*
X365991Y647340D01*
X366133Y646927D01*
X366264Y646511D01*
X366386Y646092D01*
X366497Y645670D01*
X366598Y645246D01*
X366688Y644819D01*
X366768Y644390D01*
X366838Y643959D01*
X366896Y643526D01*
X366944Y643093D01*
X366982Y642658D01*
X367009Y642222D01*
X367025Y641786D01*
X367030Y641350D01*
X367025Y640914D01*
X367009Y640478D01*
X366982Y640042D01*
X366944Y639607D01*
X366896Y639174D01*
X366838Y638741D01*
X366768Y638310D01*
X366688Y637881D01*
X366598Y637454D01*
X366497Y637030D01*
X366386Y636608D01*
X366264Y636189D01*
X366133Y635773D01*
X365991Y635360D01*
X365839Y634951D01*
X365677Y634546D01*
X365505Y634145D01*
X365323Y633748D01*
X365132Y633356D01*
X364931Y632969D01*
X364720Y632586D01*
X364500Y632209D01*
X364271Y631838D01*
X364034Y631472D01*
X363787Y631112D01*
X363531Y630758D01*
X363267Y630411D01*
X362994Y630070D01*
X362713Y629737D01*
X362424Y629410D01*
X362127Y629090D01*
X361822Y628778D01*
X361510Y628473D01*
X361190Y628176D01*
X360863Y627887D01*
X360530Y627606D01*
X360189Y627333D01*
X359842Y627069D01*
X359488Y626813D01*
X359128Y626566D01*
X358762Y626329D01*
X358391Y626100D01*
X358014Y625880D01*
X357631Y625669D01*
X357244Y625468D01*
X356852Y625277D01*
X356455Y625095D01*
X356054Y624923D01*
X355649Y624761D01*
X355240Y624609D01*
X354827Y624467D01*
X354411Y624336D01*
X353992Y624214D01*
X353570Y624103D01*
X353146Y624002D01*
X352719Y623912D01*
X352290Y623832D01*
X351859Y623762D01*
X351426Y623704D01*
X350993Y623656D01*
X350558Y623618D01*
X350122Y623591D01*
X349686Y623575D01*
X349250Y623570D01*
X348814Y623575D01*
X348378Y623591D01*
X347942Y623618D01*
X347507Y623656D01*
X347074Y623704D01*
X346641Y623762D01*
X346210Y623832D01*
X345781Y623912D01*
X345354Y624002D01*
X344930Y624103D01*
X344508Y624214D01*
X344089Y624336D01*
X343673Y624467D01*
X343260Y624609D01*
X342851Y624761D01*
X342446Y624923D01*
X342045Y625095D01*
X341648Y625277D01*
X341256Y625468D01*
X340869Y625669D01*
X340486Y625880D01*
X340109Y626100D01*
X339738Y626329D01*
X339372Y626566D01*
X339012Y626813D01*
X338658Y627069D01*
X338311Y627333D01*
X337970Y627606D01*
X337637Y627887D01*
X337310Y628176D01*
X336990Y628473D01*
X336678Y628778D01*
X336373Y629090D01*
X336076Y629410D01*
X335787Y629737D01*
X335506Y630070D01*
X335233Y630411D01*
X334969Y630758D01*
X334713Y631112D01*
X334466Y631472D01*
X334229Y631838D01*
X334000Y632209D01*
X333780Y632586D01*
X333569Y632969D01*
X333368Y633356D01*
X333177Y633748D01*
X332995Y634145D01*
X332823Y634546D01*
X332661Y634951D01*
X332509Y635360D01*
X332367Y635773D01*
X332236Y636189D01*
X332114Y636608D01*
X332003Y637030D01*
X331902Y637454D01*
X331812Y637881D01*
X331732Y638310D01*
X331662Y638741D01*
X331604Y639174D01*
X331556Y639607D01*
X331518Y640042D01*
X331491Y640478D01*
X331475Y640914D01*
X331470Y641350D01*
X346710Y641350D02*
X346712Y641450D01*
X346718Y641551D01*
X346728Y641650D01*
X346742Y641750D01*
X346759Y641849D01*
X346781Y641947D01*
X346807Y642044D01*
X346836Y642140D01*
X346869Y642234D01*
X346906Y642328D01*
X346946Y642420D01*
X346990Y642510D01*
X347038Y642598D01*
X347089Y642685D01*
X347143Y642769D01*
X347201Y642851D01*
X347262Y642931D01*
X347326Y643008D01*
X347393Y643083D01*
X347463Y643155D01*
X347536Y643224D01*
X347611Y643290D01*
X347689Y643354D01*
X347769Y643414D01*
X347852Y643471D01*
X347937Y643524D01*
X348024Y643574D01*
X348113Y643621D01*
X348203Y643664D01*
X348295Y643704D01*
X348389Y643740D01*
X348484Y643772D01*
X348580Y643800D01*
X348678Y643825D01*
X348776Y643845D01*
X348875Y643862D01*
X348975Y643875D01*
X349074Y643884D01*
X349175Y643889D01*
X349275Y643890D01*
X349375Y643887D01*
X349476Y643880D01*
X349575Y643869D01*
X349675Y643854D01*
X349773Y643836D01*
X349871Y643813D01*
X349968Y643786D01*
X350063Y643756D01*
X350158Y643722D01*
X350251Y643684D01*
X350342Y643643D01*
X350432Y643598D01*
X350520Y643550D01*
X350606Y643498D01*
X350690Y643443D01*
X350771Y643384D01*
X350850Y643322D01*
X350927Y643258D01*
X351001Y643190D01*
X351072Y643119D01*
X351141Y643046D01*
X351206Y642970D01*
X351269Y642891D01*
X351328Y642810D01*
X351384Y642727D01*
X351437Y642642D01*
X351486Y642554D01*
X351532Y642465D01*
X351574Y642374D01*
X351613Y642281D01*
X351648Y642187D01*
X351679Y642092D01*
X351707Y641995D01*
X351730Y641898D01*
X351750Y641799D01*
X351766Y641700D01*
X351778Y641601D01*
X351786Y641500D01*
X351790Y641400D01*
X351790Y641300D01*
X351786Y641200D01*
X351778Y641099D01*
X351766Y641000D01*
X351750Y640901D01*
X351730Y640802D01*
X351707Y640705D01*
X351679Y640608D01*
X351648Y640513D01*
X351613Y640419D01*
X351574Y640326D01*
X351532Y640235D01*
X351486Y640146D01*
X351437Y640058D01*
X351384Y639973D01*
X351328Y639890D01*
X351269Y639809D01*
X351206Y639730D01*
X351141Y639654D01*
X351072Y639581D01*
X351001Y639510D01*
X350927Y639442D01*
X350850Y639378D01*
X350771Y639316D01*
X350690Y639257D01*
X350606Y639202D01*
X350520Y639150D01*
X350432Y639102D01*
X350342Y639057D01*
X350251Y639016D01*
X350158Y638978D01*
X350063Y638944D01*
X349968Y638914D01*
X349871Y638887D01*
X349773Y638864D01*
X349675Y638846D01*
X349575Y638831D01*
X349476Y638820D01*
X349375Y638813D01*
X349275Y638810D01*
X349175Y638811D01*
X349074Y638816D01*
X348975Y638825D01*
X348875Y638838D01*
X348776Y638855D01*
X348678Y638875D01*
X348580Y638900D01*
X348484Y638928D01*
X348389Y638960D01*
X348295Y638996D01*
X348203Y639036D01*
X348113Y639079D01*
X348024Y639126D01*
X347937Y639176D01*
X347852Y639229D01*
X347769Y639286D01*
X347689Y639346D01*
X347611Y639410D01*
X347536Y639476D01*
X347463Y639545D01*
X347393Y639617D01*
X347326Y639692D01*
X347262Y639769D01*
X347201Y639849D01*
X347143Y639931D01*
X347089Y640015D01*
X347038Y640102D01*
X346990Y640190D01*
X346946Y640280D01*
X346906Y640372D01*
X346869Y640466D01*
X346836Y640560D01*
X346807Y640656D01*
X346781Y640753D01*
X346759Y640851D01*
X346742Y640950D01*
X346728Y641050D01*
X346718Y641149D01*
X346712Y641250D01*
X346710Y641350D01*
D10*
X368046Y594995D02*
X368044Y594895D01*
X368038Y594796D01*
X368028Y594696D01*
X368015Y594598D01*
X367997Y594499D01*
X367976Y594402D01*
X367951Y594306D01*
X367922Y594210D01*
X367889Y594116D01*
X367853Y594023D01*
X367813Y593932D01*
X367769Y593842D01*
X367722Y593754D01*
X367672Y593668D01*
X367618Y593584D01*
X367561Y593502D01*
X367501Y593423D01*
X367437Y593345D01*
X367371Y593271D01*
X367302Y593199D01*
X367230Y593130D01*
X367156Y593064D01*
X367078Y593000D01*
X366999Y592940D01*
X366917Y592883D01*
X366833Y592829D01*
X366747Y592779D01*
X366659Y592732D01*
X366569Y592688D01*
X366478Y592648D01*
X366385Y592612D01*
X366291Y592579D01*
X366195Y592550D01*
X366099Y592525D01*
X366002Y592504D01*
X365903Y592486D01*
X365805Y592473D01*
X365705Y592463D01*
X365606Y592457D01*
X365506Y592455D01*
X365365Y592457D01*
X365224Y592462D01*
X365083Y592472D01*
X364942Y592485D01*
X364802Y592501D01*
X364662Y592522D01*
X364523Y592546D01*
X364384Y592574D01*
X364247Y592605D01*
X364110Y592640D01*
X363974Y592678D01*
X363839Y592720D01*
X363706Y592766D01*
X363573Y592815D01*
X363442Y592868D01*
X363313Y592924D01*
X363184Y592983D01*
X363058Y593046D01*
X362933Y593112D01*
X362810Y593181D01*
X362689Y593254D01*
X362570Y593330D01*
X362452Y593409D01*
X362337Y593490D01*
X362225Y593575D01*
X362114Y593663D01*
X362006Y593754D01*
X361900Y593847D01*
X361797Y593944D01*
X361696Y594043D01*
X362014Y601345D02*
X362016Y601445D01*
X362022Y601544D01*
X362032Y601644D01*
X362045Y601742D01*
X362063Y601841D01*
X362084Y601938D01*
X362109Y602034D01*
X362138Y602130D01*
X362171Y602224D01*
X362207Y602317D01*
X362247Y602408D01*
X362291Y602498D01*
X362338Y602586D01*
X362388Y602672D01*
X362442Y602756D01*
X362499Y602838D01*
X362559Y602917D01*
X362623Y602995D01*
X362689Y603069D01*
X362758Y603141D01*
X362830Y603210D01*
X362904Y603276D01*
X362982Y603340D01*
X363061Y603400D01*
X363143Y603457D01*
X363227Y603511D01*
X363313Y603561D01*
X363401Y603608D01*
X363491Y603652D01*
X363582Y603692D01*
X363675Y603728D01*
X363769Y603761D01*
X363865Y603790D01*
X363961Y603815D01*
X364058Y603836D01*
X364157Y603854D01*
X364255Y603867D01*
X364355Y603877D01*
X364454Y603883D01*
X364554Y603885D01*
X364554Y603886D02*
X364687Y603884D01*
X364820Y603879D01*
X364953Y603869D01*
X365086Y603856D01*
X365218Y603839D01*
X365350Y603819D01*
X365481Y603795D01*
X365611Y603767D01*
X365741Y603736D01*
X365869Y603701D01*
X365997Y603662D01*
X366123Y603620D01*
X366248Y603574D01*
X366372Y603525D01*
X366495Y603473D01*
X366616Y603417D01*
X366735Y603357D01*
X366853Y603295D01*
X366968Y603229D01*
X367082Y603160D01*
X367194Y603087D01*
X367304Y603012D01*
X367412Y602933D01*
X363283Y599122D02*
X363199Y599174D01*
X363116Y599229D01*
X363036Y599288D01*
X362958Y599349D01*
X362883Y599413D01*
X362810Y599481D01*
X362739Y599551D01*
X362672Y599623D01*
X362607Y599698D01*
X362545Y599776D01*
X362486Y599856D01*
X362430Y599938D01*
X362378Y600022D01*
X362329Y600108D01*
X362283Y600196D01*
X362240Y600286D01*
X362201Y600377D01*
X362166Y600470D01*
X362134Y600564D01*
X362106Y600659D01*
X362081Y600755D01*
X362061Y600852D01*
X362043Y600950D01*
X362030Y601048D01*
X362021Y601147D01*
X362015Y601246D01*
X362013Y601345D01*
X366776Y597218D02*
X366860Y597166D01*
X366943Y597111D01*
X367023Y597052D01*
X367101Y596991D01*
X367176Y596927D01*
X367249Y596859D01*
X367320Y596789D01*
X367387Y596717D01*
X367452Y596642D01*
X367514Y596564D01*
X367573Y596484D01*
X367629Y596402D01*
X367681Y596318D01*
X367730Y596232D01*
X367776Y596144D01*
X367819Y596054D01*
X367858Y595963D01*
X367893Y595870D01*
X367925Y595776D01*
X367953Y595681D01*
X367978Y595585D01*
X367998Y595488D01*
X368016Y595390D01*
X368029Y595292D01*
X368038Y595193D01*
X368044Y595094D01*
X368046Y594995D01*
X366776Y597218D02*
X363284Y599123D01*
X372745Y601345D02*
X375920Y603885D01*
X375920Y592455D01*
X372745Y592455D02*
X379095Y592455D01*
D12*
X532130Y648970D02*
X534670Y648970D01*
X532130Y648970D02*
X532130Y633730D01*
X534670Y633730D01*
X595630Y633730D02*
X598170Y633730D01*
X598170Y648970D01*
X595630Y648970D01*
D14*
X577850Y613410D02*
X577850Y610870D01*
X577850Y613410D02*
X552450Y613410D01*
X552450Y610870D01*
X553720Y669290D02*
X577850Y669290D01*
X553720Y669290D02*
X553720Y671830D01*
X577850Y671830D02*
X577850Y669290D01*
D12*
X577850Y671830D02*
X586740Y671830D01*
X552450Y610870D02*
X543560Y610870D01*
X552450Y610870D02*
X577850Y610870D01*
X586740Y610870D01*
X577850Y671830D02*
X553720Y671830D01*
X543560Y671830D01*
X534670Y651510D02*
X534670Y648970D01*
X534670Y633730D02*
X534670Y631190D01*
X595630Y648970D02*
X595630Y651510D01*
X595630Y633730D02*
X595630Y631190D01*
X547370Y641350D02*
X547375Y641786D01*
X547391Y642222D01*
X547418Y642658D01*
X547456Y643093D01*
X547504Y643526D01*
X547562Y643959D01*
X547632Y644390D01*
X547712Y644819D01*
X547802Y645246D01*
X547903Y645670D01*
X548014Y646092D01*
X548136Y646511D01*
X548267Y646927D01*
X548409Y647340D01*
X548561Y647749D01*
X548723Y648154D01*
X548895Y648555D01*
X549077Y648952D01*
X549268Y649344D01*
X549469Y649731D01*
X549680Y650114D01*
X549900Y650491D01*
X550129Y650862D01*
X550366Y651228D01*
X550613Y651588D01*
X550869Y651942D01*
X551133Y652289D01*
X551406Y652630D01*
X551687Y652963D01*
X551976Y653290D01*
X552273Y653610D01*
X552578Y653922D01*
X552890Y654227D01*
X553210Y654524D01*
X553537Y654813D01*
X553870Y655094D01*
X554211Y655367D01*
X554558Y655631D01*
X554912Y655887D01*
X555272Y656134D01*
X555638Y656371D01*
X556009Y656600D01*
X556386Y656820D01*
X556769Y657031D01*
X557156Y657232D01*
X557548Y657423D01*
X557945Y657605D01*
X558346Y657777D01*
X558751Y657939D01*
X559160Y658091D01*
X559573Y658233D01*
X559989Y658364D01*
X560408Y658486D01*
X560830Y658597D01*
X561254Y658698D01*
X561681Y658788D01*
X562110Y658868D01*
X562541Y658938D01*
X562974Y658996D01*
X563407Y659044D01*
X563842Y659082D01*
X564278Y659109D01*
X564714Y659125D01*
X565150Y659130D01*
X565586Y659125D01*
X566022Y659109D01*
X566458Y659082D01*
X566893Y659044D01*
X567326Y658996D01*
X567759Y658938D01*
X568190Y658868D01*
X568619Y658788D01*
X569046Y658698D01*
X569470Y658597D01*
X569892Y658486D01*
X570311Y658364D01*
X570727Y658233D01*
X571140Y658091D01*
X571549Y657939D01*
X571954Y657777D01*
X572355Y657605D01*
X572752Y657423D01*
X573144Y657232D01*
X573531Y657031D01*
X573914Y656820D01*
X574291Y656600D01*
X574662Y656371D01*
X575028Y656134D01*
X575388Y655887D01*
X575742Y655631D01*
X576089Y655367D01*
X576430Y655094D01*
X576763Y654813D01*
X577090Y654524D01*
X577410Y654227D01*
X577722Y653922D01*
X578027Y653610D01*
X578324Y653290D01*
X578613Y652963D01*
X578894Y652630D01*
X579167Y652289D01*
X579431Y651942D01*
X579687Y651588D01*
X579934Y651228D01*
X580171Y650862D01*
X580400Y650491D01*
X580620Y650114D01*
X580831Y649731D01*
X581032Y649344D01*
X581223Y648952D01*
X581405Y648555D01*
X581577Y648154D01*
X581739Y647749D01*
X581891Y647340D01*
X582033Y646927D01*
X582164Y646511D01*
X582286Y646092D01*
X582397Y645670D01*
X582498Y645246D01*
X582588Y644819D01*
X582668Y644390D01*
X582738Y643959D01*
X582796Y643526D01*
X582844Y643093D01*
X582882Y642658D01*
X582909Y642222D01*
X582925Y641786D01*
X582930Y641350D01*
X582925Y640914D01*
X582909Y640478D01*
X582882Y640042D01*
X582844Y639607D01*
X582796Y639174D01*
X582738Y638741D01*
X582668Y638310D01*
X582588Y637881D01*
X582498Y637454D01*
X582397Y637030D01*
X582286Y636608D01*
X582164Y636189D01*
X582033Y635773D01*
X581891Y635360D01*
X581739Y634951D01*
X581577Y634546D01*
X581405Y634145D01*
X581223Y633748D01*
X581032Y633356D01*
X580831Y632969D01*
X580620Y632586D01*
X580400Y632209D01*
X580171Y631838D01*
X579934Y631472D01*
X579687Y631112D01*
X579431Y630758D01*
X579167Y630411D01*
X578894Y630070D01*
X578613Y629737D01*
X578324Y629410D01*
X578027Y629090D01*
X577722Y628778D01*
X577410Y628473D01*
X577090Y628176D01*
X576763Y627887D01*
X576430Y627606D01*
X576089Y627333D01*
X575742Y627069D01*
X575388Y626813D01*
X575028Y626566D01*
X574662Y626329D01*
X574291Y626100D01*
X573914Y625880D01*
X573531Y625669D01*
X573144Y625468D01*
X572752Y625277D01*
X572355Y625095D01*
X571954Y624923D01*
X571549Y624761D01*
X571140Y624609D01*
X570727Y624467D01*
X570311Y624336D01*
X569892Y624214D01*
X569470Y624103D01*
X569046Y624002D01*
X568619Y623912D01*
X568190Y623832D01*
X567759Y623762D01*
X567326Y623704D01*
X566893Y623656D01*
X566458Y623618D01*
X566022Y623591D01*
X565586Y623575D01*
X565150Y623570D01*
X564714Y623575D01*
X564278Y623591D01*
X563842Y623618D01*
X563407Y623656D01*
X562974Y623704D01*
X562541Y623762D01*
X562110Y623832D01*
X561681Y623912D01*
X561254Y624002D01*
X560830Y624103D01*
X560408Y624214D01*
X559989Y624336D01*
X559573Y624467D01*
X559160Y624609D01*
X558751Y624761D01*
X558346Y624923D01*
X557945Y625095D01*
X557548Y625277D01*
X557156Y625468D01*
X556769Y625669D01*
X556386Y625880D01*
X556009Y626100D01*
X555638Y626329D01*
X555272Y626566D01*
X554912Y626813D01*
X554558Y627069D01*
X554211Y627333D01*
X553870Y627606D01*
X553537Y627887D01*
X553210Y628176D01*
X552890Y628473D01*
X552578Y628778D01*
X552273Y629090D01*
X551976Y629410D01*
X551687Y629737D01*
X551406Y630070D01*
X551133Y630411D01*
X550869Y630758D01*
X550613Y631112D01*
X550366Y631472D01*
X550129Y631838D01*
X549900Y632209D01*
X549680Y632586D01*
X549469Y632969D01*
X549268Y633356D01*
X549077Y633748D01*
X548895Y634145D01*
X548723Y634546D01*
X548561Y634951D01*
X548409Y635360D01*
X548267Y635773D01*
X548136Y636189D01*
X548014Y636608D01*
X547903Y637030D01*
X547802Y637454D01*
X547712Y637881D01*
X547632Y638310D01*
X547562Y638741D01*
X547504Y639174D01*
X547456Y639607D01*
X547418Y640042D01*
X547391Y640478D01*
X547375Y640914D01*
X547370Y641350D01*
X562610Y641350D02*
X562612Y641450D01*
X562618Y641551D01*
X562628Y641650D01*
X562642Y641750D01*
X562659Y641849D01*
X562681Y641947D01*
X562707Y642044D01*
X562736Y642140D01*
X562769Y642234D01*
X562806Y642328D01*
X562846Y642420D01*
X562890Y642510D01*
X562938Y642598D01*
X562989Y642685D01*
X563043Y642769D01*
X563101Y642851D01*
X563162Y642931D01*
X563226Y643008D01*
X563293Y643083D01*
X563363Y643155D01*
X563436Y643224D01*
X563511Y643290D01*
X563589Y643354D01*
X563669Y643414D01*
X563752Y643471D01*
X563837Y643524D01*
X563924Y643574D01*
X564013Y643621D01*
X564103Y643664D01*
X564195Y643704D01*
X564289Y643740D01*
X564384Y643772D01*
X564480Y643800D01*
X564578Y643825D01*
X564676Y643845D01*
X564775Y643862D01*
X564875Y643875D01*
X564974Y643884D01*
X565075Y643889D01*
X565175Y643890D01*
X565275Y643887D01*
X565376Y643880D01*
X565475Y643869D01*
X565575Y643854D01*
X565673Y643836D01*
X565771Y643813D01*
X565868Y643786D01*
X565963Y643756D01*
X566058Y643722D01*
X566151Y643684D01*
X566242Y643643D01*
X566332Y643598D01*
X566420Y643550D01*
X566506Y643498D01*
X566590Y643443D01*
X566671Y643384D01*
X566750Y643322D01*
X566827Y643258D01*
X566901Y643190D01*
X566972Y643119D01*
X567041Y643046D01*
X567106Y642970D01*
X567169Y642891D01*
X567228Y642810D01*
X567284Y642727D01*
X567337Y642642D01*
X567386Y642554D01*
X567432Y642465D01*
X567474Y642374D01*
X567513Y642281D01*
X567548Y642187D01*
X567579Y642092D01*
X567607Y641995D01*
X567630Y641898D01*
X567650Y641799D01*
X567666Y641700D01*
X567678Y641601D01*
X567686Y641500D01*
X567690Y641400D01*
X567690Y641300D01*
X567686Y641200D01*
X567678Y641099D01*
X567666Y641000D01*
X567650Y640901D01*
X567630Y640802D01*
X567607Y640705D01*
X567579Y640608D01*
X567548Y640513D01*
X567513Y640419D01*
X567474Y640326D01*
X567432Y640235D01*
X567386Y640146D01*
X567337Y640058D01*
X567284Y639973D01*
X567228Y639890D01*
X567169Y639809D01*
X567106Y639730D01*
X567041Y639654D01*
X566972Y639581D01*
X566901Y639510D01*
X566827Y639442D01*
X566750Y639378D01*
X566671Y639316D01*
X566590Y639257D01*
X566506Y639202D01*
X566420Y639150D01*
X566332Y639102D01*
X566242Y639057D01*
X566151Y639016D01*
X566058Y638978D01*
X565963Y638944D01*
X565868Y638914D01*
X565771Y638887D01*
X565673Y638864D01*
X565575Y638846D01*
X565475Y638831D01*
X565376Y638820D01*
X565275Y638813D01*
X565175Y638810D01*
X565075Y638811D01*
X564974Y638816D01*
X564875Y638825D01*
X564775Y638838D01*
X564676Y638855D01*
X564578Y638875D01*
X564480Y638900D01*
X564384Y638928D01*
X564289Y638960D01*
X564195Y638996D01*
X564103Y639036D01*
X564013Y639079D01*
X563924Y639126D01*
X563837Y639176D01*
X563752Y639229D01*
X563669Y639286D01*
X563589Y639346D01*
X563511Y639410D01*
X563436Y639476D01*
X563363Y639545D01*
X563293Y639617D01*
X563226Y639692D01*
X563162Y639769D01*
X563101Y639849D01*
X563043Y639931D01*
X562989Y640015D01*
X562938Y640102D01*
X562890Y640190D01*
X562846Y640280D01*
X562806Y640372D01*
X562769Y640466D01*
X562736Y640560D01*
X562707Y640656D01*
X562681Y640753D01*
X562659Y640851D01*
X562642Y640950D01*
X562628Y641050D01*
X562618Y641149D01*
X562612Y641250D01*
X562610Y641350D01*
D10*
X583946Y594995D02*
X583944Y594895D01*
X583938Y594796D01*
X583928Y594696D01*
X583915Y594598D01*
X583897Y594499D01*
X583876Y594402D01*
X583851Y594306D01*
X583822Y594210D01*
X583789Y594116D01*
X583753Y594023D01*
X583713Y593932D01*
X583669Y593842D01*
X583622Y593754D01*
X583572Y593668D01*
X583518Y593584D01*
X583461Y593502D01*
X583401Y593423D01*
X583337Y593345D01*
X583271Y593271D01*
X583202Y593199D01*
X583130Y593130D01*
X583056Y593064D01*
X582978Y593000D01*
X582899Y592940D01*
X582817Y592883D01*
X582733Y592829D01*
X582647Y592779D01*
X582559Y592732D01*
X582469Y592688D01*
X582378Y592648D01*
X582285Y592612D01*
X582191Y592579D01*
X582095Y592550D01*
X581999Y592525D01*
X581902Y592504D01*
X581803Y592486D01*
X581705Y592473D01*
X581605Y592463D01*
X581506Y592457D01*
X581406Y592455D01*
X581265Y592457D01*
X581124Y592462D01*
X580983Y592472D01*
X580842Y592485D01*
X580702Y592501D01*
X580562Y592522D01*
X580423Y592546D01*
X580284Y592574D01*
X580147Y592605D01*
X580010Y592640D01*
X579874Y592678D01*
X579739Y592720D01*
X579606Y592766D01*
X579473Y592815D01*
X579342Y592868D01*
X579213Y592924D01*
X579084Y592983D01*
X578958Y593046D01*
X578833Y593112D01*
X578710Y593181D01*
X578589Y593254D01*
X578470Y593330D01*
X578352Y593409D01*
X578237Y593490D01*
X578125Y593575D01*
X578014Y593663D01*
X577906Y593754D01*
X577800Y593847D01*
X577697Y593944D01*
X577596Y594043D01*
X577914Y601345D02*
X577916Y601445D01*
X577922Y601544D01*
X577932Y601644D01*
X577945Y601742D01*
X577963Y601841D01*
X577984Y601938D01*
X578009Y602034D01*
X578038Y602130D01*
X578071Y602224D01*
X578107Y602317D01*
X578147Y602408D01*
X578191Y602498D01*
X578238Y602586D01*
X578288Y602672D01*
X578342Y602756D01*
X578399Y602838D01*
X578459Y602917D01*
X578523Y602995D01*
X578589Y603069D01*
X578658Y603141D01*
X578730Y603210D01*
X578804Y603276D01*
X578882Y603340D01*
X578961Y603400D01*
X579043Y603457D01*
X579127Y603511D01*
X579213Y603561D01*
X579301Y603608D01*
X579391Y603652D01*
X579482Y603692D01*
X579575Y603728D01*
X579669Y603761D01*
X579765Y603790D01*
X579861Y603815D01*
X579958Y603836D01*
X580057Y603854D01*
X580155Y603867D01*
X580255Y603877D01*
X580354Y603883D01*
X580454Y603885D01*
X580454Y603886D02*
X580587Y603884D01*
X580720Y603879D01*
X580853Y603869D01*
X580986Y603856D01*
X581118Y603839D01*
X581250Y603819D01*
X581381Y603795D01*
X581511Y603767D01*
X581641Y603736D01*
X581769Y603701D01*
X581897Y603662D01*
X582023Y603620D01*
X582148Y603574D01*
X582272Y603525D01*
X582395Y603473D01*
X582516Y603417D01*
X582635Y603357D01*
X582753Y603295D01*
X582868Y603229D01*
X582982Y603160D01*
X583094Y603087D01*
X583204Y603012D01*
X583312Y602933D01*
X579183Y599122D02*
X579099Y599174D01*
X579016Y599229D01*
X578936Y599288D01*
X578858Y599349D01*
X578783Y599413D01*
X578710Y599481D01*
X578639Y599551D01*
X578572Y599623D01*
X578507Y599698D01*
X578445Y599776D01*
X578386Y599856D01*
X578330Y599938D01*
X578278Y600022D01*
X578229Y600108D01*
X578183Y600196D01*
X578140Y600286D01*
X578101Y600377D01*
X578066Y600470D01*
X578034Y600564D01*
X578006Y600659D01*
X577981Y600755D01*
X577961Y600852D01*
X577943Y600950D01*
X577930Y601048D01*
X577921Y601147D01*
X577915Y601246D01*
X577913Y601345D01*
X582676Y597218D02*
X582760Y597166D01*
X582843Y597111D01*
X582923Y597052D01*
X583001Y596991D01*
X583076Y596927D01*
X583149Y596859D01*
X583220Y596789D01*
X583287Y596717D01*
X583352Y596642D01*
X583414Y596564D01*
X583473Y596484D01*
X583529Y596402D01*
X583581Y596318D01*
X583630Y596232D01*
X583676Y596144D01*
X583719Y596054D01*
X583758Y595963D01*
X583793Y595870D01*
X583825Y595776D01*
X583853Y595681D01*
X583878Y595585D01*
X583898Y595488D01*
X583916Y595390D01*
X583929Y595292D01*
X583938Y595193D01*
X583944Y595094D01*
X583946Y594995D01*
X582676Y597218D02*
X579184Y599123D01*
X592138Y603886D02*
X592242Y603884D01*
X592347Y603878D01*
X592451Y603869D01*
X592554Y603856D01*
X592657Y603838D01*
X592759Y603818D01*
X592861Y603793D01*
X592961Y603765D01*
X593061Y603733D01*
X593159Y603697D01*
X593256Y603658D01*
X593351Y603616D01*
X593445Y603570D01*
X593537Y603520D01*
X593627Y603468D01*
X593715Y603412D01*
X593801Y603352D01*
X593885Y603290D01*
X593966Y603225D01*
X594045Y603157D01*
X594122Y603085D01*
X594195Y603012D01*
X594267Y602935D01*
X594335Y602856D01*
X594400Y602775D01*
X594462Y602691D01*
X594522Y602605D01*
X594578Y602517D01*
X594630Y602427D01*
X594680Y602335D01*
X594726Y602241D01*
X594768Y602146D01*
X594807Y602049D01*
X594843Y601951D01*
X594875Y601851D01*
X594903Y601751D01*
X594928Y601649D01*
X594948Y601547D01*
X594966Y601444D01*
X594979Y601341D01*
X594988Y601237D01*
X594994Y601132D01*
X594996Y601028D01*
X592138Y603885D02*
X592020Y603883D01*
X591901Y603877D01*
X591783Y603868D01*
X591666Y603855D01*
X591549Y603837D01*
X591432Y603817D01*
X591316Y603792D01*
X591201Y603764D01*
X591088Y603731D01*
X590975Y603696D01*
X590863Y603656D01*
X590753Y603614D01*
X590644Y603567D01*
X590536Y603517D01*
X590431Y603464D01*
X590327Y603407D01*
X590225Y603347D01*
X590125Y603284D01*
X590027Y603217D01*
X589931Y603148D01*
X589838Y603075D01*
X589747Y602999D01*
X589658Y602921D01*
X589572Y602839D01*
X589489Y602755D01*
X589408Y602669D01*
X589331Y602579D01*
X589256Y602488D01*
X589184Y602394D01*
X589115Y602297D01*
X589050Y602199D01*
X588987Y602098D01*
X588928Y601995D01*
X588872Y601891D01*
X588820Y601785D01*
X588771Y601677D01*
X588726Y601568D01*
X588684Y601457D01*
X588646Y601345D01*
X594043Y598806D02*
X594119Y598881D01*
X594194Y598960D01*
X594265Y599041D01*
X594334Y599125D01*
X594399Y599211D01*
X594461Y599299D01*
X594521Y599389D01*
X594577Y599481D01*
X594630Y599576D01*
X594679Y599672D01*
X594725Y599770D01*
X594768Y599869D01*
X594807Y599970D01*
X594842Y600072D01*
X594874Y600175D01*
X594902Y600279D01*
X594927Y600384D01*
X594948Y600491D01*
X594965Y600597D01*
X594978Y600704D01*
X594987Y600812D01*
X594993Y600920D01*
X594995Y601028D01*
X594043Y598805D02*
X588645Y592455D01*
X594995Y592455D01*
D12*
X115570Y648970D02*
X113030Y648970D01*
X113030Y633730D01*
X115570Y633730D01*
X176530Y633730D02*
X179070Y633730D01*
X179070Y648970D01*
X176530Y648970D01*
D14*
X158750Y613410D02*
X158750Y610870D01*
X158750Y613410D02*
X133350Y613410D01*
X133350Y610870D01*
X134620Y669290D02*
X158750Y669290D01*
X134620Y669290D02*
X134620Y671830D01*
X158750Y671830D02*
X158750Y669290D01*
D12*
X158750Y671830D02*
X167640Y671830D01*
X133350Y610870D02*
X124460Y610870D01*
X133350Y610870D02*
X158750Y610870D01*
X167640Y610870D01*
X158750Y671830D02*
X134620Y671830D01*
X124460Y671830D01*
X115570Y651510D02*
X115570Y648970D01*
X115570Y633730D02*
X115570Y631190D01*
X176530Y648970D02*
X176530Y651510D01*
X176530Y633730D02*
X176530Y631190D01*
X128270Y641350D02*
X128275Y641786D01*
X128291Y642222D01*
X128318Y642658D01*
X128356Y643093D01*
X128404Y643526D01*
X128462Y643959D01*
X128532Y644390D01*
X128612Y644819D01*
X128702Y645246D01*
X128803Y645670D01*
X128914Y646092D01*
X129036Y646511D01*
X129167Y646927D01*
X129309Y647340D01*
X129461Y647749D01*
X129623Y648154D01*
X129795Y648555D01*
X129977Y648952D01*
X130168Y649344D01*
X130369Y649731D01*
X130580Y650114D01*
X130800Y650491D01*
X131029Y650862D01*
X131266Y651228D01*
X131513Y651588D01*
X131769Y651942D01*
X132033Y652289D01*
X132306Y652630D01*
X132587Y652963D01*
X132876Y653290D01*
X133173Y653610D01*
X133478Y653922D01*
X133790Y654227D01*
X134110Y654524D01*
X134437Y654813D01*
X134770Y655094D01*
X135111Y655367D01*
X135458Y655631D01*
X135812Y655887D01*
X136172Y656134D01*
X136538Y656371D01*
X136909Y656600D01*
X137286Y656820D01*
X137669Y657031D01*
X138056Y657232D01*
X138448Y657423D01*
X138845Y657605D01*
X139246Y657777D01*
X139651Y657939D01*
X140060Y658091D01*
X140473Y658233D01*
X140889Y658364D01*
X141308Y658486D01*
X141730Y658597D01*
X142154Y658698D01*
X142581Y658788D01*
X143010Y658868D01*
X143441Y658938D01*
X143874Y658996D01*
X144307Y659044D01*
X144742Y659082D01*
X145178Y659109D01*
X145614Y659125D01*
X146050Y659130D01*
X146486Y659125D01*
X146922Y659109D01*
X147358Y659082D01*
X147793Y659044D01*
X148226Y658996D01*
X148659Y658938D01*
X149090Y658868D01*
X149519Y658788D01*
X149946Y658698D01*
X150370Y658597D01*
X150792Y658486D01*
X151211Y658364D01*
X151627Y658233D01*
X152040Y658091D01*
X152449Y657939D01*
X152854Y657777D01*
X153255Y657605D01*
X153652Y657423D01*
X154044Y657232D01*
X154431Y657031D01*
X154814Y656820D01*
X155191Y656600D01*
X155562Y656371D01*
X155928Y656134D01*
X156288Y655887D01*
X156642Y655631D01*
X156989Y655367D01*
X157330Y655094D01*
X157663Y654813D01*
X157990Y654524D01*
X158310Y654227D01*
X158622Y653922D01*
X158927Y653610D01*
X159224Y653290D01*
X159513Y652963D01*
X159794Y652630D01*
X160067Y652289D01*
X160331Y651942D01*
X160587Y651588D01*
X160834Y651228D01*
X161071Y650862D01*
X161300Y650491D01*
X161520Y650114D01*
X161731Y649731D01*
X161932Y649344D01*
X162123Y648952D01*
X162305Y648555D01*
X162477Y648154D01*
X162639Y647749D01*
X162791Y647340D01*
X162933Y646927D01*
X163064Y646511D01*
X163186Y646092D01*
X163297Y645670D01*
X163398Y645246D01*
X163488Y644819D01*
X163568Y644390D01*
X163638Y643959D01*
X163696Y643526D01*
X163744Y643093D01*
X163782Y642658D01*
X163809Y642222D01*
X163825Y641786D01*
X163830Y641350D01*
X163825Y640914D01*
X163809Y640478D01*
X163782Y640042D01*
X163744Y639607D01*
X163696Y639174D01*
X163638Y638741D01*
X163568Y638310D01*
X163488Y637881D01*
X163398Y637454D01*
X163297Y637030D01*
X163186Y636608D01*
X163064Y636189D01*
X162933Y635773D01*
X162791Y635360D01*
X162639Y634951D01*
X162477Y634546D01*
X162305Y634145D01*
X162123Y633748D01*
X161932Y633356D01*
X161731Y632969D01*
X161520Y632586D01*
X161300Y632209D01*
X161071Y631838D01*
X160834Y631472D01*
X160587Y631112D01*
X160331Y630758D01*
X160067Y630411D01*
X159794Y630070D01*
X159513Y629737D01*
X159224Y629410D01*
X158927Y629090D01*
X158622Y628778D01*
X158310Y628473D01*
X157990Y628176D01*
X157663Y627887D01*
X157330Y627606D01*
X156989Y627333D01*
X156642Y627069D01*
X156288Y626813D01*
X155928Y626566D01*
X155562Y626329D01*
X155191Y626100D01*
X154814Y625880D01*
X154431Y625669D01*
X154044Y625468D01*
X153652Y625277D01*
X153255Y625095D01*
X152854Y624923D01*
X152449Y624761D01*
X152040Y624609D01*
X151627Y624467D01*
X151211Y624336D01*
X150792Y624214D01*
X150370Y624103D01*
X149946Y624002D01*
X149519Y623912D01*
X149090Y623832D01*
X148659Y623762D01*
X148226Y623704D01*
X147793Y623656D01*
X147358Y623618D01*
X146922Y623591D01*
X146486Y623575D01*
X146050Y623570D01*
X145614Y623575D01*
X145178Y623591D01*
X144742Y623618D01*
X144307Y623656D01*
X143874Y623704D01*
X143441Y623762D01*
X143010Y623832D01*
X142581Y623912D01*
X142154Y624002D01*
X141730Y624103D01*
X141308Y624214D01*
X140889Y624336D01*
X140473Y624467D01*
X140060Y624609D01*
X139651Y624761D01*
X139246Y624923D01*
X138845Y625095D01*
X138448Y625277D01*
X138056Y625468D01*
X137669Y625669D01*
X137286Y625880D01*
X136909Y626100D01*
X136538Y626329D01*
X136172Y626566D01*
X135812Y626813D01*
X135458Y627069D01*
X135111Y627333D01*
X134770Y627606D01*
X134437Y627887D01*
X134110Y628176D01*
X133790Y628473D01*
X133478Y628778D01*
X133173Y629090D01*
X132876Y629410D01*
X132587Y629737D01*
X132306Y630070D01*
X132033Y630411D01*
X131769Y630758D01*
X131513Y631112D01*
X131266Y631472D01*
X131029Y631838D01*
X130800Y632209D01*
X130580Y632586D01*
X130369Y632969D01*
X130168Y633356D01*
X129977Y633748D01*
X129795Y634145D01*
X129623Y634546D01*
X129461Y634951D01*
X129309Y635360D01*
X129167Y635773D01*
X129036Y636189D01*
X128914Y636608D01*
X128803Y637030D01*
X128702Y637454D01*
X128612Y637881D01*
X128532Y638310D01*
X128462Y638741D01*
X128404Y639174D01*
X128356Y639607D01*
X128318Y640042D01*
X128291Y640478D01*
X128275Y640914D01*
X128270Y641350D01*
X143510Y641350D02*
X143512Y641450D01*
X143518Y641551D01*
X143528Y641650D01*
X143542Y641750D01*
X143559Y641849D01*
X143581Y641947D01*
X143607Y642044D01*
X143636Y642140D01*
X143669Y642234D01*
X143706Y642328D01*
X143746Y642420D01*
X143790Y642510D01*
X143838Y642598D01*
X143889Y642685D01*
X143943Y642769D01*
X144001Y642851D01*
X144062Y642931D01*
X144126Y643008D01*
X144193Y643083D01*
X144263Y643155D01*
X144336Y643224D01*
X144411Y643290D01*
X144489Y643354D01*
X144569Y643414D01*
X144652Y643471D01*
X144737Y643524D01*
X144824Y643574D01*
X144913Y643621D01*
X145003Y643664D01*
X145095Y643704D01*
X145189Y643740D01*
X145284Y643772D01*
X145380Y643800D01*
X145478Y643825D01*
X145576Y643845D01*
X145675Y643862D01*
X145775Y643875D01*
X145874Y643884D01*
X145975Y643889D01*
X146075Y643890D01*
X146175Y643887D01*
X146276Y643880D01*
X146375Y643869D01*
X146475Y643854D01*
X146573Y643836D01*
X146671Y643813D01*
X146768Y643786D01*
X146863Y643756D01*
X146958Y643722D01*
X147051Y643684D01*
X147142Y643643D01*
X147232Y643598D01*
X147320Y643550D01*
X147406Y643498D01*
X147490Y643443D01*
X147571Y643384D01*
X147650Y643322D01*
X147727Y643258D01*
X147801Y643190D01*
X147872Y643119D01*
X147941Y643046D01*
X148006Y642970D01*
X148069Y642891D01*
X148128Y642810D01*
X148184Y642727D01*
X148237Y642642D01*
X148286Y642554D01*
X148332Y642465D01*
X148374Y642374D01*
X148413Y642281D01*
X148448Y642187D01*
X148479Y642092D01*
X148507Y641995D01*
X148530Y641898D01*
X148550Y641799D01*
X148566Y641700D01*
X148578Y641601D01*
X148586Y641500D01*
X148590Y641400D01*
X148590Y641300D01*
X148586Y641200D01*
X148578Y641099D01*
X148566Y641000D01*
X148550Y640901D01*
X148530Y640802D01*
X148507Y640705D01*
X148479Y640608D01*
X148448Y640513D01*
X148413Y640419D01*
X148374Y640326D01*
X148332Y640235D01*
X148286Y640146D01*
X148237Y640058D01*
X148184Y639973D01*
X148128Y639890D01*
X148069Y639809D01*
X148006Y639730D01*
X147941Y639654D01*
X147872Y639581D01*
X147801Y639510D01*
X147727Y639442D01*
X147650Y639378D01*
X147571Y639316D01*
X147490Y639257D01*
X147406Y639202D01*
X147320Y639150D01*
X147232Y639102D01*
X147142Y639057D01*
X147051Y639016D01*
X146958Y638978D01*
X146863Y638944D01*
X146768Y638914D01*
X146671Y638887D01*
X146573Y638864D01*
X146475Y638846D01*
X146375Y638831D01*
X146276Y638820D01*
X146175Y638813D01*
X146075Y638810D01*
X145975Y638811D01*
X145874Y638816D01*
X145775Y638825D01*
X145675Y638838D01*
X145576Y638855D01*
X145478Y638875D01*
X145380Y638900D01*
X145284Y638928D01*
X145189Y638960D01*
X145095Y638996D01*
X145003Y639036D01*
X144913Y639079D01*
X144824Y639126D01*
X144737Y639176D01*
X144652Y639229D01*
X144569Y639286D01*
X144489Y639346D01*
X144411Y639410D01*
X144336Y639476D01*
X144263Y639545D01*
X144193Y639617D01*
X144126Y639692D01*
X144062Y639769D01*
X144001Y639849D01*
X143943Y639931D01*
X143889Y640015D01*
X143838Y640102D01*
X143790Y640190D01*
X143746Y640280D01*
X143706Y640372D01*
X143669Y640466D01*
X143636Y640560D01*
X143607Y640656D01*
X143581Y640753D01*
X143559Y640851D01*
X143542Y640950D01*
X143528Y641050D01*
X143518Y641149D01*
X143512Y641250D01*
X143510Y641350D01*
D10*
X164846Y594995D02*
X164844Y594895D01*
X164838Y594796D01*
X164828Y594696D01*
X164815Y594598D01*
X164797Y594499D01*
X164776Y594402D01*
X164751Y594306D01*
X164722Y594210D01*
X164689Y594116D01*
X164653Y594023D01*
X164613Y593932D01*
X164569Y593842D01*
X164522Y593754D01*
X164472Y593668D01*
X164418Y593584D01*
X164361Y593502D01*
X164301Y593423D01*
X164237Y593345D01*
X164171Y593271D01*
X164102Y593199D01*
X164030Y593130D01*
X163956Y593064D01*
X163878Y593000D01*
X163799Y592940D01*
X163717Y592883D01*
X163633Y592829D01*
X163547Y592779D01*
X163459Y592732D01*
X163369Y592688D01*
X163278Y592648D01*
X163185Y592612D01*
X163091Y592579D01*
X162995Y592550D01*
X162899Y592525D01*
X162802Y592504D01*
X162703Y592486D01*
X162605Y592473D01*
X162505Y592463D01*
X162406Y592457D01*
X162306Y592455D01*
X162165Y592457D01*
X162024Y592462D01*
X161883Y592472D01*
X161742Y592485D01*
X161602Y592501D01*
X161462Y592522D01*
X161323Y592546D01*
X161184Y592574D01*
X161047Y592605D01*
X160910Y592640D01*
X160774Y592678D01*
X160639Y592720D01*
X160506Y592766D01*
X160373Y592815D01*
X160242Y592868D01*
X160113Y592924D01*
X159984Y592983D01*
X159858Y593046D01*
X159733Y593112D01*
X159610Y593181D01*
X159489Y593254D01*
X159370Y593330D01*
X159252Y593409D01*
X159137Y593490D01*
X159025Y593575D01*
X158914Y593663D01*
X158806Y593754D01*
X158700Y593847D01*
X158597Y593944D01*
X158496Y594043D01*
X158814Y601345D02*
X158816Y601445D01*
X158822Y601544D01*
X158832Y601644D01*
X158845Y601742D01*
X158863Y601841D01*
X158884Y601938D01*
X158909Y602034D01*
X158938Y602130D01*
X158971Y602224D01*
X159007Y602317D01*
X159047Y602408D01*
X159091Y602498D01*
X159138Y602586D01*
X159188Y602672D01*
X159242Y602756D01*
X159299Y602838D01*
X159359Y602917D01*
X159423Y602995D01*
X159489Y603069D01*
X159558Y603141D01*
X159630Y603210D01*
X159704Y603276D01*
X159782Y603340D01*
X159861Y603400D01*
X159943Y603457D01*
X160027Y603511D01*
X160113Y603561D01*
X160201Y603608D01*
X160291Y603652D01*
X160382Y603692D01*
X160475Y603728D01*
X160569Y603761D01*
X160665Y603790D01*
X160761Y603815D01*
X160858Y603836D01*
X160957Y603854D01*
X161055Y603867D01*
X161155Y603877D01*
X161254Y603883D01*
X161354Y603885D01*
X161354Y603886D02*
X161487Y603884D01*
X161620Y603879D01*
X161753Y603869D01*
X161886Y603856D01*
X162018Y603839D01*
X162150Y603819D01*
X162281Y603795D01*
X162411Y603767D01*
X162541Y603736D01*
X162669Y603701D01*
X162797Y603662D01*
X162923Y603620D01*
X163048Y603574D01*
X163172Y603525D01*
X163295Y603473D01*
X163416Y603417D01*
X163535Y603357D01*
X163653Y603295D01*
X163768Y603229D01*
X163882Y603160D01*
X163994Y603087D01*
X164104Y603012D01*
X164212Y602933D01*
X160083Y599122D02*
X159999Y599174D01*
X159916Y599229D01*
X159836Y599288D01*
X159758Y599349D01*
X159683Y599413D01*
X159610Y599481D01*
X159539Y599551D01*
X159472Y599623D01*
X159407Y599698D01*
X159345Y599776D01*
X159286Y599856D01*
X159230Y599938D01*
X159178Y600022D01*
X159129Y600108D01*
X159083Y600196D01*
X159040Y600286D01*
X159001Y600377D01*
X158966Y600470D01*
X158934Y600564D01*
X158906Y600659D01*
X158881Y600755D01*
X158861Y600852D01*
X158843Y600950D01*
X158830Y601048D01*
X158821Y601147D01*
X158815Y601246D01*
X158813Y601345D01*
X163576Y597218D02*
X163660Y597166D01*
X163743Y597111D01*
X163823Y597052D01*
X163901Y596991D01*
X163976Y596927D01*
X164049Y596859D01*
X164120Y596789D01*
X164187Y596717D01*
X164252Y596642D01*
X164314Y596564D01*
X164373Y596484D01*
X164429Y596402D01*
X164481Y596318D01*
X164530Y596232D01*
X164576Y596144D01*
X164619Y596054D01*
X164658Y595963D01*
X164693Y595870D01*
X164725Y595776D01*
X164753Y595681D01*
X164778Y595585D01*
X164798Y595488D01*
X164816Y595390D01*
X164829Y595292D01*
X164838Y595193D01*
X164844Y595094D01*
X164846Y594995D01*
X163576Y597218D02*
X160084Y599123D01*
X169545Y592455D02*
X172720Y592455D01*
X172831Y592457D01*
X172941Y592463D01*
X173052Y592472D01*
X173162Y592486D01*
X173271Y592503D01*
X173380Y592524D01*
X173488Y592549D01*
X173595Y592578D01*
X173701Y592610D01*
X173806Y592646D01*
X173909Y592686D01*
X174011Y592729D01*
X174112Y592776D01*
X174211Y592827D01*
X174307Y592880D01*
X174402Y592937D01*
X174495Y592998D01*
X174586Y593061D01*
X174675Y593128D01*
X174761Y593198D01*
X174844Y593271D01*
X174926Y593346D01*
X175004Y593424D01*
X175079Y593506D01*
X175152Y593589D01*
X175222Y593675D01*
X175289Y593764D01*
X175352Y593855D01*
X175413Y593948D01*
X175470Y594043D01*
X175523Y594139D01*
X175574Y594238D01*
X175621Y594339D01*
X175664Y594441D01*
X175704Y594544D01*
X175740Y594649D01*
X175772Y594755D01*
X175801Y594862D01*
X175826Y594970D01*
X175847Y595079D01*
X175864Y595188D01*
X175878Y595298D01*
X175887Y595409D01*
X175893Y595519D01*
X175895Y595630D01*
X175893Y595741D01*
X175887Y595851D01*
X175878Y595962D01*
X175864Y596072D01*
X175847Y596181D01*
X175826Y596290D01*
X175801Y596398D01*
X175772Y596505D01*
X175740Y596611D01*
X175704Y596716D01*
X175664Y596819D01*
X175621Y596921D01*
X175574Y597022D01*
X175523Y597121D01*
X175470Y597217D01*
X175413Y597312D01*
X175352Y597405D01*
X175289Y597496D01*
X175222Y597585D01*
X175152Y597671D01*
X175079Y597754D01*
X175004Y597836D01*
X174926Y597914D01*
X174844Y597989D01*
X174761Y598062D01*
X174675Y598132D01*
X174586Y598199D01*
X174495Y598262D01*
X174402Y598323D01*
X174308Y598380D01*
X174211Y598433D01*
X174112Y598484D01*
X174011Y598531D01*
X173909Y598574D01*
X173806Y598614D01*
X173701Y598650D01*
X173595Y598682D01*
X173488Y598711D01*
X173380Y598736D01*
X173271Y598757D01*
X173162Y598774D01*
X173052Y598788D01*
X172941Y598797D01*
X172831Y598803D01*
X172720Y598805D01*
X173355Y603885D02*
X169545Y603885D01*
X173355Y603885D02*
X173455Y603883D01*
X173554Y603877D01*
X173654Y603867D01*
X173752Y603854D01*
X173851Y603836D01*
X173948Y603815D01*
X174044Y603790D01*
X174140Y603761D01*
X174234Y603728D01*
X174327Y603692D01*
X174418Y603652D01*
X174508Y603608D01*
X174596Y603561D01*
X174682Y603511D01*
X174766Y603457D01*
X174848Y603400D01*
X174927Y603340D01*
X175005Y603276D01*
X175079Y603210D01*
X175151Y603141D01*
X175220Y603069D01*
X175286Y602995D01*
X175350Y602917D01*
X175410Y602838D01*
X175467Y602756D01*
X175521Y602672D01*
X175571Y602586D01*
X175618Y602498D01*
X175662Y602408D01*
X175702Y602317D01*
X175738Y602224D01*
X175771Y602130D01*
X175800Y602034D01*
X175825Y601938D01*
X175846Y601841D01*
X175864Y601742D01*
X175877Y601644D01*
X175887Y601544D01*
X175893Y601445D01*
X175895Y601345D01*
X175893Y601245D01*
X175887Y601146D01*
X175877Y601046D01*
X175864Y600948D01*
X175846Y600849D01*
X175825Y600752D01*
X175800Y600656D01*
X175771Y600560D01*
X175738Y600466D01*
X175702Y600373D01*
X175662Y600282D01*
X175618Y600192D01*
X175571Y600104D01*
X175521Y600018D01*
X175467Y599934D01*
X175410Y599852D01*
X175350Y599773D01*
X175286Y599695D01*
X175220Y599621D01*
X175151Y599549D01*
X175079Y599480D01*
X175005Y599414D01*
X174927Y599350D01*
X174848Y599290D01*
X174766Y599233D01*
X174682Y599179D01*
X174596Y599129D01*
X174508Y599082D01*
X174418Y599038D01*
X174327Y598998D01*
X174234Y598962D01*
X174140Y598929D01*
X174044Y598900D01*
X173948Y598875D01*
X173851Y598854D01*
X173752Y598836D01*
X173654Y598823D01*
X173554Y598813D01*
X173455Y598807D01*
X173355Y598805D01*
X170815Y598805D01*
X19050Y401320D02*
X19050Y297180D01*
X-139700Y297180D02*
X-139700Y401320D01*
X-105410Y401320D02*
X19050Y401320D01*
X-105410Y401320D02*
X-105410Y392430D01*
X-120650Y392430D01*
X-120650Y401320D01*
X-139700Y401320D01*
X-105410Y297180D02*
X19050Y297180D01*
X-105410Y297180D02*
X-105410Y306070D01*
X-120650Y306070D01*
X-120650Y297180D01*
X-139700Y297180D01*
D14*
X12700Y303530D02*
X12700Y394970D01*
X-69850Y394970D01*
X-69850Y303530D01*
X12700Y303530D01*
D10*
X-123444Y349250D02*
X-123439Y349693D01*
X-123422Y350135D01*
X-123395Y350577D01*
X-123357Y351018D01*
X-123308Y351458D01*
X-123249Y351896D01*
X-123178Y352333D01*
X-123097Y352768D01*
X-123006Y353201D01*
X-122904Y353632D01*
X-122791Y354060D01*
X-122667Y354485D01*
X-122534Y354907D01*
X-122390Y355325D01*
X-122236Y355740D01*
X-122071Y356151D01*
X-121897Y356558D01*
X-121713Y356961D01*
X-121518Y357358D01*
X-121315Y357751D01*
X-121101Y358139D01*
X-120878Y358521D01*
X-120646Y358898D01*
X-120405Y359269D01*
X-120154Y359634D01*
X-119895Y359993D01*
X-119627Y360345D01*
X-119350Y360691D01*
X-119066Y361029D01*
X-118772Y361361D01*
X-118471Y361685D01*
X-118162Y362002D01*
X-117845Y362311D01*
X-117521Y362612D01*
X-117189Y362906D01*
X-116851Y363190D01*
X-116505Y363467D01*
X-116153Y363735D01*
X-115794Y363994D01*
X-115429Y364245D01*
X-115058Y364486D01*
X-114681Y364718D01*
X-114299Y364941D01*
X-113911Y365155D01*
X-113518Y365358D01*
X-113121Y365553D01*
X-112718Y365737D01*
X-112311Y365911D01*
X-111900Y366076D01*
X-111485Y366230D01*
X-111067Y366374D01*
X-110645Y366507D01*
X-110220Y366631D01*
X-109792Y366744D01*
X-109361Y366846D01*
X-108928Y366937D01*
X-108493Y367018D01*
X-108056Y367089D01*
X-107618Y367148D01*
X-107178Y367197D01*
X-106737Y367235D01*
X-106295Y367262D01*
X-105853Y367279D01*
X-105410Y367284D01*
X-104967Y367279D01*
X-104525Y367262D01*
X-104083Y367235D01*
X-103642Y367197D01*
X-103202Y367148D01*
X-102764Y367089D01*
X-102327Y367018D01*
X-101892Y366937D01*
X-101459Y366846D01*
X-101028Y366744D01*
X-100600Y366631D01*
X-100175Y366507D01*
X-99753Y366374D01*
X-99335Y366230D01*
X-98920Y366076D01*
X-98509Y365911D01*
X-98102Y365737D01*
X-97699Y365553D01*
X-97302Y365358D01*
X-96909Y365155D01*
X-96521Y364941D01*
X-96139Y364718D01*
X-95762Y364486D01*
X-95391Y364245D01*
X-95026Y363994D01*
X-94667Y363735D01*
X-94315Y363467D01*
X-93969Y363190D01*
X-93631Y362906D01*
X-93299Y362612D01*
X-92975Y362311D01*
X-92658Y362002D01*
X-92349Y361685D01*
X-92048Y361361D01*
X-91754Y361029D01*
X-91470Y360691D01*
X-91193Y360345D01*
X-90925Y359993D01*
X-90666Y359634D01*
X-90415Y359269D01*
X-90174Y358898D01*
X-89942Y358521D01*
X-89719Y358139D01*
X-89505Y357751D01*
X-89302Y357358D01*
X-89107Y356961D01*
X-88923Y356558D01*
X-88749Y356151D01*
X-88584Y355740D01*
X-88430Y355325D01*
X-88286Y354907D01*
X-88153Y354485D01*
X-88029Y354060D01*
X-87916Y353632D01*
X-87814Y353201D01*
X-87723Y352768D01*
X-87642Y352333D01*
X-87571Y351896D01*
X-87512Y351458D01*
X-87463Y351018D01*
X-87425Y350577D01*
X-87398Y350135D01*
X-87381Y349693D01*
X-87376Y349250D01*
X-87381Y348807D01*
X-87398Y348365D01*
X-87425Y347923D01*
X-87463Y347482D01*
X-87512Y347042D01*
X-87571Y346604D01*
X-87642Y346167D01*
X-87723Y345732D01*
X-87814Y345299D01*
X-87916Y344868D01*
X-88029Y344440D01*
X-88153Y344015D01*
X-88286Y343593D01*
X-88430Y343175D01*
X-88584Y342760D01*
X-88749Y342349D01*
X-88923Y341942D01*
X-89107Y341539D01*
X-89302Y341142D01*
X-89505Y340749D01*
X-89719Y340361D01*
X-89942Y339979D01*
X-90174Y339602D01*
X-90415Y339231D01*
X-90666Y338866D01*
X-90925Y338507D01*
X-91193Y338155D01*
X-91470Y337809D01*
X-91754Y337471D01*
X-92048Y337139D01*
X-92349Y336815D01*
X-92658Y336498D01*
X-92975Y336189D01*
X-93299Y335888D01*
X-93631Y335594D01*
X-93969Y335310D01*
X-94315Y335033D01*
X-94667Y334765D01*
X-95026Y334506D01*
X-95391Y334255D01*
X-95762Y334014D01*
X-96139Y333782D01*
X-96521Y333559D01*
X-96909Y333345D01*
X-97302Y333142D01*
X-97699Y332947D01*
X-98102Y332763D01*
X-98509Y332589D01*
X-98920Y332424D01*
X-99335Y332270D01*
X-99753Y332126D01*
X-100175Y331993D01*
X-100600Y331869D01*
X-101028Y331756D01*
X-101459Y331654D01*
X-101892Y331563D01*
X-102327Y331482D01*
X-102764Y331411D01*
X-103202Y331352D01*
X-103642Y331303D01*
X-104083Y331265D01*
X-104525Y331238D01*
X-104967Y331221D01*
X-105410Y331216D01*
X-105853Y331221D01*
X-106295Y331238D01*
X-106737Y331265D01*
X-107178Y331303D01*
X-107618Y331352D01*
X-108056Y331411D01*
X-108493Y331482D01*
X-108928Y331563D01*
X-109361Y331654D01*
X-109792Y331756D01*
X-110220Y331869D01*
X-110645Y331993D01*
X-111067Y332126D01*
X-111485Y332270D01*
X-111900Y332424D01*
X-112311Y332589D01*
X-112718Y332763D01*
X-113121Y332947D01*
X-113518Y333142D01*
X-113911Y333345D01*
X-114299Y333559D01*
X-114681Y333782D01*
X-115058Y334014D01*
X-115429Y334255D01*
X-115794Y334506D01*
X-116153Y334765D01*
X-116505Y335033D01*
X-116851Y335310D01*
X-117189Y335594D01*
X-117521Y335888D01*
X-117845Y336189D01*
X-118162Y336498D01*
X-118471Y336815D01*
X-118772Y337139D01*
X-119066Y337471D01*
X-119350Y337809D01*
X-119627Y338155D01*
X-119895Y338507D01*
X-120154Y338866D01*
X-120405Y339231D01*
X-120646Y339602D01*
X-120878Y339979D01*
X-121101Y340361D01*
X-121315Y340749D01*
X-121518Y341142D01*
X-121713Y341539D01*
X-121897Y341942D01*
X-122071Y342349D01*
X-122236Y342760D01*
X-122390Y343175D01*
X-122534Y343593D01*
X-122667Y344015D01*
X-122791Y344440D01*
X-122904Y344868D01*
X-123006Y345299D01*
X-123097Y345732D01*
X-123178Y346167D01*
X-123249Y346604D01*
X-123308Y347042D01*
X-123357Y347482D01*
X-123395Y347923D01*
X-123422Y348365D01*
X-123439Y348807D01*
X-123444Y349250D01*
X-81661Y308314D02*
X-73025Y305435D01*
X-73025Y311192D02*
X-81661Y308314D01*
X-75184Y310473D02*
X-75184Y306155D01*
X-79742Y314830D02*
X-81661Y317229D01*
X-73025Y317229D01*
X-73025Y314830D02*
X-73025Y319628D01*
X-80701Y323746D02*
X-81661Y323746D01*
X-81661Y328543D01*
X-73025Y326144D01*
X-73025Y332101D02*
X-73025Y332581D01*
X-73025Y332101D02*
X-73505Y332101D01*
X-73505Y332581D01*
X-73025Y332581D01*
X-71106Y331862D01*
X-73025Y336227D02*
X-73025Y339106D01*
X-73027Y339192D01*
X-73033Y339278D01*
X-73042Y339364D01*
X-73056Y339449D01*
X-73073Y339533D01*
X-73094Y339617D01*
X-73119Y339699D01*
X-73147Y339780D01*
X-73179Y339860D01*
X-73215Y339939D01*
X-73254Y340015D01*
X-73297Y340090D01*
X-73342Y340163D01*
X-73392Y340234D01*
X-73444Y340302D01*
X-73499Y340369D01*
X-73557Y340432D01*
X-73618Y340493D01*
X-73681Y340551D01*
X-73748Y340606D01*
X-73816Y340659D01*
X-73887Y340708D01*
X-73960Y340753D01*
X-74035Y340796D01*
X-74111Y340835D01*
X-74190Y340871D01*
X-74270Y340903D01*
X-74351Y340931D01*
X-74434Y340956D01*
X-74517Y340977D01*
X-74601Y340994D01*
X-74686Y341008D01*
X-74772Y341017D01*
X-74858Y341023D01*
X-74944Y341025D01*
X-75904Y341025D01*
X-75990Y341023D01*
X-76076Y341017D01*
X-76162Y341008D01*
X-76247Y340994D01*
X-76331Y340977D01*
X-76415Y340956D01*
X-76497Y340931D01*
X-76578Y340903D01*
X-76658Y340871D01*
X-76737Y340835D01*
X-76813Y340796D01*
X-76888Y340753D01*
X-76961Y340708D01*
X-77032Y340659D01*
X-77100Y340606D01*
X-77167Y340551D01*
X-77230Y340493D01*
X-77291Y340432D01*
X-77349Y340369D01*
X-77404Y340302D01*
X-77457Y340234D01*
X-77506Y340163D01*
X-77551Y340090D01*
X-77594Y340015D01*
X-77633Y339939D01*
X-77669Y339860D01*
X-77701Y339780D01*
X-77729Y339699D01*
X-77754Y339617D01*
X-77775Y339533D01*
X-77792Y339449D01*
X-77806Y339364D01*
X-77815Y339278D01*
X-77821Y339192D01*
X-77823Y339106D01*
X-77823Y336227D01*
X-81661Y336227D01*
X-81661Y341025D01*
X-78782Y345554D02*
X-73025Y345554D01*
X-78782Y345554D02*
X-78782Y349872D01*
X-78780Y349947D01*
X-78774Y350022D01*
X-78764Y350097D01*
X-78751Y350171D01*
X-78733Y350244D01*
X-78712Y350317D01*
X-78686Y350388D01*
X-78658Y350457D01*
X-78625Y350525D01*
X-78589Y350592D01*
X-78550Y350656D01*
X-78507Y350718D01*
X-78461Y350778D01*
X-78412Y350835D01*
X-78361Y350890D01*
X-78306Y350941D01*
X-78249Y350990D01*
X-78189Y351036D01*
X-78127Y351079D01*
X-78063Y351118D01*
X-77996Y351154D01*
X-77928Y351187D01*
X-77859Y351215D01*
X-77788Y351241D01*
X-77715Y351262D01*
X-77642Y351280D01*
X-77568Y351293D01*
X-77493Y351303D01*
X-77418Y351309D01*
X-77343Y351311D01*
X-73025Y351311D01*
X-73025Y348433D02*
X-78782Y348433D01*
X-78782Y356253D02*
X-73025Y356253D01*
X-78782Y356253D02*
X-78782Y360571D01*
X-78780Y360646D01*
X-78774Y360721D01*
X-78764Y360796D01*
X-78751Y360870D01*
X-78733Y360943D01*
X-78712Y361016D01*
X-78686Y361087D01*
X-78658Y361156D01*
X-78625Y361224D01*
X-78589Y361291D01*
X-78550Y361355D01*
X-78507Y361417D01*
X-78461Y361477D01*
X-78412Y361534D01*
X-78361Y361589D01*
X-78306Y361640D01*
X-78249Y361689D01*
X-78189Y361735D01*
X-78127Y361778D01*
X-78063Y361817D01*
X-77996Y361853D01*
X-77928Y361886D01*
X-77859Y361914D01*
X-77788Y361940D01*
X-77715Y361961D01*
X-77642Y361979D01*
X-77568Y361992D01*
X-77493Y362002D01*
X-77418Y362008D01*
X-77343Y362010D01*
X-73025Y362010D01*
X-73025Y359131D02*
X-78782Y359131D01*
D15*
X50165Y374650D03*
X50165Y349250D03*
X50165Y323850D03*
D16*
X33020Y323850D03*
X33020Y349250D03*
X33020Y374650D03*
D17*
X-51054Y312039D02*
X-58166Y312039D01*
X-58298Y312041D01*
X-58429Y312047D01*
X-58561Y312057D01*
X-58692Y312070D01*
X-58822Y312088D01*
X-58952Y312109D01*
X-59082Y312134D01*
X-59210Y312163D01*
X-59338Y312196D01*
X-59464Y312233D01*
X-59590Y312273D01*
X-59714Y312317D01*
X-59837Y312365D01*
X-59958Y312416D01*
X-60078Y312471D01*
X-60196Y312529D01*
X-60312Y312591D01*
X-60426Y312657D01*
X-60539Y312725D01*
X-60649Y312797D01*
X-60757Y312872D01*
X-60863Y312951D01*
X-60967Y313032D01*
X-61068Y313117D01*
X-61166Y313204D01*
X-61262Y313295D01*
X-61355Y313388D01*
X-61446Y313484D01*
X-61533Y313582D01*
X-61618Y313683D01*
X-61699Y313787D01*
X-61778Y313893D01*
X-61853Y314001D01*
X-61925Y314111D01*
X-61993Y314224D01*
X-62059Y314338D01*
X-62121Y314454D01*
X-62179Y314572D01*
X-62234Y314692D01*
X-62285Y314813D01*
X-62333Y314936D01*
X-62377Y315060D01*
X-62417Y315186D01*
X-62454Y315312D01*
X-62487Y315440D01*
X-62516Y315568D01*
X-62541Y315698D01*
X-62562Y315828D01*
X-62580Y315958D01*
X-62593Y316089D01*
X-62603Y316221D01*
X-62609Y316352D01*
X-62611Y316484D01*
X-62609Y316616D01*
X-62603Y316747D01*
X-62593Y316879D01*
X-62580Y317010D01*
X-62562Y317140D01*
X-62541Y317270D01*
X-62516Y317400D01*
X-62487Y317528D01*
X-62454Y317656D01*
X-62417Y317782D01*
X-62377Y317908D01*
X-62333Y318032D01*
X-62285Y318155D01*
X-62234Y318276D01*
X-62179Y318396D01*
X-62121Y318514D01*
X-62059Y318630D01*
X-61993Y318744D01*
X-61925Y318857D01*
X-61853Y318967D01*
X-61778Y319075D01*
X-61699Y319181D01*
X-61618Y319285D01*
X-61533Y319386D01*
X-61446Y319484D01*
X-61355Y319580D01*
X-61262Y319673D01*
X-61166Y319764D01*
X-61068Y319851D01*
X-60967Y319936D01*
X-60863Y320017D01*
X-60757Y320096D01*
X-60649Y320171D01*
X-60539Y320243D01*
X-60426Y320311D01*
X-60312Y320377D01*
X-60196Y320439D01*
X-60078Y320497D01*
X-59958Y320552D01*
X-59837Y320603D01*
X-59714Y320651D01*
X-59590Y320695D01*
X-59464Y320735D01*
X-59338Y320772D01*
X-59210Y320805D01*
X-59082Y320834D01*
X-58952Y320859D01*
X-58822Y320880D01*
X-58692Y320898D01*
X-58561Y320911D01*
X-58429Y320921D01*
X-58298Y320927D01*
X-58166Y320929D01*
X-51054Y320929D01*
X-50922Y320927D01*
X-50791Y320921D01*
X-50659Y320911D01*
X-50528Y320898D01*
X-50398Y320880D01*
X-50268Y320859D01*
X-50138Y320834D01*
X-50010Y320805D01*
X-49882Y320772D01*
X-49756Y320735D01*
X-49630Y320695D01*
X-49506Y320651D01*
X-49383Y320603D01*
X-49262Y320552D01*
X-49142Y320497D01*
X-49024Y320439D01*
X-48908Y320377D01*
X-48794Y320311D01*
X-48681Y320243D01*
X-48571Y320171D01*
X-48463Y320096D01*
X-48357Y320017D01*
X-48253Y319936D01*
X-48152Y319851D01*
X-48054Y319764D01*
X-47958Y319673D01*
X-47865Y319580D01*
X-47774Y319484D01*
X-47687Y319386D01*
X-47602Y319285D01*
X-47521Y319181D01*
X-47442Y319075D01*
X-47367Y318967D01*
X-47295Y318857D01*
X-47227Y318744D01*
X-47161Y318630D01*
X-47099Y318514D01*
X-47041Y318396D01*
X-46986Y318276D01*
X-46935Y318155D01*
X-46887Y318032D01*
X-46843Y317908D01*
X-46803Y317782D01*
X-46766Y317656D01*
X-46733Y317528D01*
X-46704Y317400D01*
X-46679Y317270D01*
X-46658Y317140D01*
X-46640Y317010D01*
X-46627Y316879D01*
X-46617Y316747D01*
X-46611Y316616D01*
X-46609Y316484D01*
X-46611Y316352D01*
X-46617Y316221D01*
X-46627Y316089D01*
X-46640Y315958D01*
X-46658Y315828D01*
X-46679Y315698D01*
X-46704Y315568D01*
X-46733Y315440D01*
X-46766Y315312D01*
X-46803Y315186D01*
X-46843Y315060D01*
X-46887Y314936D01*
X-46935Y314813D01*
X-46986Y314692D01*
X-47041Y314572D01*
X-47099Y314454D01*
X-47161Y314338D01*
X-47227Y314224D01*
X-47295Y314111D01*
X-47367Y314001D01*
X-47442Y313893D01*
X-47521Y313787D01*
X-47602Y313683D01*
X-47687Y313582D01*
X-47774Y313484D01*
X-47865Y313388D01*
X-47958Y313295D01*
X-48054Y313204D01*
X-48152Y313117D01*
X-48253Y313032D01*
X-48357Y312951D01*
X-48463Y312872D01*
X-48571Y312797D01*
X-48681Y312725D01*
X-48794Y312657D01*
X-48908Y312591D01*
X-49024Y312529D01*
X-49142Y312471D01*
X-49262Y312416D01*
X-49383Y312365D01*
X-49506Y312317D01*
X-49630Y312273D01*
X-49756Y312233D01*
X-49882Y312196D01*
X-50010Y312163D01*
X-50138Y312134D01*
X-50268Y312109D01*
X-50398Y312088D01*
X-50528Y312070D01*
X-50659Y312057D01*
X-50791Y312047D01*
X-50922Y312041D01*
X-51054Y312039D01*
X-50165Y319151D02*
X-46609Y322707D01*
X-59055Y327270D02*
X-62611Y331715D01*
X-46609Y331715D01*
X-46609Y327270D02*
X-46609Y336160D01*
D12*
X496824Y305816D02*
X621792Y305816D01*
X496824Y305816D02*
X496824Y13208D01*
X621792Y13208D01*
X621792Y305816D01*
X546862Y38100D02*
X538226Y38100D01*
D18*
X546862Y58166D02*
X572008Y58166D01*
X572008Y18034D02*
X546862Y18034D01*
X546862Y38100D01*
X546862Y53086D01*
X572008Y23114D02*
X572008Y18034D01*
D12*
X572008Y23114D02*
X546862Y53086D01*
D18*
X546862Y58166D01*
X572008Y58166D02*
X572008Y38100D01*
D12*
X579374Y38100D01*
D18*
X572008Y38100D02*
X572008Y23114D01*
D12*
X539750Y241300D02*
X537210Y241300D01*
D18*
X549148Y231902D02*
X552450Y228600D01*
D12*
X577850Y241300D02*
X580390Y241300D01*
X577850Y241300D02*
X568198Y231902D01*
X568198Y190500D01*
D18*
X565150Y228600D02*
X568198Y231902D01*
D12*
X568198Y190500D02*
X579120Y190500D01*
X568198Y250952D02*
X568198Y292100D01*
X579120Y292100D01*
X549148Y231902D02*
X549148Y190500D01*
D18*
X549148Y231902D02*
X539750Y241300D01*
D12*
X538988Y190500D02*
X549148Y190500D01*
X549148Y250952D02*
X549148Y292100D01*
X538988Y292100D01*
D17*
X597135Y313055D02*
X597135Y329057D01*
X606025Y329057D02*
X597135Y319278D01*
X600691Y322834D02*
X606025Y313055D01*
X612013Y325501D02*
X616458Y329057D01*
X616458Y313055D01*
X612013Y313055D02*
X620903Y313055D01*
D12*
X118110Y304800D02*
X118010Y304802D01*
X117911Y304808D01*
X117811Y304818D01*
X117713Y304831D01*
X117614Y304849D01*
X117517Y304870D01*
X117421Y304895D01*
X117325Y304924D01*
X117231Y304957D01*
X117138Y304993D01*
X117047Y305033D01*
X116957Y305077D01*
X116869Y305124D01*
X116783Y305174D01*
X116699Y305228D01*
X116617Y305285D01*
X116538Y305345D01*
X116460Y305409D01*
X116386Y305475D01*
X116314Y305544D01*
X116245Y305616D01*
X116179Y305690D01*
X116115Y305768D01*
X116055Y305847D01*
X115998Y305929D01*
X115944Y306013D01*
X115894Y306099D01*
X115847Y306187D01*
X115803Y306277D01*
X115763Y306368D01*
X115727Y306461D01*
X115694Y306555D01*
X115665Y306651D01*
X115640Y306747D01*
X115619Y306844D01*
X115601Y306943D01*
X115588Y307041D01*
X115578Y307141D01*
X115572Y307240D01*
X115570Y307340D01*
X135890Y304800D02*
X135990Y304802D01*
X136089Y304808D01*
X136189Y304818D01*
X136287Y304831D01*
X136386Y304849D01*
X136483Y304870D01*
X136579Y304895D01*
X136675Y304924D01*
X136769Y304957D01*
X136862Y304993D01*
X136953Y305033D01*
X137043Y305077D01*
X137131Y305124D01*
X137217Y305174D01*
X137301Y305228D01*
X137383Y305285D01*
X137462Y305345D01*
X137540Y305409D01*
X137614Y305475D01*
X137686Y305544D01*
X137755Y305616D01*
X137821Y305690D01*
X137885Y305768D01*
X137945Y305847D01*
X138002Y305929D01*
X138056Y306013D01*
X138106Y306099D01*
X138153Y306187D01*
X138197Y306277D01*
X138237Y306368D01*
X138273Y306461D01*
X138306Y306555D01*
X138335Y306651D01*
X138360Y306747D01*
X138381Y306844D01*
X138399Y306943D01*
X138412Y307041D01*
X138422Y307141D01*
X138428Y307240D01*
X138430Y307340D01*
X138430Y365760D02*
X138428Y365860D01*
X138422Y365959D01*
X138412Y366059D01*
X138399Y366157D01*
X138381Y366256D01*
X138360Y366353D01*
X138335Y366449D01*
X138306Y366545D01*
X138273Y366639D01*
X138237Y366732D01*
X138197Y366823D01*
X138153Y366913D01*
X138106Y367001D01*
X138056Y367087D01*
X138002Y367171D01*
X137945Y367253D01*
X137885Y367332D01*
X137821Y367410D01*
X137755Y367484D01*
X137686Y367556D01*
X137614Y367625D01*
X137540Y367691D01*
X137462Y367755D01*
X137383Y367815D01*
X137301Y367872D01*
X137217Y367926D01*
X137131Y367976D01*
X137043Y368023D01*
X136953Y368067D01*
X136862Y368107D01*
X136769Y368143D01*
X136675Y368176D01*
X136579Y368205D01*
X136483Y368230D01*
X136386Y368251D01*
X136287Y368269D01*
X136189Y368282D01*
X136089Y368292D01*
X135990Y368298D01*
X135890Y368300D01*
X118110Y368300D02*
X118010Y368298D01*
X117911Y368292D01*
X117811Y368282D01*
X117713Y368269D01*
X117614Y368251D01*
X117517Y368230D01*
X117421Y368205D01*
X117325Y368176D01*
X117231Y368143D01*
X117138Y368107D01*
X117047Y368067D01*
X116957Y368023D01*
X116869Y367976D01*
X116783Y367926D01*
X116699Y367872D01*
X116617Y367815D01*
X116538Y367755D01*
X116460Y367691D01*
X116386Y367625D01*
X116314Y367556D01*
X116245Y367484D01*
X116179Y367410D01*
X116115Y367332D01*
X116055Y367253D01*
X115998Y367171D01*
X115944Y367087D01*
X115894Y367001D01*
X115847Y366913D01*
X115803Y366823D01*
X115763Y366732D01*
X115727Y366639D01*
X115694Y366545D01*
X115665Y366449D01*
X115640Y366353D01*
X115619Y366256D01*
X115601Y366157D01*
X115588Y366059D01*
X115578Y365959D01*
X115572Y365860D01*
X115570Y365760D01*
X118110Y304800D02*
X135890Y304800D01*
X115570Y307340D02*
X115570Y311150D01*
X116840Y312420D01*
X138430Y311150D02*
X138430Y307340D01*
X138430Y311150D02*
X137160Y312420D01*
X116840Y360680D02*
X115570Y361950D01*
X116840Y360680D02*
X116840Y312420D01*
X137160Y360680D02*
X138430Y361950D01*
X137160Y360680D02*
X137160Y312420D01*
X115570Y361950D02*
X115570Y365760D01*
X138430Y365760D02*
X138430Y361950D01*
X135890Y368300D02*
X118110Y368300D01*
D19*
X127000Y372618D03*
X127000Y300482D03*
D10*
X111125Y306705D02*
X99695Y306705D01*
X99695Y309880D01*
X99697Y309991D01*
X99703Y310101D01*
X99712Y310212D01*
X99726Y310322D01*
X99743Y310431D01*
X99764Y310540D01*
X99789Y310648D01*
X99818Y310755D01*
X99850Y310861D01*
X99886Y310966D01*
X99926Y311069D01*
X99969Y311171D01*
X100016Y311272D01*
X100067Y311371D01*
X100120Y311468D01*
X100177Y311562D01*
X100238Y311655D01*
X100301Y311746D01*
X100368Y311835D01*
X100438Y311921D01*
X100511Y312004D01*
X100586Y312086D01*
X100664Y312164D01*
X100746Y312239D01*
X100829Y312312D01*
X100915Y312382D01*
X101004Y312449D01*
X101095Y312512D01*
X101188Y312573D01*
X101283Y312630D01*
X101379Y312683D01*
X101478Y312734D01*
X101579Y312781D01*
X101681Y312824D01*
X101784Y312864D01*
X101889Y312900D01*
X101995Y312932D01*
X102102Y312961D01*
X102210Y312986D01*
X102319Y313007D01*
X102428Y313024D01*
X102538Y313038D01*
X102649Y313047D01*
X102759Y313053D01*
X102870Y313055D01*
X102981Y313053D01*
X103091Y313047D01*
X103202Y313038D01*
X103312Y313024D01*
X103421Y313007D01*
X103530Y312986D01*
X103638Y312961D01*
X103745Y312932D01*
X103851Y312900D01*
X103956Y312864D01*
X104059Y312824D01*
X104161Y312781D01*
X104262Y312734D01*
X104361Y312683D01*
X104458Y312630D01*
X104552Y312573D01*
X104645Y312512D01*
X104736Y312449D01*
X104825Y312382D01*
X104911Y312312D01*
X104994Y312239D01*
X105076Y312164D01*
X105154Y312086D01*
X105229Y312004D01*
X105302Y311921D01*
X105372Y311835D01*
X105439Y311746D01*
X105502Y311655D01*
X105563Y311562D01*
X105620Y311468D01*
X105673Y311371D01*
X105724Y311272D01*
X105771Y311171D01*
X105814Y311069D01*
X105854Y310966D01*
X105890Y310861D01*
X105922Y310755D01*
X105951Y310648D01*
X105976Y310540D01*
X105997Y310431D01*
X106014Y310322D01*
X106028Y310212D01*
X106037Y310101D01*
X106043Y309991D01*
X106045Y309880D01*
X106045Y306705D01*
X106045Y310515D02*
X111125Y313055D01*
X102553Y324403D02*
X102449Y324401D01*
X102344Y324395D01*
X102240Y324386D01*
X102137Y324373D01*
X102034Y324355D01*
X101932Y324335D01*
X101830Y324310D01*
X101730Y324282D01*
X101630Y324250D01*
X101532Y324214D01*
X101435Y324175D01*
X101340Y324133D01*
X101246Y324087D01*
X101154Y324037D01*
X101064Y323985D01*
X100976Y323929D01*
X100890Y323869D01*
X100806Y323807D01*
X100725Y323742D01*
X100646Y323674D01*
X100569Y323602D01*
X100496Y323529D01*
X100424Y323452D01*
X100356Y323373D01*
X100291Y323292D01*
X100229Y323208D01*
X100169Y323122D01*
X100113Y323034D01*
X100061Y322944D01*
X100011Y322852D01*
X99965Y322758D01*
X99923Y322663D01*
X99884Y322566D01*
X99848Y322468D01*
X99816Y322368D01*
X99788Y322268D01*
X99763Y322166D01*
X99743Y322064D01*
X99725Y321961D01*
X99712Y321858D01*
X99703Y321754D01*
X99697Y321649D01*
X99695Y321545D01*
X99697Y321427D01*
X99703Y321308D01*
X99712Y321190D01*
X99725Y321073D01*
X99743Y320956D01*
X99763Y320839D01*
X99788Y320723D01*
X99816Y320608D01*
X99849Y320495D01*
X99884Y320382D01*
X99924Y320270D01*
X99966Y320160D01*
X100013Y320051D01*
X100063Y319943D01*
X100116Y319838D01*
X100173Y319734D01*
X100233Y319632D01*
X100296Y319532D01*
X100363Y319434D01*
X100432Y319338D01*
X100505Y319245D01*
X100581Y319154D01*
X100659Y319065D01*
X100741Y318979D01*
X100825Y318896D01*
X100911Y318815D01*
X101001Y318738D01*
X101092Y318663D01*
X101186Y318591D01*
X101283Y318522D01*
X101381Y318457D01*
X101482Y318394D01*
X101585Y318335D01*
X101689Y318279D01*
X101795Y318227D01*
X101903Y318178D01*
X102012Y318133D01*
X102123Y318091D01*
X102235Y318053D01*
X104775Y323450D02*
X104700Y323526D01*
X104621Y323601D01*
X104540Y323672D01*
X104456Y323741D01*
X104370Y323806D01*
X104282Y323868D01*
X104192Y323928D01*
X104100Y323984D01*
X104005Y324037D01*
X103909Y324086D01*
X103811Y324132D01*
X103712Y324175D01*
X103611Y324214D01*
X103509Y324249D01*
X103406Y324281D01*
X103302Y324309D01*
X103197Y324334D01*
X103090Y324355D01*
X102984Y324372D01*
X102877Y324385D01*
X102769Y324394D01*
X102661Y324400D01*
X102553Y324402D01*
X104775Y323450D02*
X111125Y318052D01*
X111125Y324402D01*
D12*
X147320Y307340D02*
X147322Y307240D01*
X147328Y307141D01*
X147338Y307041D01*
X147351Y306943D01*
X147369Y306844D01*
X147390Y306747D01*
X147415Y306651D01*
X147444Y306555D01*
X147477Y306461D01*
X147513Y306368D01*
X147553Y306277D01*
X147597Y306187D01*
X147644Y306099D01*
X147694Y306013D01*
X147748Y305929D01*
X147805Y305847D01*
X147865Y305768D01*
X147929Y305690D01*
X147995Y305616D01*
X148064Y305544D01*
X148136Y305475D01*
X148210Y305409D01*
X148288Y305345D01*
X148367Y305285D01*
X148449Y305228D01*
X148533Y305174D01*
X148619Y305124D01*
X148707Y305077D01*
X148797Y305033D01*
X148888Y304993D01*
X148981Y304957D01*
X149075Y304924D01*
X149171Y304895D01*
X149267Y304870D01*
X149364Y304849D01*
X149463Y304831D01*
X149561Y304818D01*
X149661Y304808D01*
X149760Y304802D01*
X149860Y304800D01*
X167640Y304800D02*
X167740Y304802D01*
X167839Y304808D01*
X167939Y304818D01*
X168037Y304831D01*
X168136Y304849D01*
X168233Y304870D01*
X168329Y304895D01*
X168425Y304924D01*
X168519Y304957D01*
X168612Y304993D01*
X168703Y305033D01*
X168793Y305077D01*
X168881Y305124D01*
X168967Y305174D01*
X169051Y305228D01*
X169133Y305285D01*
X169212Y305345D01*
X169290Y305409D01*
X169364Y305475D01*
X169436Y305544D01*
X169505Y305616D01*
X169571Y305690D01*
X169635Y305768D01*
X169695Y305847D01*
X169752Y305929D01*
X169806Y306013D01*
X169856Y306099D01*
X169903Y306187D01*
X169947Y306277D01*
X169987Y306368D01*
X170023Y306461D01*
X170056Y306555D01*
X170085Y306651D01*
X170110Y306747D01*
X170131Y306844D01*
X170149Y306943D01*
X170162Y307041D01*
X170172Y307141D01*
X170178Y307240D01*
X170180Y307340D01*
X170180Y365760D02*
X170178Y365860D01*
X170172Y365959D01*
X170162Y366059D01*
X170149Y366157D01*
X170131Y366256D01*
X170110Y366353D01*
X170085Y366449D01*
X170056Y366545D01*
X170023Y366639D01*
X169987Y366732D01*
X169947Y366823D01*
X169903Y366913D01*
X169856Y367001D01*
X169806Y367087D01*
X169752Y367171D01*
X169695Y367253D01*
X169635Y367332D01*
X169571Y367410D01*
X169505Y367484D01*
X169436Y367556D01*
X169364Y367625D01*
X169290Y367691D01*
X169212Y367755D01*
X169133Y367815D01*
X169051Y367872D01*
X168967Y367926D01*
X168881Y367976D01*
X168793Y368023D01*
X168703Y368067D01*
X168612Y368107D01*
X168519Y368143D01*
X168425Y368176D01*
X168329Y368205D01*
X168233Y368230D01*
X168136Y368251D01*
X168037Y368269D01*
X167939Y368282D01*
X167839Y368292D01*
X167740Y368298D01*
X167640Y368300D01*
X149860Y368300D02*
X149760Y368298D01*
X149661Y368292D01*
X149561Y368282D01*
X149463Y368269D01*
X149364Y368251D01*
X149267Y368230D01*
X149171Y368205D01*
X149075Y368176D01*
X148981Y368143D01*
X148888Y368107D01*
X148797Y368067D01*
X148707Y368023D01*
X148619Y367976D01*
X148533Y367926D01*
X148449Y367872D01*
X148367Y367815D01*
X148288Y367755D01*
X148210Y367691D01*
X148136Y367625D01*
X148064Y367556D01*
X147995Y367484D01*
X147929Y367410D01*
X147865Y367332D01*
X147805Y367253D01*
X147748Y367171D01*
X147694Y367087D01*
X147644Y367001D01*
X147597Y366913D01*
X147553Y366823D01*
X147513Y366732D01*
X147477Y366639D01*
X147444Y366545D01*
X147415Y366449D01*
X147390Y366353D01*
X147369Y366256D01*
X147351Y366157D01*
X147338Y366059D01*
X147328Y365959D01*
X147322Y365860D01*
X147320Y365760D01*
X149860Y304800D02*
X167640Y304800D01*
X147320Y307340D02*
X147320Y311150D01*
X148590Y312420D01*
X170180Y311150D02*
X170180Y307340D01*
X170180Y311150D02*
X168910Y312420D01*
X148590Y360680D02*
X147320Y361950D01*
X148590Y360680D02*
X148590Y312420D01*
X168910Y360680D02*
X170180Y361950D01*
X168910Y360680D02*
X168910Y312420D01*
X147320Y361950D02*
X147320Y365760D01*
X170180Y365760D02*
X170180Y361950D01*
X167640Y368300D02*
X149860Y368300D01*
D19*
X158750Y372618D03*
X158750Y300482D03*
D10*
X142875Y306705D02*
X131445Y306705D01*
X131445Y309880D01*
X131447Y309991D01*
X131453Y310101D01*
X131462Y310212D01*
X131476Y310322D01*
X131493Y310431D01*
X131514Y310540D01*
X131539Y310648D01*
X131568Y310755D01*
X131600Y310861D01*
X131636Y310966D01*
X131676Y311069D01*
X131719Y311171D01*
X131766Y311272D01*
X131817Y311371D01*
X131870Y311468D01*
X131927Y311562D01*
X131988Y311655D01*
X132051Y311746D01*
X132118Y311835D01*
X132188Y311921D01*
X132261Y312004D01*
X132336Y312086D01*
X132414Y312164D01*
X132496Y312239D01*
X132579Y312312D01*
X132665Y312382D01*
X132754Y312449D01*
X132845Y312512D01*
X132938Y312573D01*
X133033Y312630D01*
X133129Y312683D01*
X133228Y312734D01*
X133329Y312781D01*
X133431Y312824D01*
X133534Y312864D01*
X133639Y312900D01*
X133745Y312932D01*
X133852Y312961D01*
X133960Y312986D01*
X134069Y313007D01*
X134178Y313024D01*
X134288Y313038D01*
X134399Y313047D01*
X134509Y313053D01*
X134620Y313055D01*
X134731Y313053D01*
X134841Y313047D01*
X134952Y313038D01*
X135062Y313024D01*
X135171Y313007D01*
X135280Y312986D01*
X135388Y312961D01*
X135495Y312932D01*
X135601Y312900D01*
X135706Y312864D01*
X135809Y312824D01*
X135911Y312781D01*
X136012Y312734D01*
X136111Y312683D01*
X136208Y312630D01*
X136302Y312573D01*
X136395Y312512D01*
X136486Y312449D01*
X136575Y312382D01*
X136661Y312312D01*
X136744Y312239D01*
X136826Y312164D01*
X136904Y312086D01*
X136979Y312004D01*
X137052Y311921D01*
X137122Y311835D01*
X137189Y311746D01*
X137252Y311655D01*
X137313Y311562D01*
X137370Y311468D01*
X137423Y311371D01*
X137474Y311272D01*
X137521Y311171D01*
X137564Y311069D01*
X137604Y310966D01*
X137640Y310861D01*
X137672Y310755D01*
X137701Y310648D01*
X137726Y310540D01*
X137747Y310431D01*
X137764Y310322D01*
X137778Y310212D01*
X137787Y310101D01*
X137793Y309991D01*
X137795Y309880D01*
X137795Y306705D01*
X137795Y310515D02*
X142875Y313055D01*
X142875Y318052D02*
X142875Y321227D01*
X142873Y321338D01*
X142867Y321448D01*
X142858Y321559D01*
X142844Y321669D01*
X142827Y321778D01*
X142806Y321887D01*
X142781Y321995D01*
X142752Y322102D01*
X142720Y322208D01*
X142684Y322313D01*
X142644Y322416D01*
X142601Y322518D01*
X142554Y322619D01*
X142503Y322718D01*
X142450Y322815D01*
X142393Y322909D01*
X142332Y323002D01*
X142269Y323093D01*
X142202Y323182D01*
X142132Y323268D01*
X142059Y323351D01*
X141984Y323433D01*
X141906Y323511D01*
X141824Y323586D01*
X141741Y323659D01*
X141655Y323729D01*
X141566Y323796D01*
X141475Y323859D01*
X141382Y323920D01*
X141288Y323977D01*
X141191Y324030D01*
X141092Y324081D01*
X140991Y324128D01*
X140889Y324171D01*
X140786Y324211D01*
X140681Y324247D01*
X140575Y324279D01*
X140468Y324308D01*
X140360Y324333D01*
X140251Y324354D01*
X140142Y324371D01*
X140032Y324385D01*
X139921Y324394D01*
X139811Y324400D01*
X139700Y324402D01*
X139589Y324400D01*
X139479Y324394D01*
X139368Y324385D01*
X139258Y324371D01*
X139149Y324354D01*
X139040Y324333D01*
X138932Y324308D01*
X138825Y324279D01*
X138719Y324247D01*
X138614Y324211D01*
X138511Y324171D01*
X138409Y324128D01*
X138308Y324081D01*
X138209Y324030D01*
X138113Y323977D01*
X138018Y323920D01*
X137925Y323859D01*
X137834Y323796D01*
X137745Y323729D01*
X137659Y323659D01*
X137576Y323586D01*
X137494Y323511D01*
X137416Y323433D01*
X137341Y323351D01*
X137268Y323268D01*
X137198Y323182D01*
X137131Y323093D01*
X137068Y323002D01*
X137007Y322909D01*
X136950Y322815D01*
X136897Y322718D01*
X136846Y322619D01*
X136799Y322518D01*
X136756Y322416D01*
X136716Y322313D01*
X136680Y322208D01*
X136648Y322102D01*
X136619Y321995D01*
X136594Y321887D01*
X136573Y321778D01*
X136556Y321669D01*
X136542Y321559D01*
X136533Y321448D01*
X136527Y321338D01*
X136525Y321227D01*
X131445Y321862D02*
X131445Y318052D01*
X131445Y321862D02*
X131447Y321962D01*
X131453Y322061D01*
X131463Y322161D01*
X131476Y322259D01*
X131494Y322358D01*
X131515Y322455D01*
X131540Y322551D01*
X131569Y322647D01*
X131602Y322741D01*
X131638Y322834D01*
X131678Y322925D01*
X131722Y323015D01*
X131769Y323103D01*
X131819Y323189D01*
X131873Y323273D01*
X131930Y323355D01*
X131990Y323434D01*
X132054Y323512D01*
X132120Y323586D01*
X132189Y323658D01*
X132261Y323727D01*
X132335Y323793D01*
X132413Y323857D01*
X132492Y323917D01*
X132574Y323974D01*
X132658Y324028D01*
X132744Y324078D01*
X132832Y324125D01*
X132922Y324169D01*
X133013Y324209D01*
X133106Y324245D01*
X133200Y324278D01*
X133296Y324307D01*
X133392Y324332D01*
X133489Y324353D01*
X133588Y324371D01*
X133686Y324384D01*
X133786Y324394D01*
X133885Y324400D01*
X133985Y324402D01*
X134085Y324400D01*
X134184Y324394D01*
X134284Y324384D01*
X134382Y324371D01*
X134481Y324353D01*
X134578Y324332D01*
X134674Y324307D01*
X134770Y324278D01*
X134864Y324245D01*
X134957Y324209D01*
X135048Y324169D01*
X135138Y324125D01*
X135226Y324078D01*
X135312Y324028D01*
X135396Y323974D01*
X135478Y323917D01*
X135557Y323857D01*
X135635Y323793D01*
X135709Y323727D01*
X135781Y323658D01*
X135850Y323586D01*
X135916Y323512D01*
X135980Y323434D01*
X136040Y323355D01*
X136097Y323273D01*
X136151Y323189D01*
X136201Y323103D01*
X136248Y323015D01*
X136292Y322925D01*
X136332Y322834D01*
X136368Y322741D01*
X136401Y322647D01*
X136430Y322551D01*
X136455Y322455D01*
X136476Y322358D01*
X136494Y322259D01*
X136507Y322161D01*
X136517Y322061D01*
X136523Y321962D01*
X136525Y321862D01*
X136525Y319322D01*
D12*
X482600Y109220D02*
X482600Y68580D01*
X482600Y109220D02*
X457200Y109220D01*
X457200Y68580D01*
X482600Y68580D01*
X469900Y82550D02*
X469900Y88900D01*
X463550Y99060D02*
X476250Y99060D01*
X469900Y88900D01*
X469900Y104140D01*
X463550Y99060D02*
X469900Y88900D01*
X463550Y88900D01*
X469900Y88900D02*
X476250Y88900D01*
D20*
X469900Y74930D03*
D21*
X469900Y118745D03*
X469900Y59055D03*
D10*
X452755Y69215D02*
X441325Y69215D01*
X441325Y72390D01*
X441327Y72501D01*
X441333Y72611D01*
X441342Y72722D01*
X441356Y72832D01*
X441373Y72941D01*
X441394Y73050D01*
X441419Y73158D01*
X441448Y73265D01*
X441480Y73371D01*
X441516Y73476D01*
X441556Y73579D01*
X441599Y73681D01*
X441646Y73782D01*
X441697Y73881D01*
X441750Y73978D01*
X441807Y74072D01*
X441868Y74165D01*
X441931Y74256D01*
X441998Y74345D01*
X442068Y74431D01*
X442141Y74514D01*
X442216Y74596D01*
X442294Y74674D01*
X442376Y74749D01*
X442459Y74822D01*
X442545Y74892D01*
X442634Y74959D01*
X442725Y75022D01*
X442818Y75083D01*
X442913Y75140D01*
X443009Y75193D01*
X443108Y75244D01*
X443209Y75291D01*
X443311Y75334D01*
X443414Y75374D01*
X443519Y75410D01*
X443625Y75442D01*
X443732Y75471D01*
X443840Y75496D01*
X443949Y75517D01*
X444058Y75534D01*
X444168Y75548D01*
X444279Y75557D01*
X444389Y75563D01*
X444500Y75565D01*
X449580Y75565D01*
X449691Y75563D01*
X449801Y75557D01*
X449912Y75548D01*
X450022Y75534D01*
X450131Y75517D01*
X450240Y75496D01*
X450348Y75471D01*
X450455Y75442D01*
X450561Y75410D01*
X450666Y75374D01*
X450769Y75334D01*
X450871Y75291D01*
X450972Y75244D01*
X451071Y75193D01*
X451168Y75140D01*
X451262Y75083D01*
X451355Y75022D01*
X451446Y74959D01*
X451535Y74892D01*
X451621Y74822D01*
X451704Y74749D01*
X451786Y74674D01*
X451864Y74596D01*
X451939Y74514D01*
X452012Y74431D01*
X452082Y74345D01*
X452149Y74256D01*
X452212Y74165D01*
X452273Y74072D01*
X452330Y73978D01*
X452383Y73881D01*
X452434Y73782D01*
X452481Y73681D01*
X452524Y73579D01*
X452564Y73476D01*
X452600Y73371D01*
X452632Y73265D01*
X452661Y73158D01*
X452686Y73050D01*
X452707Y72941D01*
X452724Y72832D01*
X452738Y72722D01*
X452747Y72611D01*
X452753Y72501D01*
X452755Y72390D01*
X452755Y69215D01*
X443865Y81026D02*
X441325Y84201D01*
X452755Y84201D01*
X452755Y81026D02*
X452755Y87376D01*
D12*
X660400Y152400D02*
X666750Y146050D01*
X666750Y133350D01*
X660400Y127000D01*
X647700Y127000D01*
X641350Y133350D01*
X641350Y146050D01*
X647700Y152400D01*
X666750Y184150D02*
X666750Y196850D01*
X666750Y184150D02*
X660400Y177800D01*
X647700Y177800D01*
X641350Y184150D01*
X660400Y177800D02*
X666750Y171450D01*
X666750Y158750D01*
X660400Y152400D01*
X647700Y152400D01*
X641350Y158750D01*
X641350Y171450D01*
X647700Y177800D01*
X647700Y203200D02*
X660400Y203200D01*
X666750Y196850D01*
X647700Y203200D02*
X641350Y196850D01*
X641350Y184150D01*
X666750Y120650D02*
X666750Y107950D01*
X660400Y101600D01*
X647700Y101600D01*
X641350Y107950D01*
X660400Y127000D02*
X666750Y120650D01*
X647700Y127000D02*
X641350Y120650D01*
X641350Y107950D01*
D10*
X672973Y180138D02*
X681863Y180138D01*
X681963Y180136D01*
X682062Y180130D01*
X682162Y180120D01*
X682260Y180107D01*
X682359Y180089D01*
X682456Y180068D01*
X682552Y180043D01*
X682648Y180014D01*
X682742Y179981D01*
X682835Y179945D01*
X682926Y179905D01*
X683016Y179861D01*
X683104Y179814D01*
X683190Y179764D01*
X683274Y179710D01*
X683356Y179653D01*
X683435Y179593D01*
X683513Y179529D01*
X683587Y179463D01*
X683659Y179394D01*
X683728Y179322D01*
X683794Y179248D01*
X683858Y179170D01*
X683918Y179091D01*
X683975Y179009D01*
X684029Y178925D01*
X684079Y178839D01*
X684126Y178751D01*
X684170Y178661D01*
X684210Y178570D01*
X684246Y178477D01*
X684279Y178383D01*
X684308Y178287D01*
X684333Y178191D01*
X684354Y178094D01*
X684372Y177995D01*
X684385Y177897D01*
X684395Y177797D01*
X684401Y177698D01*
X684403Y177598D01*
X684403Y176328D01*
X684403Y186119D02*
X672973Y186119D01*
X672973Y189294D01*
X672975Y189405D01*
X672981Y189515D01*
X672990Y189626D01*
X673004Y189736D01*
X673021Y189845D01*
X673042Y189954D01*
X673067Y190062D01*
X673096Y190169D01*
X673128Y190275D01*
X673164Y190380D01*
X673204Y190483D01*
X673247Y190585D01*
X673294Y190686D01*
X673345Y190785D01*
X673398Y190882D01*
X673455Y190976D01*
X673516Y191069D01*
X673579Y191160D01*
X673646Y191249D01*
X673716Y191335D01*
X673789Y191418D01*
X673864Y191500D01*
X673942Y191578D01*
X674024Y191653D01*
X674107Y191726D01*
X674193Y191796D01*
X674282Y191863D01*
X674373Y191926D01*
X674466Y191987D01*
X674561Y192044D01*
X674657Y192097D01*
X674756Y192148D01*
X674857Y192195D01*
X674959Y192238D01*
X675062Y192278D01*
X675167Y192314D01*
X675273Y192346D01*
X675380Y192375D01*
X675488Y192400D01*
X675597Y192421D01*
X675706Y192438D01*
X675816Y192452D01*
X675927Y192461D01*
X676037Y192467D01*
X676148Y192469D01*
X676259Y192467D01*
X676369Y192461D01*
X676480Y192452D01*
X676590Y192438D01*
X676699Y192421D01*
X676808Y192400D01*
X676916Y192375D01*
X677023Y192346D01*
X677129Y192314D01*
X677234Y192278D01*
X677337Y192238D01*
X677439Y192195D01*
X677540Y192148D01*
X677639Y192097D01*
X677736Y192044D01*
X677830Y191987D01*
X677923Y191926D01*
X678014Y191863D01*
X678103Y191796D01*
X678189Y191726D01*
X678272Y191653D01*
X678354Y191578D01*
X678432Y191500D01*
X678507Y191418D01*
X678580Y191335D01*
X678650Y191249D01*
X678717Y191160D01*
X678780Y191069D01*
X678841Y190976D01*
X678898Y190882D01*
X678951Y190785D01*
X679002Y190686D01*
X679049Y190585D01*
X679092Y190483D01*
X679132Y190380D01*
X679168Y190275D01*
X679200Y190169D01*
X679229Y190062D01*
X679254Y189954D01*
X679275Y189845D01*
X679292Y189736D01*
X679306Y189626D01*
X679315Y189515D01*
X679321Y189405D01*
X679323Y189294D01*
X679323Y186119D01*
X675513Y196977D02*
X672973Y200152D01*
X684403Y200152D01*
X684403Y196977D02*
X684403Y203327D01*
M02*
