G04 EAGLE Gerber RS-274X export*
G75*
%MOMM*%
%FSLAX34Y34*%
%LPD*%
%INSoldermask Bottom*%
%IPPOS*%
%AMOC8*
5,1,8,0,0,1.08239X$1,22.5*%
G01*
%ADD10C,1.511200*%
%ADD11C,1.727200*%
%ADD12P,1.869504X8X22.500000*%
%ADD13P,1.649562X8X202.500000*%
%ADD14C,1.879600*%
%ADD15C,3.505200*%
%ADD16C,2.184400*%
%ADD17P,1.649562X8X112.500000*%
%ADD18C,1.879600*%
%ADD19C,0.959600*%


D10*
X120650Y418910D02*
X120650Y431990D01*
X146050Y431990D02*
X146050Y418910D01*
X171450Y418910D02*
X171450Y431990D01*
X196850Y431990D02*
X196850Y418910D01*
X222250Y418910D02*
X222250Y431990D01*
X247650Y431990D02*
X247650Y418910D01*
X273050Y418910D02*
X273050Y431990D01*
X298450Y431990D02*
X298450Y418910D01*
X323850Y418910D02*
X323850Y431990D01*
X349250Y431990D02*
X349250Y418910D01*
X374650Y418910D02*
X374650Y431990D01*
X400050Y431990D02*
X400050Y418910D01*
X425450Y418910D02*
X425450Y431990D01*
X450850Y431990D02*
X450850Y418910D01*
X476250Y418910D02*
X476250Y431990D01*
X501650Y431990D02*
X501650Y418910D01*
X527050Y418910D02*
X527050Y431990D01*
X552450Y431990D02*
X552450Y418910D01*
X577850Y418910D02*
X577850Y431990D01*
X603250Y431990D02*
X603250Y418910D01*
X120650Y571310D02*
X120650Y584390D01*
X146050Y584390D02*
X146050Y571310D01*
X171450Y571310D02*
X171450Y584390D01*
X196850Y584390D02*
X196850Y571310D01*
X222250Y571310D02*
X222250Y584390D01*
X247650Y584390D02*
X247650Y571310D01*
X273050Y571310D02*
X273050Y584390D01*
X298450Y584390D02*
X298450Y571310D01*
X323850Y571310D02*
X323850Y584390D01*
X349250Y584390D02*
X349250Y571310D01*
X374650Y571310D02*
X374650Y584390D01*
X400050Y584390D02*
X400050Y571310D01*
X425450Y571310D02*
X425450Y584390D01*
X450850Y584390D02*
X450850Y571310D01*
X476250Y571310D02*
X476250Y584390D01*
X501650Y584390D02*
X501650Y571310D01*
X527050Y571310D02*
X527050Y584390D01*
X552450Y584390D02*
X552450Y571310D01*
X577850Y571310D02*
X577850Y584390D01*
X603250Y584390D02*
X603250Y571310D01*
D11*
X64770Y488950D02*
X49530Y488950D01*
X49530Y463550D02*
X64770Y463550D01*
X260350Y274320D02*
X260350Y259080D01*
X285750Y259080D02*
X285750Y274320D01*
X311150Y274320D02*
X311150Y259080D01*
X336550Y259080D02*
X336550Y274320D01*
X361950Y274320D02*
X361950Y259080D01*
X387350Y259080D02*
X387350Y274320D01*
X412750Y274320D02*
X412750Y259080D01*
X260350Y45720D02*
X260350Y30480D01*
X285750Y30480D02*
X285750Y45720D01*
X311150Y45720D02*
X311150Y30480D01*
X336550Y30480D02*
X336550Y45720D01*
X361950Y45720D02*
X361950Y30480D01*
X387350Y30480D02*
X387350Y45720D01*
X412750Y45720D02*
X412750Y30480D01*
D12*
X133350Y254000D03*
X133350Y50800D03*
D11*
X633730Y463550D02*
X648970Y463550D01*
X648970Y488950D02*
X633730Y488950D01*
X633730Y514350D02*
X648970Y514350D01*
X648970Y539750D02*
X633730Y539750D01*
D13*
X641350Y368300D03*
X539750Y368300D03*
D11*
X389382Y618744D02*
X374142Y618744D01*
X374142Y663956D02*
X389382Y663956D01*
X324358Y618744D02*
X309118Y618744D01*
X309118Y663956D02*
X324358Y663956D01*
X590042Y618744D02*
X605282Y618744D01*
X605282Y663956D02*
X590042Y663956D01*
X540258Y618744D02*
X525018Y618744D01*
X525018Y663956D02*
X540258Y663956D01*
X186182Y618744D02*
X170942Y618744D01*
X170942Y663956D02*
X186182Y663956D01*
X121158Y618744D02*
X105918Y618744D01*
X105918Y663956D02*
X121158Y663956D01*
D14*
X78232Y323850D02*
X61468Y323850D01*
X61468Y349250D02*
X78232Y349250D01*
X78232Y374650D02*
X61468Y374650D01*
D15*
X-105410Y349250D03*
D16*
X586994Y38100D02*
X606806Y38100D01*
X530606Y38100D02*
X510794Y38100D01*
X510794Y241300D02*
X530606Y241300D01*
X586994Y190500D02*
X606806Y190500D01*
X606806Y292100D02*
X586994Y292100D01*
X586994Y241300D02*
X606806Y241300D01*
X530606Y190500D02*
X510794Y190500D01*
X510794Y292100D02*
X530606Y292100D01*
D17*
X127000Y285750D03*
X127000Y387350D03*
X158750Y285750D03*
X158750Y387350D03*
D18*
X469900Y139700D03*
X469900Y38100D03*
D11*
X646430Y190500D02*
X661670Y190500D01*
X661670Y165100D02*
X646430Y165100D01*
X646430Y139700D02*
X661670Y139700D01*
X661670Y114300D02*
X646430Y114300D01*
D19*
X438150Y120650D03*
X438150Y158750D03*
X76200Y641350D03*
X25400Y641350D03*
X469900Y323850D03*
X469900Y368300D03*
X260350Y139700D03*
X152400Y139700D03*
M02*
